<svg width="28" height="28" viewBox="0 0 28 28" fill="none" xmlns="http://www.w3.org/2000/svg">
<path fill-rule="evenodd" clip-rule="evenodd" d="M13.5 0.666504H6.79528C6.59762 0.666504 6.41206 0.761685 6.29713 0.922692L1.24234 7.99984H13.5V0.666504ZM14.7222 7.99984H26.9796L21.9247 0.922561C21.8098 0.761685 21.6243 0.666504 21.4259 0.666504H14.7222V7.99984ZM27.5554 9.22206H0.666504V26.9443C0.666504 27.2818 0.940107 27.5554 1.27761 27.5554H26.9443C27.2818 27.5554 27.5554 27.2818 27.5554 26.9443V9.22206ZM24.2035 22.3332H16.7961C16.5404 22.3332 16.3332 22.4638 16.3332 22.6248V24.3748C16.3332 24.5359 16.5404 24.6665 16.7961 24.6665H24.2035C24.4592 24.6665 24.6665 24.5359 24.6665 24.3748V22.6248C24.6665 22.4638 24.4592 22.3332 24.2035 22.3332Z" fill="#DC002E"/>
</svg>
