<svg width="79" height="86" viewBox="0 0 79 86" fill="none" xmlns="http://www.w3.org/2000/svg">
<rect x="1.25" y="0.5" width="76.75" height="85" rx="15.5" fill="white"/>
<path d="M46.939 16.3335H32.3103C31.7174 16.3328 31.1607 16.619 30.8162 17.1017L25.2992 24.826C25.0772 25.137 24.958 25.5094 24.958 25.8913V43.8335C24.958 44.846 25.7788 45.6668 26.7913 45.6668H52.458C53.4705 45.6668 54.2913 44.846 54.2913 43.8335V25.8913C54.2913 25.5094 54.1721 25.137 53.9503 24.8262L48.4331 17.1015C48.0887 16.619 47.532 16.3328 46.939 16.3335ZM32.309 17.5557H46.9397C47.138 17.5557 47.3236 17.6509 47.4384 17.8118L52.9556 25.5364C53.0294 25.6397 53.0691 25.7639 53.0691 25.8913V43.8335C53.0691 44.171 52.7955 44.4446 52.458 44.4446H26.7913C26.4538 44.4446 26.1802 44.171 26.1802 43.8335V25.8913C26.1802 25.7639 26.22 25.6397 26.2939 25.5361L31.8109 17.8119C31.9258 17.6509 32.1113 17.5557 32.309 17.5557Z" fill="#DC002E"/>
<path d="M39.6248 16.3335C39.9248 16.3335 40.1743 16.5497 40.226 16.8348L40.2359 16.9446V25.5002C40.2359 25.8377 39.9623 26.1113 39.6248 26.1113C39.3248 26.1113 39.0753 25.8951 39.0235 25.61L39.0137 25.5002V16.9446C39.0137 16.6071 39.2873 16.3335 39.6248 16.3335Z" fill="#DC002E"/>
<path d="M50.0149 37.1113H40.2371C39.8996 37.1113 39.626 37.3849 39.626 37.7224V41.3891C39.626 41.7266 39.8996 42.0002 40.2371 42.0002H50.0149C50.3524 42.0002 50.626 41.7266 50.626 41.3891V37.7224C50.626 37.3849 50.3524 37.1113 50.0149 37.1113ZM49.4038 38.3336V40.778H40.8482V38.3336H49.4038Z" fill="#DC002E"/>
<path d="M53.6151 24.8892C53.9526 24.8892 54.2262 25.1628 54.2262 25.5003C54.2262 25.8003 54.0101 26.0498 53.725 26.1015L53.6151 26.1114H25.6336C25.2961 26.1114 25.0225 25.8378 25.0225 25.5003C25.0225 25.2003 25.2386 24.9508 25.5237 24.899L25.6336 24.8892H53.6151Z" fill="#DC002E"/>
<path d="M21.2468 68L20.7308 66.08H17.9828L17.4668 68H15.8228L18.4028 59.708H20.3588L22.9268 68H21.2468ZM18.2948 64.88H20.4068L19.3508 60.92L18.2948 64.88ZM31.7109 68H30.1629L29.9469 64.532C29.8749 63.292 29.8389 62.308 29.8389 61.58V61.148L28.3269 67.1H26.8269L25.2189 61.136C25.2349 61.664 25.2429 62.064 25.2429 62.336C25.2429 63.064 25.2189 63.812 25.1709 64.58L24.9669 68H23.4309L24.0909 59.708H26.1309L27.6069 65.516L28.9989 59.708H31.0629L31.7109 68ZM37.3056 63.608C37.8736 63.712 38.3296 63.916 38.6736 64.22C39.0256 64.524 39.2016 64.988 39.2016 65.612C39.2016 66.476 38.8976 67.092 38.2896 67.46C37.6816 67.82 36.8296 68 35.7336 68H33.2376V59.708H35.4096C37.6976 59.708 38.8416 60.412 38.8416 61.82C38.8416 62.308 38.6936 62.708 38.3976 63.02C38.1016 63.324 37.7376 63.52 37.3056 63.608ZM34.8216 60.872V63.116H35.7936C36.2336 63.116 36.5816 63.02 36.8376 62.828C37.0936 62.628 37.2216 62.336 37.2216 61.952C37.2216 61.552 37.0856 61.272 36.8136 61.112C36.5496 60.952 36.1336 60.872 35.5656 60.872H34.8216ZM35.7456 66.812C36.3296 66.812 36.7736 66.724 37.0776 66.548C37.3896 66.372 37.5456 66.04 37.5456 65.552C37.5456 65.08 37.3976 64.74 37.1016 64.532C36.8136 64.324 36.4176 64.22 35.9136 64.22H34.8216V66.812H35.7456ZM44.9304 68L44.4144 66.08H41.6664L41.1504 68H39.5064L42.0864 59.708H44.0424L46.6104 68H44.9304ZM41.9784 64.88H44.0904L43.0344 60.92L41.9784 64.88ZM49.1185 59.708V66.704H52.4425L52.2625 68H47.5345V59.708H49.1185ZM57.9968 68L57.4808 66.08H54.7328L54.2168 68H52.5728L55.1528 59.708H57.1088L59.6768 68H57.9968ZM55.0448 64.88H57.1568L56.1008 60.92L55.0448 64.88ZM62.4489 66.788C62.4489 67.676 62.2369 68.344 61.8129 68.792C61.3969 69.248 60.7969 69.604 60.0129 69.86L59.5929 68.72C59.9449 68.584 60.2089 68.428 60.3849 68.252C60.5689 68.084 60.6929 67.884 60.7569 67.652C60.8209 67.412 60.8529 67.104 60.8529 66.728V59.708H62.4489V66.788Z" fill="black"/>
<rect x="1.25" y="0.5" width="76.75" height="85" rx="15.5" stroke="#D0D0D0"/>
</svg>
