<svg width="79" height="87" viewBox="0 0 79 87" fill="none" xmlns="http://www.w3.org/2000/svg">
<rect x="1.25" y="1.47461" width="76.75" height="85" rx="15.5" fill="white"/>
<path fill-rule="evenodd" clip-rule="evenodd" d="M39.1255 18.6411H32.4208C32.2231 18.6411 32.0376 18.7363 31.9226 18.8973L26.8678 25.9744H39.1255V18.6411ZM40.3477 25.9744H52.605L47.5502 18.8972C47.4353 18.7363 47.2498 18.6411 47.0514 18.6411H40.3477V25.9744ZM53.1809 27.1967H26.292V44.9189C26.292 45.2564 26.5656 45.53 26.9031 45.53H52.5698C52.9073 45.53 53.1809 45.2564 53.1809 44.9189V27.1967ZM49.829 40.3078H42.4216C42.1659 40.3078 41.9587 40.4384 41.9587 40.5994V42.3494C41.9587 42.5105 42.1659 42.6411 42.4216 42.6411H49.829C50.0847 42.6411 50.292 42.5105 50.292 42.3494V40.5994C50.292 40.4384 50.0847 40.3078 49.829 40.3078Z" fill="#DC002E"/>
<path d="M21.2468 68.9746L20.7308 67.0546H17.9828L17.4668 68.9746H15.8228L18.4028 60.6826H20.3588L22.9268 68.9746H21.2468ZM18.2948 65.8546H20.4068L19.3508 61.8946L18.2948 65.8546ZM31.7109 68.9746H30.1629L29.9469 65.5066C29.8749 64.2666 29.8389 63.2826 29.8389 62.5546V62.1226L28.3269 68.0746H26.8269L25.2189 62.1106C25.2349 62.6386 25.2429 63.0386 25.2429 63.3106C25.2429 64.0386 25.2189 64.7866 25.1709 65.5546L24.9669 68.9746H23.4309L24.0909 60.6826H26.1309L27.6069 66.4906L28.9989 60.6826H31.0629L31.7109 68.9746ZM37.3056 64.5826C37.8736 64.6866 38.3296 64.8906 38.6736 65.1946C39.0256 65.4986 39.2016 65.9626 39.2016 66.5866C39.2016 67.4506 38.8976 68.0666 38.2896 68.4346C37.6816 68.7946 36.8296 68.9746 35.7336 68.9746H33.2376V60.6826H35.4096C37.6976 60.6826 38.8416 61.3866 38.8416 62.7946C38.8416 63.2826 38.6936 63.6826 38.3976 63.9946C38.1016 64.2986 37.7376 64.4946 37.3056 64.5826ZM34.8216 61.8466V64.0906H35.7936C36.2336 64.0906 36.5816 63.9946 36.8376 63.8026C37.0936 63.6026 37.2216 63.3106 37.2216 62.9266C37.2216 62.5266 37.0856 62.2466 36.8136 62.0866C36.5496 61.9266 36.1336 61.8466 35.5656 61.8466H34.8216ZM35.7456 67.7866C36.3296 67.7866 36.7736 67.6986 37.0776 67.5226C37.3896 67.3466 37.5456 67.0146 37.5456 66.5266C37.5456 66.0546 37.3976 65.7146 37.1016 65.5066C36.8136 65.2986 36.4176 65.1946 35.9136 65.1946H34.8216V67.7866H35.7456ZM44.9304 68.9746L44.4144 67.0546H41.6664L41.1504 68.9746H39.5064L42.0864 60.6826H44.0424L46.6104 68.9746H44.9304ZM41.9784 65.8546H44.0904L43.0344 61.8946L41.9784 65.8546ZM49.1185 60.6826V67.6786H52.4425L52.2625 68.9746H47.5345V60.6826H49.1185ZM57.9968 68.9746L57.4808 67.0546H54.7328L54.2168 68.9746H52.5728L55.1528 60.6826H57.1088L59.6768 68.9746H57.9968ZM55.0448 65.8546H57.1568L56.1008 61.8946L55.0448 65.8546ZM62.4489 67.7626C62.4489 68.6506 62.2369 69.3186 61.8129 69.7666C61.3969 70.2226 60.7969 70.5786 60.0129 70.8346L59.5929 69.6946C59.9449 69.5586 60.2089 69.4026 60.3849 69.2266C60.5689 69.0586 60.6929 68.8586 60.7569 68.6266C60.8209 68.3866 60.8529 68.0786 60.8529 67.7026V60.6826H62.4489V67.7626Z" fill="black"/>
<rect x="1.25" y="1.47461" width="76.75" height="85" rx="15.5" stroke="#D0D0D0"/>
</svg>
