<svg width="22" height="22" viewBox="0 0 22 22" fill="none" xmlns="http://www.w3.org/2000/svg">
<path d="M16.4857 8.22792e-07H5.51425C5.06952 -0.000484955 4.65202 0.214158 4.39363 0.576127L0.255864 6.36936C0.0893934 6.60265 0 6.88191 0 7.16833V20.625C0 21.3844 0.615608 22 1.375 22H20.625C21.3844 22 22 21.3844 22 20.625V7.16833C22 6.88191 21.9106 6.60265 21.7443 6.36952L17.6063 0.576029C17.348 0.214158 16.9305 -0.000484955 16.4857 8.22792e-07ZM5.51325 0.916667H16.4863C16.635 0.916667 16.7742 0.988054 16.8603 1.10871L20.9982 6.90214C21.0535 6.97968 21.0833 7.07279 21.0833 7.16833V20.625C21.0833 20.8781 20.8781 21.0833 20.625 21.0833H1.375C1.12187 21.0833 0.916667 20.8781 0.916667 20.625V7.16833C0.916667 7.07279 0.946472 6.97968 1.00192 6.90198L5.13964 1.10881C5.22584 0.988053 5.365 0.916667 5.51325 0.916667Z" fill="#DC002E"/>
<path d="M11.0001 0C11.2251 0 11.4122 0.162136 11.451 0.375947L11.4584 0.458333V6.875C11.4584 7.12813 11.2532 7.33333 11.0001 7.33333C10.7751 7.33333 10.5879 7.1712 10.5491 6.95739L10.5417 6.875V0.458333C10.5417 0.205203 10.747 0 11.0001 0Z" fill="#DC002E"/>
<path d="M18.7926 15.5835H11.4593C11.2062 15.5835 11.001 15.7887 11.001 16.0418V18.7918C11.001 19.045 11.2062 19.2502 11.4593 19.2502H18.7926C19.0458 19.2502 19.251 19.045 19.251 18.7918V16.0418C19.251 15.7887 19.0458 15.5835 18.7926 15.5835ZM18.3343 16.5002V18.3335H11.9176V16.5002H18.3343Z" fill="#DC002E"/>
<path d="M21.4931 6.4165C21.7462 6.4165 21.9514 6.62171 21.9514 6.87484C21.9514 7.09984 21.7893 7.28698 21.5755 7.32579L21.4931 7.33317H0.506917C0.253787 7.33317 0.048584 7.12797 0.048584 6.87484C0.048584 6.64983 0.21072 6.4627 0.424531 6.42389L0.506917 6.4165H21.4931Z" fill="#DC002E"/>
</svg>
