<svg width="78" height="87" viewBox="0 0 78 87" fill="none" xmlns="http://www.w3.org/2000/svg">
<rect x="0.75" y="1.47461" width="76.75" height="85" rx="15.5" fill="white"/>
<g clip-path="url(#clip0_3203_1926)">
<path d="M50.4587 15.9746H39.792C39.3309 15.9745 38.884 16.1337 38.5268 16.4253C38.1697 16.7169 37.9242 17.1229 37.832 17.5746C37.8224 17.623 37.8235 17.673 37.8355 17.7209C37.8474 17.7687 37.8698 17.8134 37.901 17.8516C37.9322 17.8899 37.9715 17.9207 38.0161 17.942C38.0606 17.9632 38.1093 17.9744 38.1587 17.9746H46.4587C46.7239 17.9746 46.9782 18.08 47.1658 18.2675C47.3533 18.455 47.4587 18.7094 47.4587 18.9746C47.4587 19.2398 47.3533 19.4942 47.1658 19.6817C46.9782 19.8693 46.7239 19.9746 46.4587 19.9746H38.1253C38.0369 19.9746 37.9521 20.0097 37.8896 20.0722C37.8271 20.1348 37.792 20.2195 37.792 20.3079V21.6413C37.792 21.7297 37.8271 21.8145 37.8896 21.877C37.9521 21.9395 38.0369 21.9746 38.1253 21.9746H43.792C44.0572 21.9746 44.3116 22.08 44.4991 22.2675C44.6866 22.455 44.792 22.7094 44.792 22.9746C44.792 23.2398 44.6866 23.4942 44.4991 23.6817C44.3116 23.8693 44.0572 23.9746 43.792 23.9746H38.1253C38.0369 23.9746 37.9521 24.0097 37.8896 24.0722C37.8271 24.1348 37.792 24.2195 37.792 24.3079V25.6413C37.792 25.7297 37.8271 25.8145 37.8896 25.877C37.9521 25.9395 38.0369 25.9746 38.1253 25.9746H38.4587C39.5195 25.9746 40.5369 26.396 41.2871 27.1462C42.0372 27.8963 42.4587 28.9137 42.4587 29.9746V47.5986C42.4526 47.6458 42.4567 47.6938 42.4707 47.7393C42.4847 47.7848 42.5082 47.8268 42.5398 47.8624C42.5714 47.898 42.6102 47.9265 42.6537 47.9458C42.6972 47.9652 42.7444 47.975 42.792 47.9746H44.1253C44.2137 47.9746 44.2985 47.9395 44.361 47.877C44.4235 47.8145 44.4587 47.7297 44.4587 47.6413V43.9746C44.4587 43.621 44.5991 43.2818 44.8492 43.0318C45.0992 42.7818 45.4384 42.6413 45.792 42.6413H48.4587C48.8123 42.6413 49.1514 42.7818 49.4015 43.0318C49.6515 43.2818 49.792 43.621 49.792 43.9746V47.6413C49.792 47.7297 49.8271 47.8145 49.8896 47.877C49.9521 47.9395 50.0369 47.9746 50.1253 47.9746H51.1253C51.4789 47.9746 51.8181 47.8341 52.0681 47.5841C52.3182 47.334 52.4587 46.9949 52.4587 46.6413V17.9746C52.4587 17.4442 52.2479 16.9355 51.8729 16.5604C51.4978 16.1853 50.9891 15.9746 50.4587 15.9746Z" fill="#DC002E"/>
<path d="M38.4587 27.9746H27.792C27.2616 27.9746 26.7529 28.1853 26.3778 28.5604C26.0027 28.9355 25.792 29.4442 25.792 29.9746V30.3079C25.792 30.3963 25.8271 30.4811 25.8896 30.5436C25.9521 30.6062 26.0369 30.6413 26.1253 30.6413H31.792C32.0572 30.6413 32.3116 30.7466 32.4991 30.9342C32.6866 31.1217 32.792 31.3761 32.792 31.6413C32.792 31.9065 32.6866 32.1608 32.4991 32.3484C32.3116 32.5359 32.0572 32.6413 31.792 32.6413H26.1253C26.0369 32.6413 25.9521 32.6764 25.8896 32.7389C25.8271 32.8014 25.792 32.8862 25.792 32.9746V34.9746C25.792 35.063 25.8271 35.1478 25.8896 35.2103C25.9521 35.2728 26.0369 35.3079 26.1253 35.3079H29.1253C29.3905 35.3079 29.6449 35.4133 29.8324 35.6008C30.02 35.7884 30.1253 36.0427 30.1253 36.3079C30.1253 36.5732 30.02 36.8275 29.8324 37.015C29.6449 37.2026 29.3905 37.3079 29.1253 37.3079H26.1253C26.0369 37.3079 25.9521 37.3431 25.8896 37.4056C25.8271 37.4681 25.792 37.5529 25.792 37.6413V46.6413C25.792 46.9949 25.9325 47.334 26.1825 47.5841C26.4326 47.8341 26.7717 47.9746 27.1253 47.9746H28.1253C28.2137 47.9746 28.2985 47.9395 28.361 47.877C28.4235 47.8145 28.4587 47.7297 28.4587 47.6413V43.9746C28.4587 43.621 28.5991 43.2818 28.8492 43.0318C29.0992 42.7818 29.4384 42.6413 29.792 42.6413H32.4587C32.8123 42.6413 33.1514 42.7818 33.4015 43.0318C33.6515 43.2818 33.792 43.621 33.792 43.9746V47.6413C33.792 47.7297 33.8271 47.8145 33.8896 47.877C33.9521 47.9395 34.0369 47.9746 34.1253 47.9746H39.792C39.9688 47.9746 40.1384 47.9044 40.2634 47.7793C40.3884 47.6543 40.4587 47.4848 40.4587 47.3079V29.9746C40.4587 29.4442 40.2479 28.9355 39.8729 28.5604C39.4978 28.1853 38.9891 27.9746 38.4587 27.9746Z" fill="#DC002E"/>
</g>
<path d="M26.8211 60.6826L26.6531 61.8586H23.5931V64.1746H26.2571V65.3506H23.5931V67.7866H26.8691V68.9746H22.0091V60.6826H26.8211ZM36.2324 68.9746H34.6844L34.4684 65.5066C34.3964 64.2666 34.3604 63.2826 34.3604 62.5546V62.1226L32.8484 68.0746H31.3484L29.7404 62.1106C29.7564 62.6386 29.7644 63.0386 29.7644 63.3106C29.7644 64.0386 29.7404 64.7866 29.6924 65.5546L29.4884 68.9746H27.9524L28.6124 60.6826H30.6524L32.1284 66.4906L33.5204 60.6826H35.5844L36.2324 68.9746ZM39.3431 60.6826V67.6786H42.6671L42.4871 68.9746H37.7591V60.6826H39.3431ZM48.2214 68.9746L47.7054 67.0546H44.9574L44.4414 68.9746H42.7974L45.3774 60.6826H47.3334L49.9014 68.9746H48.2214ZM45.2694 65.8546H47.3814L46.3254 61.8946L45.2694 65.8546ZM52.4095 60.6826V68.9746H50.8255V60.6826H52.4095ZM57.0655 60.6826L54.1975 64.4386L57.2935 68.9746H55.4095L52.4815 64.5466L55.3495 60.6826H57.0655Z" fill="black"/>
<rect x="0.75" y="1.47461" width="76.75" height="85" rx="15.5" stroke="#D0D0D0"/>
<defs>
<clipPath id="clip0_3203_1926">
<rect width="32" height="32" fill="white" transform="translate(23.125 15.9746)"/>
</clipPath>
</defs>
</svg>
