<svg width="32" height="32" viewBox="0 0 32 32" fill="none" xmlns="http://www.w3.org/2000/svg">
<g clip-path="url(#clip0_189_13001)">
<path d="M27.3337 4.16913e-08H16.667C16.2059 -9.40602e-05 15.759 0.159113 15.4018 0.450678C15.0447 0.742242 14.7992 1.14825 14.707 1.6C14.6974 1.64841 14.6985 1.69835 14.7105 1.74624C14.7224 1.79413 14.7448 1.8388 14.776 1.87703C14.8072 1.91525 14.8465 1.9461 14.8911 1.96736C14.9356 1.98863 14.9843 1.99977 15.0337 2H23.3337C23.5989 2 23.8532 2.10536 24.0408 2.29289C24.2283 2.48043 24.3337 2.73478 24.3337 3C24.3337 3.26522 24.2283 3.51957 24.0408 3.70711C23.8532 3.89464 23.5989 4 23.3337 4H15.0003C14.9119 4 14.8271 4.03512 14.7646 4.09763C14.7021 4.16014 14.667 4.24493 14.667 4.33333V5.66667C14.667 5.75507 14.7021 5.83986 14.7646 5.90237C14.8271 5.96488 14.9119 6 15.0003 6H20.667C20.9322 6 21.1866 6.10536 21.3741 6.29289C21.5616 6.48043 21.667 6.73478 21.667 7C21.667 7.26522 21.5616 7.51957 21.3741 7.70711C21.1866 7.89464 20.9322 8 20.667 8H15.0003C14.9119 8 14.8271 8.03512 14.7646 8.09763C14.7021 8.16014 14.667 8.24493 14.667 8.33333V9.66667C14.667 9.75507 14.7021 9.83986 14.7646 9.90237C14.8271 9.96488 14.9119 10 15.0003 10H15.3337C16.3945 10 17.4119 10.4214 18.1621 11.1716C18.9122 11.9217 19.3337 12.9391 19.3337 14V31.624C19.3276 31.6712 19.3317 31.7192 19.3457 31.7647C19.3597 31.8102 19.3832 31.8522 19.4148 31.8878C19.4464 31.9234 19.4852 31.9519 19.5287 31.9712C19.5722 31.9906 19.6194 32.0004 19.667 32H21.0003C21.0887 32 21.1735 31.9649 21.236 31.9024C21.2985 31.8399 21.3337 31.7551 21.3337 31.6667V28C21.3337 27.6464 21.4741 27.3072 21.7242 27.0572C21.9742 26.8071 22.3134 26.6667 22.667 26.6667H25.3337C25.6873 26.6667 26.0264 26.8071 26.2765 27.0572C26.5265 27.3072 26.667 27.6464 26.667 28V31.6667C26.667 31.7551 26.7021 31.8399 26.7646 31.9024C26.8271 31.9649 26.9119 32 27.0003 32H28.0003C28.3539 32 28.6931 31.8595 28.9431 31.6095C29.1932 31.3594 29.3337 31.0203 29.3337 30.6667V2C29.3337 1.46957 29.1229 0.960859 28.7479 0.585786C28.3728 0.210714 27.8641 4.16913e-08 27.3337 4.16913e-08Z" fill="#DC002E"/>
<path d="M15.3337 12H4.66699C4.13656 12 3.62785 12.2107 3.25278 12.5858C2.87771 12.9609 2.66699 13.4696 2.66699 14V14.3333C2.66699 14.4217 2.70211 14.5065 2.76462 14.569C2.82714 14.6315 2.91192 14.6667 3.00033 14.6667H8.66699C8.93221 14.6667 9.18656 14.772 9.3741 14.9596C9.56164 15.1471 9.66699 15.4015 9.66699 15.6667C9.66699 15.9319 9.56164 16.1862 9.3741 16.3738C9.18656 16.5613 8.93221 16.6667 8.66699 16.6667H3.00033C2.91192 16.6667 2.82714 16.7018 2.76462 16.7643C2.70211 16.8268 2.66699 16.9116 2.66699 17V19C2.66699 19.0884 2.70211 19.1732 2.76462 19.2357C2.82714 19.2982 2.91192 19.3333 3.00033 19.3333H6.00033C6.26554 19.3333 6.5199 19.4387 6.70743 19.6262C6.89497 19.8138 7.00033 20.0681 7.00033 20.3333C7.00033 20.5985 6.89497 20.8529 6.70743 21.0404C6.5199 21.228 6.26554 21.3333 6.00033 21.3333H3.00033C2.91192 21.3333 2.82714 21.3685 2.76462 21.431C2.70211 21.4935 2.66699 21.5783 2.66699 21.6667V30.6667C2.66699 31.0203 2.80747 31.3594 3.05752 31.6095C3.30756 31.8595 3.6467 32 4.00033 32H5.00033C5.08873 32 5.17352 31.9649 5.23603 31.9024C5.29854 31.8399 5.33366 31.7551 5.33366 31.6667V28C5.33366 27.6464 5.47413 27.3072 5.72418 27.0572C5.97423 26.8071 6.31337 26.6667 6.66699 26.6667H9.33366C9.68728 26.6667 10.0264 26.8071 10.2765 27.0572C10.5265 27.3072 10.667 27.6464 10.667 28V31.6667C10.667 31.7551 10.7021 31.8399 10.7646 31.9024C10.8271 31.9649 10.9119 32 11.0003 32H16.667C16.8438 32 17.0134 31.9298 17.1384 31.8047C17.2634 31.6797 17.3337 31.5101 17.3337 31.3333V14C17.3337 13.4696 17.1229 12.9609 16.7479 12.5858C16.3728 12.2107 15.8641 12 15.3337 12Z" fill="#DC002E"/>
</g>
<defs>
<clipPath id="clip0_189_13001">
<rect width="32" height="32" fill="white"/>
</clipPath>
</defs>
</svg>
