<svg width="20" height="24" viewBox="0 0 20 24" fill="none" xmlns="http://www.w3.org/2000/svg">
<path fill-rule="evenodd" clip-rule="evenodd" d="M9.64645 1.14645C9.74022 1.05268 9.86739 1 10 1H18C18.1326 1 18.2598 1.05268 18.3536 1.14645C18.4473 1.24021 18.5 1.36739 18.5 1.5V23H17.5V21C17.5 20.7348 17.3946 20.4804 17.2071 20.2929C17.0196 20.1054 16.7652 20 16.5 20H14.5C14.2348 20 13.9804 20.1054 13.7929 20.2929C13.6054 20.4804 13.5 20.7348 13.5 21V23H11.5V9.5C11.5 9.10217 11.342 8.72064 11.0607 8.43934C10.7794 8.15804 10.3978 8 10 8H9.5V7H13C13.2761 7 13.5 6.77614 13.5 6.5C13.5 6.22386 13.2761 6 13 6H9.5V4H15C15.2761 4 15.5 3.77614 15.5 3.5C15.5 3.22386 15.2761 3 15 3H9.5V1.5C9.5 1.36739 9.55268 1.24022 9.64645 1.14645ZM8.5 1.5V3.5V6.5V8H2C1.60217 8 1.22064 8.15804 0.93934 8.43934C0.658035 8.72064 0.5 9.10217 0.5 9.5V11.5V14.5V23C0.5 23.2652 0.605357 23.5196 0.792893 23.7071C0.98043 23.8946 1.23478 24 1.5 24H3H6H11H14H17H18.5C18.7652 24 19.0196 23.8946 19.2071 23.7071C19.3946 23.5196 19.5 23.2652 19.5 23V1.5C19.5 1.10218 19.342 0.720645 19.0607 0.43934C18.7794 0.158035 18.3978 0 18 0H10C9.60217 0 9.22064 0.158035 8.93934 0.43934C8.65804 0.720644 8.5 1.10217 8.5 1.5ZM1.5 15H3C3.27614 15 3.5 14.7761 3.5 14.5C3.5 14.2239 3.27614 14 3 14H1.5V12H5C5.27614 12 5.5 11.7761 5.5 11.5C5.5 11.2239 5.27614 11 5 11H1.5V9.5C1.5 9.36739 1.55268 9.24022 1.64645 9.14645C1.74021 9.05268 1.86739 9 2 9H9H10C10.1326 9 10.2598 9.05268 10.3536 9.14645C10.4473 9.24022 10.5 9.36739 10.5 9.5V23H6.5V21C6.5 20.7348 6.39464 20.4804 6.20711 20.2929C6.01957 20.1054 5.76522 20 5.5 20H3.5C3.23478 20 2.98043 20.1054 2.79289 20.2929C2.60536 20.4804 2.5 20.7348 2.5 21V23H1.5V15ZM16.5 21V23H14.5V21H16.5ZM5.5 23V21H3.5V23H5.5Z" fill="#DC002E"/>
</svg>
