<svg width="78" height="86" viewBox="0 0 78 86" fill="none" xmlns="http://www.w3.org/2000/svg">
<rect x="0.75" y="0.5" width="76.75" height="85" rx="15.5" fill="white"/>
<path fill-rule="evenodd" clip-rule="evenodd" d="M38.6533 16.5286C38.7783 16.4036 38.9479 16.3333 39.1247 16.3333H49.7913C49.9682 16.3333 50.1377 16.4036 50.2627 16.5286C50.3878 16.6536 50.458 16.8232 50.458 17V45.6667H49.1247V43C49.1247 42.6464 48.9842 42.3072 48.7341 42.0572C48.4841 41.8071 48.145 41.6667 47.7913 41.6667H45.1247C44.7711 41.6667 44.4319 41.8071 44.1819 42.0572C43.9318 42.3072 43.7913 42.6464 43.7913 43V45.6667H41.1247V27.6667C41.1247 27.1362 40.914 26.6275 40.5389 26.2525C40.1638 25.8774 39.6551 25.6667 39.1247 25.6667H38.458V24.3333H43.1247C43.4929 24.3333 43.7913 24.0349 43.7913 23.6667C43.7913 23.2985 43.4929 23 43.1247 23H38.458V20.3333H45.7913C46.1595 20.3333 46.458 20.0349 46.458 19.6667C46.458 19.2985 46.1595 19 45.7913 19H38.458V17C38.458 16.8232 38.5282 16.6536 38.6533 16.5286ZM37.1247 17V19.6667V23.6667V25.6667H28.458C27.9276 25.6667 27.4189 25.8774 27.0438 26.2525C26.6687 26.6275 26.458 27.1362 26.458 27.6667V30.3333V34.3333V45.6667C26.458 46.0203 26.5985 46.3594 26.8485 46.6095C27.0986 46.8595 27.4377 47 27.7913 47H29.7913H33.7913H40.458H44.458H48.458H50.458C50.8116 47 51.1508 46.8595 51.4008 46.6095C51.6509 46.3594 51.7913 46.0203 51.7913 45.6667V17C51.7913 16.4696 51.5806 15.9609 51.2056 15.5858C50.8305 15.2107 50.3218 15 49.7913 15H39.1247C38.5942 15 38.0855 15.2107 37.7105 15.5858C37.3354 15.9609 37.1247 16.4696 37.1247 17ZM27.7913 35H29.7913C30.1595 35 30.458 34.7015 30.458 34.3333C30.458 33.9651 30.1595 33.6667 29.7913 33.6667H27.7913V31H32.458C32.8262 31 33.1247 30.7015 33.1247 30.3333C33.1247 29.9651 32.8262 29.6667 32.458 29.6667H27.7913V27.6667C27.7913 27.4899 27.8616 27.3203 27.9866 27.1953C28.1116 27.0702 28.2812 27 28.458 27H37.7913H39.1247C39.3015 27 39.4711 27.0702 39.5961 27.1953C39.7211 27.3203 39.7913 27.4899 39.7913 27.6667V45.6667H34.458V43C34.458 42.6464 34.3175 42.3072 34.0675 42.0572C33.8174 41.8071 33.4783 41.6667 33.1247 41.6667H30.458C30.1044 41.6667 29.7652 41.8071 29.5152 42.0572C29.2652 42.3072 29.1247 42.6464 29.1247 43V45.6667H27.7913V35ZM47.7913 43V45.6667H45.1247V43H47.7913ZM33.1247 45.6667V43L30.458 43V45.6667H33.1247Z" fill="#DC002E"/>
<path d="M26.8211 59.708L26.6531 60.884H23.5931V63.2H26.2571V64.376H23.5931V66.812H26.8691V68H22.0091V59.708H26.8211ZM36.2324 68H34.6844L34.4684 64.532C34.3964 63.292 34.3604 62.308 34.3604 61.58V61.148L32.8484 67.1H31.3484L29.7404 61.136C29.7564 61.664 29.7644 62.064 29.7644 62.336C29.7644 63.064 29.7404 63.812 29.6924 64.58L29.4884 68H27.9524L28.6124 59.708H30.6524L32.1284 65.516L33.5204 59.708H35.5844L36.2324 68ZM39.3431 59.708V66.704H42.6671L42.4871 68H37.7591V59.708H39.3431ZM48.2214 68L47.7054 66.08H44.9574L44.4414 68H42.7974L45.3774 59.708H47.3334L49.9014 68H48.2214ZM45.2694 64.88H47.3814L46.3254 60.92L45.2694 64.88ZM52.4095 59.708V68H50.8255V59.708H52.4095ZM57.0655 59.708L54.1975 63.464L57.2935 68H55.4095L52.4815 63.572L55.3495 59.708H57.0655Z" fill="black"/>
<rect x="0.75" y="0.5" width="76.75" height="85" rx="15.5" stroke="#D0D0D0"/>
</svg>
