<svg width="24" height="24" viewBox="0 0 24 24" fill="none" xmlns="http://www.w3.org/2000/svg">
<path d="M19.3351 17C19.6112 17 19.8351 17.2239 19.8351 17.5C19.8351 17.7455 19.6582 17.9496 19.4249 17.9919L19.3351 18H4.66846C4.39231 18 4.16846 17.7761 4.16846 17.5C4.16846 17.2545 4.34533 17.0504 4.57858 17.0081L4.66846 17H19.3351Z" fill="#DC002E"/>
<path d="M11.7749 0.504971C9.66751 0.597459 7.86696 1.97177 7.21949 3.89934L7.20302 3.95L7.10799 3.9172C5.04312 3.24166 2.72664 3.92569 1.39786 5.77155C0.301163 7.29468 0.201169 9.4008 1.14179 11.0346L1.27994 11.2613C1.94676 12.2954 2.91959 12.9939 4.06766 13.3267L4.16302 13.351L4.15509 20.5525C4.15214 22.1794 5.47138 23.5 7.09952 23.5L16.8872 23.4976L17.0601 23.4926C18.6048 23.4031 19.83 22.1232 19.8315 20.556L19.839 13.346L19.9389 13.3208C21.1768 12.9641 22.2055 12.1867 22.8696 11.0159C23.8002 9.37492 23.6942 7.27347 22.5938 5.75554L22.4476 5.5634C21.0986 3.87414 18.8794 3.26754 16.893 3.9178L16.799 3.95L16.7834 3.89962C16.1138 1.90317 14.2063 0.5 12.0018 0.5L11.7749 0.504971ZM12.0018 1.5C13.9549 1.5 15.6132 2.86808 15.9681 4.72509C16.0299 5.0482 16.3815 5.22466 16.6775 5.0811C18.4544 4.21921 20.6011 4.71099 21.7842 6.34253C22.6534 7.54151 22.7381 9.22061 21.9997 10.5226C21.3976 11.5842 20.431 12.2346 19.2472 12.4584C19.0112 12.503 18.8403 12.709 18.84 12.9491L18.8315 20.555C18.8305 21.6284 17.9604 22.4976 16.887 22.4976L7.09939 22.5C6.0242 22.5 5.15314 21.628 5.15509 20.554L5.16364 12.9563C5.16391 12.7161 4.99326 12.5096 4.75724 12.4646C3.58302 12.2408 2.61414 11.5885 2.0085 10.5358C1.26321 9.24127 1.34308 7.55902 2.20942 6.35583C3.39135 4.71396 5.54405 4.21668 7.32486 5.08104C7.62075 5.22465 7.97231 5.04838 8.03424 4.72537C8.39033 2.86799 10.0488 1.5 12.0018 1.5Z" fill="#DC002E"/>
</svg>
