<svg width="78" height="86" viewBox="0 0 78 86" fill="none" xmlns="http://www.w3.org/2000/svg">
<rect x="0.5" y="0.5" width="76.75" height="85" rx="15.5" fill="white"/>
<g clip-path="url(#clip0_3203_1983)">
<path fill-rule="evenodd" clip-rule="evenodd" d="M31.8343 20.199C32.6976 17.6289 35.0983 15.7964 37.9082 15.6731L38.2108 15.6665C41.1501 15.6665 43.6934 17.5374 44.5861 20.1993L44.607 20.2665L44.7324 20.2236C47.3808 19.3566 50.3399 20.1654 52.1384 22.4177L52.3334 22.6739C53.8006 24.6978 53.942 27.4997 52.7011 29.6877C51.8157 31.2488 50.4441 32.2853 48.7935 32.7609L48.6604 32.7945L48.6553 37.6665H27.7537L27.759 32.8012L27.6319 32.7688C26.1011 32.325 24.804 31.3937 23.9149 30.0149L23.7307 29.7126C22.4766 27.5342 22.6099 24.7261 24.0722 22.6952C25.8439 20.2341 28.9325 19.322 31.6857 20.2228L31.8124 20.2665L31.8343 20.199ZM27.7522 38.9998L27.7484 42.4032C27.7445 44.5724 29.5035 46.3332 31.6744 46.3332L44.7245 46.3299L44.9551 46.3233C47.0147 46.204 48.6484 44.4975 48.6503 42.4079L48.6539 38.9998H27.7522Z" fill="#DC002E"/>
</g>
<path d="M30.2751 59.528C30.8191 59.528 31.2991 59.612 31.7151 59.78C32.1391 59.94 32.5391 60.18 32.9151 60.5L32.0631 61.388C31.7671 61.156 31.4871 60.988 31.2231 60.884C30.9671 60.78 30.6671 60.728 30.3231 60.728C29.6831 60.728 29.1591 60.984 28.7511 61.496C28.3431 62.008 28.1391 62.792 28.1391 63.848C28.1391 64.952 28.2991 65.748 28.6191 66.236C28.9471 66.724 29.4431 66.968 30.1071 66.968C30.6111 66.968 31.0511 66.86 31.4271 66.644V64.484H30.1791L30.0111 63.308H32.9871V67.364C32.0911 67.908 31.1391 68.18 30.1311 68.18C28.9471 68.18 28.0391 67.812 27.4071 67.076C26.7831 66.34 26.4711 65.264 26.4711 63.848C26.4711 62.944 26.6391 62.168 26.9751 61.52C27.3191 60.864 27.7791 60.368 28.3551 60.032C28.9311 59.696 29.5711 59.528 30.2751 59.528ZM36.1634 59.708V68H34.5794V59.708H36.1634ZM40.1468 59.708C41.4348 59.708 42.4628 60 43.2308 60.584C44.0068 61.168 44.3948 62.244 44.3948 63.812C44.3948 65.348 44.0148 66.432 43.2548 67.064C42.4948 67.688 41.5308 68 40.3628 68H38.1068V59.708H40.1468ZM39.6908 60.896V66.812H40.4708C41.1748 66.812 41.7268 66.596 42.1268 66.164C42.5268 65.724 42.7268 64.94 42.7268 63.812C42.7268 63.028 42.6228 62.424 42.4148 62C42.2148 61.568 41.9468 61.276 41.6108 61.124C41.2828 60.972 40.8868 60.896 40.4228 60.896H39.6908ZM50.1628 68L49.6468 66.08H46.8988L46.3828 68H44.7388L47.3188 59.708H49.2748L51.8428 68H50.1628ZM47.2108 64.88H49.3228L48.2668 60.92L47.2108 64.88Z" fill="black"/>
<rect x="0.5" y="0.5" width="76.75" height="85" rx="15.5" stroke="#D0D0D0"/>
<defs>
<clipPath id="clip0_3203_1983">
<rect width="32" height="32" fill="white" transform="translate(22.875 15)"/>
</clipPath>
</defs>
</svg>
