<svg width="78" height="87" viewBox="0 0 78 87" fill="none" xmlns="http://www.w3.org/2000/svg">
<rect x="0.5" y="1.47461" width="76.75" height="85" rx="15.5" fill="white"/>
<g clip-path="url(#clip0_3203_1936)">
<path d="M48.6557 38.6411C49.0239 38.6411 49.3224 38.9396 49.3224 39.3078C49.3224 39.6351 49.0866 39.9073 48.7756 39.9637L48.6557 39.9744H29.1003C28.7321 39.9744 28.4336 39.676 28.4336 39.3078C28.4336 38.9805 28.6694 38.7083 28.9804 38.6519L29.1003 38.6411H48.6557Z" fill="#DC002E"/>
<path d="M38.5752 16.6477C35.7653 16.7711 33.3646 18.6035 32.5013 21.1736L32.4794 21.2411L32.3526 21.1974C29.5995 20.2967 26.5108 21.2087 24.7391 23.6698C23.2769 25.7007 23.1436 28.5088 24.3977 30.6872L24.5819 30.9895C25.471 32.3683 26.7681 33.2996 28.2989 33.7434L28.426 33.7758L28.4154 43.3778C28.4115 45.547 30.1705 47.3078 32.3414 47.3078L45.3915 47.3045L45.6221 47.2979C47.6817 47.1786 49.3154 45.4721 49.3173 43.3825L49.3274 33.7691L49.4605 33.7355C51.1111 33.2599 52.4827 32.2234 53.3681 30.6623C54.609 28.4743 54.4676 25.6724 53.0004 23.6485L52.8054 23.3923C51.0068 21.14 48.0478 20.3312 45.3994 21.1982L45.274 21.2411L45.2531 21.1739C44.3604 18.512 41.8171 16.6411 38.8778 16.6411L38.5752 16.6477ZM38.8778 17.9744C41.4819 17.9744 43.693 19.7985 44.1662 22.2746C44.2485 22.7054 44.7173 22.9407 45.1119 22.7492C47.4813 21.6001 50.3435 22.2558 51.921 24.4311C53.0798 26.0298 53.1928 28.2686 52.2083 30.0045C51.4055 31.42 50.1167 32.2873 48.5382 32.5856C48.2236 32.6451 47.9957 32.9198 47.9953 33.2399L47.9839 43.3811C47.9826 44.8123 46.8226 45.9712 45.3914 45.9712L32.3412 45.9744C30.9076 45.9744 29.7462 44.8118 29.7488 43.3798L29.7602 33.2496C29.7605 32.9292 29.533 32.6539 29.2183 32.5939C27.6527 32.2956 26.3608 31.4258 25.5533 30.0221C24.5596 28.2961 24.6661 26.0531 25.8212 24.4489C27.3971 22.2597 30.2674 21.5967 32.6418 22.7492C33.0363 22.9407 33.5051 22.7056 33.5876 22.2749C34.0624 19.7984 36.2738 17.9744 38.8778 17.9744Z" fill="#DC002E"/>
</g>
<path d="M30.2751 60.5026C30.8191 60.5026 31.2991 60.5866 31.7151 60.7546C32.1391 60.9146 32.5391 61.1546 32.9151 61.4746L32.0631 62.3626C31.7671 62.1306 31.4871 61.9626 31.2231 61.8586C30.9671 61.7546 30.6671 61.7026 30.3231 61.7026C29.6831 61.7026 29.1591 61.9586 28.7511 62.4706C28.3431 62.9826 28.1391 63.7666 28.1391 64.8226C28.1391 65.9266 28.2991 66.7226 28.6191 67.2106C28.9471 67.6986 29.4431 67.9426 30.1071 67.9426C30.6111 67.9426 31.0511 67.8346 31.4271 67.6186V65.4586H30.1791L30.0111 64.2826H32.9871V68.3386C32.0911 68.8826 31.1391 69.1546 30.1311 69.1546C28.9471 69.1546 28.0391 68.7866 27.4071 68.0506C26.7831 67.3146 26.4711 66.2386 26.4711 64.8226C26.4711 63.9186 26.6391 63.1426 26.9751 62.4946C27.3191 61.8386 27.7791 61.3426 28.3551 61.0066C28.9311 60.6706 29.5711 60.5026 30.2751 60.5026ZM36.1634 60.6826V68.9746H34.5794V60.6826H36.1634ZM40.1468 60.6826C41.4348 60.6826 42.4628 60.9746 43.2308 61.5586C44.0068 62.1426 44.3948 63.2186 44.3948 64.7866C44.3948 66.3226 44.0148 67.4066 43.2548 68.0386C42.4948 68.6626 41.5308 68.9746 40.3628 68.9746H38.1068V60.6826H40.1468ZM39.6908 61.8706V67.7866H40.4708C41.1748 67.7866 41.7268 67.5706 42.1268 67.1386C42.5268 66.6986 42.7268 65.9146 42.7268 64.7866C42.7268 64.0026 42.6228 63.3986 42.4148 62.9746C42.2148 62.5426 41.9468 62.2506 41.6108 62.0986C41.2828 61.9466 40.8868 61.8706 40.4228 61.8706H39.6908ZM50.1628 68.9746L49.6468 67.0546H46.8988L46.3828 68.9746H44.7388L47.3188 60.6826H49.2748L51.8428 68.9746H50.1628ZM47.2108 65.8546H49.3228L48.2668 61.8946L47.2108 65.8546Z" fill="black"/>
<rect x="0.5" y="1.47461" width="76.75" height="85" rx="15.5" stroke="#D0D0D0"/>
<defs>
<clipPath id="clip0_3203_1936">
<rect width="32" height="32" fill="white" transform="translate(22.875 15.9746)"/>
</clipPath>
</defs>
</svg>
