<svg width="31" height="32" viewBox="0 0 31 32" fill="none" xmlns="http://www.w3.org/2000/svg">
<path fill-rule="evenodd" clip-rule="evenodd" d="M8.95932 5.19896C9.82262 2.62886 12.2233 0.796449 15.0332 0.673132L15.3358 0.666504C18.2751 0.666504 20.8184 2.5374 21.7111 5.19933L21.732 5.2665L21.8574 5.22357C24.5058 4.35655 27.4649 5.16536 29.2634 7.4177L29.4584 7.67389C30.9256 9.69779 31.067 12.4997 29.8261 14.6877C28.9407 16.2488 27.5691 17.2853 25.9185 17.7609L25.7854 17.7945L25.7803 22.6665H4.87867L4.88403 17.8012L4.75688 17.7688C3.22612 17.325 1.92901 16.3937 1.03992 15.0149L0.855714 14.7126C-0.398442 12.5342 -0.265115 9.72607 1.19715 7.69524C2.96885 5.23409 6.05749 4.32205 8.81066 5.22277L8.93737 5.2665L8.95932 5.19896ZM4.8772 23.9998L4.87345 27.4032C4.86952 29.5724 6.62851 31.3332 8.79936 31.3332L21.8495 31.3299L22.0801 31.3233C24.1397 31.204 25.7734 29.4975 25.7753 27.4079L25.7789 23.9998H4.8772Z" fill="#DC002E"/>
</svg>
