<svg width="32" height="32" viewBox="0 0 32 32" fill="none" xmlns="http://www.w3.org/2000/svg">
<path fill-rule="evenodd" clip-rule="evenodd" d="M1.99935 10.6663L3.99935 9.99967L6.66602 9.33301L7.33268 7.99967L8.66602 5.99967L9.99935 5.33301V3.33301L12.666 2.66634L14.666 1.33301H16.666L18.666 3.33301H20.666L21.3327 4.66634L24.666 8.66634L26.666 9.33301L29.3327 11.333L29.9993 13.9997H24.666L21.9993 22.6663L17.3327 21.333H11.9993L9.33268 22.6663L8.66602 21.9997V21.333L6.66602 13.9997L3.33268 14.6663L0.666016 13.9997L1.99935 10.6663ZM13.666 14.333C13.666 14.8853 13.2183 15.333 12.666 15.333C12.1137 15.333 11.666 14.8853 11.666 14.333C11.666 13.7807 12.1137 13.333 12.666 13.333C13.2183 13.333 13.666 13.7807 13.666 14.333ZM18.3327 15.333C18.885 15.333 19.3327 14.8853 19.3327 14.333C19.3327 13.7807 18.885 13.333 18.3327 13.333C17.7804 13.333 17.3327 13.7807 17.3327 14.333C17.3327 14.8853 17.7804 15.333 18.3327 15.333Z" fill="#DC002E"/>
<path d="M15.6621 0.666504C17.0361 0.666504 18.2833 1.40281 18.9573 2.55973L18.9959 2.63342L19.1786 2.60171C20.073 2.48199 20.9873 2.84329 21.5535 3.58435L21.6778 3.76206C22.3846 4.86821 22.1411 6.32962 21.1137 7.14675C20.0864 7.96388 18.6077 7.87237 17.6889 6.93481C17.4421 6.68291 17.4461 6.27858 17.6981 6.03173C17.922 5.81231 18.2663 5.79116 18.5134 5.96609L18.6011 6.04088C19.0619 6.51106 19.8035 6.55695 20.3187 6.14716C20.8339 5.73738 20.956 5.00449 20.6016 4.44976C20.2744 3.9377 19.6388 3.73037 19.0802 3.93379L18.9424 3.99326C18.5988 4.16573 18.1818 3.99775 18.0538 3.63527C17.6956 2.62153 16.7373 1.94372 15.6621 1.94372C14.587 1.94372 13.6286 2.62153 13.2704 3.63527C13.1556 3.96031 12.8083 4.12918 12.4897 4.03581L12.385 3.99483C11.8001 3.70527 11.0911 3.90316 10.7407 4.45372C10.3904 5.00427 10.5114 5.7304 11.0214 6.13756C11.5313 6.54472 12.2662 6.50195 12.7256 6.03838C12.9738 5.78783 13.3781 5.78596 13.6287 6.0342C13.8792 6.28243 13.8811 6.68677 13.6329 6.93732C12.7142 7.86447 11.2444 7.95001 10.2245 7.13568C9.20451 6.32136 8.96247 4.8691 9.66319 3.76799C10.2082 2.91158 11.1872 2.48184 12.1457 2.60562L12.325 2.63597L12.367 2.55973C13.0013 1.47086 14.1433 0.754583 15.421 0.674083L15.6621 0.666504Z" fill="#DC002E"/>
<path d="M8.65131 22.2403C11.5502 19.7713 19.641 19.7422 22.68 22.2158C22.9536 22.4385 22.9948 22.8407 22.7722 23.1142C22.5496 23.3878 22.1473 23.429 21.8738 23.2064C19.3095 21.1192 11.9062 21.1458 9.47945 23.2126C9.21094 23.4413 8.80789 23.409 8.5792 23.1405C8.35052 22.872 8.3828 22.4689 8.65131 22.2403Z" fill="#DC002E"/>
<path d="M20.9018 4.75475C21.1111 4.47089 21.5109 4.41047 21.7947 4.61979C23.0033 5.51104 23.9872 6.66661 24.6738 7.99397L24.8402 8.33213L25.0938 8.33879C26.0274 8.38562 26.9413 8.63552 27.771 9.07274L28.078 9.24545C28.738 9.64147 29.2817 10.084 29.7159 10.5664C30.8148 11.7875 31.1152 13.0913 30.9626 14.2031L30.936 14.3622C30.9317 14.3835 30.9274 14.4022 30.9234 14.4182C30.8647 14.6532 30.678 14.8348 30.4414 14.887C28.8292 15.2423 27.1644 15.2746 25.5293 14.9807L25.0398 14.8828L24.8926 14.8408L24.8873 14.8903C24.3233 18.7697 23.2102 22.5491 21.5813 26.1157L21.2243 26.8767C20.5174 28.3386 19.0775 29.2957 17.4702 29.3927L17.2009 29.4009H14.1354C12.4213 29.4004 10.8584 28.4198 10.1118 26.8759C8.4086 23.3413 7.21852 19.5849 6.57509 15.7203L6.43804 14.8408L6.27513 14.887C4.66303 15.2423 2.99815 15.2746 1.37645 14.9839L0.891327 14.887C0.654726 14.8348 0.468015 14.6532 0.409253 14.4182L0.383339 14.2903C0.378861 14.2638 0.37439 14.2347 0.370052 14.2031C0.217456 13.0913 0.517832 11.7875 1.61677 10.5664C2.05094 10.084 2.59464 9.64147 3.25497 9.24527C4.16322 8.70101 5.18853 8.39131 6.23891 8.33871L6.49169 8.33213L6.65952 7.99349C7.28466 6.78653 8.15562 5.72181 9.21781 4.86894L9.54215 4.61951C9.82617 4.4104 10.2259 4.47112 10.435 4.75514C10.6441 5.03916 10.5834 5.43892 10.2994 5.64803C9.05648 6.56314 8.08646 7.79969 7.49361 9.22476C7.38922 9.4757 7.13744 9.63307 6.86613 9.61695C5.83084 9.55546 4.80109 9.80774 3.91179 10.3407C3.35846 10.6727 2.91359 11.0348 2.56611 11.4208C1.87066 12.1936 1.61045 12.9775 1.61057 13.6648L1.61272 13.7271L1.64551 13.7344C2.92738 13.9591 4.23747 13.9594 5.50797 13.7375L5.98242 13.6439C6.23104 13.5816 6.47388 13.4981 6.70829 13.3945C7.09966 13.2214 7.54719 13.4747 7.60026 13.8993C8.13915 18.2112 9.37603 22.4068 11.262 26.3207C11.7617 27.354 12.7741 28.0342 13.9074 28.1155L14.1356 28.1237H17.2007C18.4251 28.1233 19.5415 27.4229 20.074 26.3216C21.9591 22.4067 23.1947 18.2112 23.7324 13.8995C23.7854 13.4748 24.233 13.2213 24.6244 13.3945C24.8588 13.4981 25.1016 13.5816 25.3325 13.6397C26.6062 13.9205 27.9167 13.9766 29.2051 13.8081L29.7192 13.7271L29.7221 13.6648C29.7222 13.04 29.5072 12.3353 28.9456 11.6318L28.7666 11.4208C28.4191 11.0348 27.9742 10.6727 27.4213 10.3409C26.5316 9.80789 25.5018 9.5556 24.4665 9.61696C24.1951 9.63304 23.9433 9.47554 23.8389 9.22448C23.2471 7.79984 22.2783 6.56333 21.0367 5.64774C20.7529 5.43842 20.6924 5.03861 20.9018 4.75475Z" fill="#DC002E"/>
<path d="M25.3704 3.04485C25.1695 3.41834 24.9261 3.76429 24.653 4.06743L24.4428 4.28652C23.6729 5.13275 22.6153 5.66159 21.4764 5.76974C21.1253 5.80308 20.8136 5.54548 20.7802 5.19437C20.7469 4.84325 21.0045 4.53159 21.3556 4.49825C22.1782 4.42014 22.942 4.0382 23.5232 3.40096C23.8689 3.06169 24.1504 2.66262 24.3597 2.21102C24.569 1.78288 24.9991 1.50684 25.4755 1.49502C25.9519 1.48321 26.3953 1.73758 26.6244 2.15289C27.2622 3.29939 27.4483 4.6429 27.1382 5.95059C26.7556 7.26876 26.0378 8.46518 25.0547 9.42304C24.8021 9.66917 24.3978 9.66392 24.1516 9.41131C23.9055 9.1587 23.9108 8.75438 24.1634 8.50825C24.9882 7.70454 25.5906 6.70065 25.9034 5.62559C26.1092 4.75564 26.0156 3.84473 25.6421 3.03705L25.5079 2.77034L25.3704 3.04485Z" fill="#DC002E"/>
<path d="M5.86089 1.49502C6.33728 1.50684 6.76748 1.78288 6.98245 2.22306C7.18603 2.66262 7.4675 3.06169 7.83837 3.42703C8.39438 4.0382 9.15826 4.42014 9.9808 4.49825C10.3319 4.53159 10.5895 4.84325 10.5562 5.19437C10.5228 5.54548 10.2112 5.80308 9.86006 5.76974C8.81607 5.67061 7.84032 5.21797 7.1113 4.51149L6.91873 4.3126C6.53889 3.93989 6.2179 3.51244 5.96947 3.05194L5.82922 2.77185C5.34529 3.6418 5.20435 4.65898 5.42487 5.59462C5.74585 6.70065 6.34818 7.70454 7.17305 8.50825C7.42566 8.75438 7.43091 9.1587 7.18478 9.41131C6.93865 9.66392 6.53434 9.66917 6.28173 9.42304C5.29866 8.46518 4.5808 7.26876 4.19011 5.91962C3.88808 4.6429 4.07423 3.29939 4.71094 2.15482C4.94116 1.73758 5.3845 1.48321 5.86089 1.49502Z" fill="#DC002E"/>
<path d="M13.7529 23.499C14.0664 23.499 14.3271 23.7249 14.3812 24.0228L14.3915 24.1376V25.4148C14.3915 25.7675 14.1056 26.0535 13.7529 26.0535C13.4394 26.0535 13.1786 25.8275 13.1245 25.5296L13.1143 25.4148V24.1376C13.1143 23.7849 13.4002 23.499 13.7529 23.499Z" fill="#DC002E"/>
<path d="M17.5839 23.499C17.8974 23.499 18.1582 23.7249 18.2122 24.0228L18.2225 24.1376V25.4148C18.2225 25.7675 17.9366 26.0535 17.5839 26.0535C17.2704 26.0535 17.0097 25.8275 16.9556 25.5296L16.9453 25.4148V24.1376C16.9453 23.7849 17.2312 23.499 17.5839 23.499Z" fill="#DC002E"/>
</svg>
