<svg width="79" height="87" viewBox="0 0 79 87" fill="none" xmlns="http://www.w3.org/2000/svg">
<rect x="1" y="1.47461" width="76.75" height="85" rx="15.5" fill="white"/>
<g clip-path="url(#clip0_3203_1776)">
<path fill-rule="evenodd" clip-rule="evenodd" d="M25.3743 26.641L27.3743 25.9743L30.041 25.3076L30.7077 23.9743L32.041 21.9743L33.3743 21.3076V19.3076L36.041 18.641L38.041 17.3076H40.041L42.041 19.3076H44.041L44.7077 20.641L48.041 24.641L50.041 25.3076L52.7077 27.3076L53.3743 29.9743H48.041L45.3743 38.6409L40.7077 37.3076H35.3743L32.7077 38.6409L32.041 37.9743V37.3076L30.041 29.9743L26.7077 30.6409L24.041 29.9743L25.3743 26.641ZM37.041 30.3076C37.041 30.8599 36.5933 31.3076 36.041 31.3076C35.4887 31.3076 35.041 30.8599 35.041 30.3076C35.041 29.7553 35.4887 29.3076 36.041 29.3076C36.5933 29.3076 37.041 29.7553 37.041 30.3076ZM41.7077 31.3076C42.26 31.3076 42.7077 30.8599 42.7077 30.3076C42.7077 29.7553 42.26 29.3076 41.7077 29.3076C41.1554 29.3076 40.7077 29.7553 40.7077 30.3076C40.7077 30.8599 41.1554 31.3076 41.7077 31.3076Z" fill="#DC002E"/>
<path d="M39.0371 16.6411C40.4111 16.6411 41.6583 17.3774 42.3323 18.5343L42.3709 18.608L42.5536 18.5763C43.448 18.4566 44.3623 18.8179 44.9285 19.559L45.0528 19.7367C45.7596 20.8428 45.5161 22.3042 44.4887 23.1214C43.4614 23.9385 41.9827 23.847 41.0639 22.9094C40.8171 22.6575 40.8211 22.2532 41.0731 22.0063C41.297 21.7869 41.6413 21.7658 41.8884 21.9407L41.9761 22.0155C42.4369 22.4857 43.1785 22.5316 43.6937 22.1218C44.2089 21.712 44.331 20.9791 43.9766 20.4244C43.6494 19.9123 43.0138 19.705 42.4552 19.9084L42.3174 19.9679C41.9738 20.1403 41.5568 19.9724 41.4288 19.6099C41.0706 18.5961 40.1123 17.9183 39.0371 17.9183C37.962 17.9183 37.0036 18.5961 36.6454 19.6099C36.5306 19.9349 36.1833 20.1038 35.8647 20.0104L35.76 19.9694C35.1751 19.6799 34.4661 19.8778 34.1157 20.4283C33.7654 20.9789 33.8864 21.705 34.3964 22.1122C34.9063 22.5193 35.6412 22.4766 36.1006 22.013C36.3488 21.7624 36.7531 21.7606 37.0037 22.0088C37.2542 22.257 37.2561 22.6614 37.0079 22.9119C36.0892 23.8391 34.6194 23.9246 33.5995 23.1103C32.5795 22.296 32.3375 20.8437 33.0382 19.7426C33.5832 18.8862 34.5622 18.4565 35.5207 18.5802L35.7 18.6106L35.742 18.5343C36.3763 17.4455 37.5183 16.7292 38.796 16.6487L39.0371 16.6411Z" fill="#DC002E"/>
<path d="M32.0263 38.2149C34.9252 35.7459 43.016 35.7168 46.055 38.1904C46.3286 38.4131 46.3698 38.8153 46.1472 39.0889C45.9246 39.3624 45.5223 39.4036 45.2488 39.181C42.6845 37.0938 35.2812 37.1204 32.8544 39.1872C32.5859 39.4159 32.1829 39.3836 31.9542 39.1151C31.7255 38.8466 31.7578 38.4436 32.0263 38.2149Z" fill="#DC002E"/>
<path d="M44.2768 20.7294C44.4861 20.4455 44.8859 20.3851 45.1697 20.5944C46.3783 21.4856 47.3622 22.6412 48.0488 23.9686L48.2152 24.3067L48.4688 24.3134C49.4024 24.3602 50.3163 24.6101 51.146 25.0474L51.453 25.2201C52.113 25.6161 52.6567 26.0586 53.0909 26.541C54.1898 27.7621 54.4902 29.0659 54.3376 30.1777L54.311 30.3368C54.3067 30.3582 54.3024 30.3768 54.2984 30.3928C54.2397 30.6279 54.053 30.8094 53.8164 30.8616C52.2042 31.2169 50.5394 31.2492 48.9043 30.9553L48.4148 30.8574L48.2676 30.8154L48.2623 30.8649C47.6983 34.7443 46.5852 38.5237 44.9563 42.0903L44.5993 42.8513C43.8924 44.3132 42.4525 45.2703 40.8452 45.3673L40.5759 45.3755H37.5104C35.7963 45.375 34.2334 44.3945 33.4868 42.8505C31.7836 39.3159 30.5935 35.5595 29.9501 31.6949L29.813 30.8154L29.6501 30.8616C28.038 31.2169 26.3731 31.2492 24.7514 30.9585L24.2663 30.8616C24.0297 30.8094 23.843 30.6279 23.7843 30.3928L23.7583 30.2649C23.7539 30.2384 23.7494 30.2093 23.7451 30.1777C23.5925 29.0659 23.8928 27.7621 24.9918 26.541C25.4259 26.0586 25.9696 25.6161 26.63 25.2199C27.5382 24.6756 28.5635 24.3659 29.6139 24.3133L29.8667 24.3067L30.0345 23.9681C30.6597 22.7611 31.5306 21.6964 32.5928 20.8436L32.9172 20.5941C33.2012 20.385 33.6009 20.4457 33.81 20.7297C34.0191 21.0138 33.9584 21.4135 33.6744 21.6226C32.4315 22.5377 31.4615 23.7743 30.8686 25.1994C30.7642 25.4503 30.5124 25.6077 30.2411 25.5916C29.2058 25.5301 28.1761 25.7824 27.2868 26.3153C26.7335 26.6473 26.2886 27.0094 25.9411 27.3955C25.2457 28.1682 24.9854 28.9521 24.9856 29.6394L24.9877 29.7017L25.0205 29.7091C26.3024 29.9337 27.6125 29.934 28.883 29.7121L29.3574 29.6185C29.606 29.5562 29.8489 29.4727 30.0833 29.3691C30.4747 29.196 30.9222 29.4493 30.9753 29.8739C31.5141 34.1858 32.751 38.3814 34.637 42.2953C35.1367 43.3286 36.1491 44.0088 37.2824 44.0901L37.5106 44.0983H40.5757C41.8001 44.098 42.9165 43.3975 43.449 42.2962C45.3341 38.3813 46.5697 34.1858 47.1074 29.8741C47.1604 29.4494 47.608 29.196 47.9994 29.3691C48.2338 29.4727 48.4766 29.5562 48.7075 29.6143C49.9812 29.8951 51.2917 29.9512 52.5801 29.7828L53.0942 29.7017L53.0971 29.6394C53.0972 29.0146 52.8822 28.3099 52.3206 27.6064L52.1416 27.3955C51.7941 27.0094 51.3492 26.6473 50.7963 26.3155C49.9066 25.7825 48.8768 25.5302 47.8415 25.5916C47.5701 25.6077 47.3183 25.4501 47.2139 25.1991C46.6221 23.7744 45.6533 22.5379 44.4117 21.6224C44.1279 21.413 44.0674 21.0132 44.2768 20.7294Z" fill="#DC002E"/>
<path d="M48.7454 19.0195C48.5445 19.3929 48.3011 19.7389 48.028 20.042L47.8178 20.2611C47.0479 21.1074 45.9903 21.6362 44.8514 21.7444C44.5003 21.7777 44.1886 21.5201 44.1552 21.169C44.1219 20.8179 44.3795 20.5062 44.7306 20.4729C45.5532 20.3947 46.317 20.0128 46.8982 19.3756C47.2439 19.0363 47.5254 18.6372 47.7347 18.1856C47.944 17.7575 48.3741 17.4814 48.8505 17.4696C49.3269 17.4578 49.7703 17.7122 49.9994 18.1275C50.6372 19.274 50.8233 20.6175 50.5132 21.9252C50.1306 23.2434 49.4128 24.4398 48.4297 25.3976C48.1771 25.6438 47.7728 25.6385 47.5266 25.3859C47.2805 25.1333 47.2858 24.729 47.5384 24.4829C48.3632 23.6792 48.9656 22.6753 49.2784 21.6002C49.4842 20.7302 49.3906 19.8193 49.0171 19.0117L48.8829 18.745L48.7454 19.0195Z" fill="#DC002E"/>
<path d="M29.2359 17.4696C29.7123 17.4814 30.1425 17.7575 30.3575 18.1977C30.561 18.6372 30.8425 19.0363 31.2134 19.4016C31.7694 20.0128 32.5333 20.3947 33.3558 20.4729C33.7069 20.5062 33.9645 20.8179 33.9312 21.169C33.8978 21.5201 33.5862 21.7777 33.2351 21.7444C32.1911 21.6452 31.2153 21.1926 30.4863 20.4861L30.2937 20.2872C29.9139 19.9145 29.5929 19.487 29.3445 19.0265L29.2042 18.7465C28.7203 19.6164 28.5794 20.6336 28.7999 21.5692C29.1208 22.6753 29.7232 23.6792 30.548 24.4829C30.8007 24.729 30.8059 25.1333 30.5598 25.3859C30.3136 25.6385 29.9093 25.6438 29.6567 25.3976C28.6737 24.4398 27.9558 23.2434 27.5651 21.8942C27.2631 20.6175 27.4492 19.274 28.0859 18.1294C28.3162 17.7122 28.7595 17.4578 29.2359 17.4696Z" fill="#DC002E"/>
<path d="M37.1279 39.4736C37.4414 39.4736 37.7021 39.6995 37.7562 39.9974L37.7665 40.1122V41.3895C37.7665 41.7422 37.4806 42.0281 37.1279 42.0281C36.8144 42.0281 36.5536 41.8022 36.4995 41.5042L36.4893 41.3895V40.1122C36.4893 39.7595 36.7752 39.4736 37.1279 39.4736Z" fill="#DC002E"/>
<path d="M40.9589 39.4736C41.2724 39.4736 41.5332 39.6995 41.5872 39.9974L41.5975 40.1122V41.3895C41.5975 41.7422 41.3116 42.0281 40.9589 42.0281C40.6454 42.0281 40.3847 41.8022 40.3306 41.5042L40.3203 41.3895V40.1122C40.3203 39.7595 40.6062 39.4736 40.9589 39.4736Z" fill="#DC002E"/>
</g>
<path d="M34.9667 60.6826L32.3027 65.8306V68.9746H30.6947V65.8426L28.0307 60.6826H29.7827L31.5347 64.5346L33.2867 60.6826H34.9667ZM40.7293 60.6826L40.5613 61.8586H37.5013V64.1746H40.1653V65.3506H37.5013V67.7866H40.7773V68.9746H35.9173V60.6826H40.7293ZM50.1406 68.9746H48.5926L48.3766 65.5066C48.3046 64.2666 48.2686 63.2826 48.2686 62.5546V62.1226L46.7566 68.0746H45.2566L43.6486 62.1106C43.6646 62.6386 43.6726 63.0386 43.6726 63.3106C43.6726 64.0386 43.6486 64.7866 43.6006 65.5546L43.3966 68.9746H41.8606L42.5206 60.6826H44.5606L46.0366 66.4906L47.4286 60.6826H49.4926L50.1406 68.9746Z" fill="black"/>
<rect x="1" y="1.47461" width="76.75" height="85" rx="15.5" stroke="#D0D0D0"/>
<defs>
<clipPath id="clip0_3203_1776">
<rect width="32" height="32" fill="white" transform="translate(23.375 15.9746)"/>
</clipPath>
</defs>
</svg>
