<svg width="24" height="23" viewBox="0 0 24 23" fill="none" xmlns="http://www.w3.org/2000/svg">
<path d="M6.48848 16.6801C8.66266 14.8283 14.7307 14.8065 17.01 16.6617C17.2152 16.8287 17.2461 17.1304 17.0791 17.3356C16.9122 17.5407 16.6105 17.5717 16.4053 17.4047C14.4821 15.8393 8.92962 15.8592 7.10959 17.4093C6.90821 17.5808 6.60592 17.5566 6.4344 17.3553C6.26289 17.1539 6.2871 16.8516 6.48848 16.6801Z" fill="#DC002E"/>
<path d="M15.6766 3.56631C15.8336 3.35341 16.1334 3.3081 16.3463 3.46509C17.2528 4.13352 17.9907 5.0002 18.5056 5.99572L18.6304 6.24934L18.8206 6.25433C19.5208 6.28946 20.2062 6.47688 20.8285 6.8048L21.0588 6.93433C21.5538 7.23135 21.9615 7.56325 22.2872 7.92507C23.1114 8.84085 23.3367 9.81872 23.2222 10.6525L23.2023 10.7719C23.199 10.7879 23.1958 10.8019 23.1928 10.8139C23.1487 10.9902 23.0087 11.1263 22.8313 11.1655C21.6222 11.432 20.3735 11.4562 19.1472 11.2358L18.7801 11.1623L18.6697 11.1309L18.6658 11.168C18.2427 14.0775 17.4079 16.9121 16.1862 19.587L15.9185 20.1578C15.3883 21.2542 14.3083 21.972 13.1029 22.0448L12.9009 22.0509H10.6018C9.31623 22.0506 8.14405 21.3151 7.5841 20.1572C6.30669 17.5062 5.41414 14.6889 4.93156 11.7904L4.82878 11.1309L4.70659 11.1655C3.49751 11.432 2.24885 11.4562 1.03258 11.2381L0.668739 11.1655C0.491289 11.1263 0.351255 10.9902 0.307184 10.8139L0.287748 10.718C0.28439 10.6981 0.281037 10.6762 0.277783 10.6525C0.163336 9.81872 0.388618 8.84085 1.21282 7.92507C1.53845 7.56325 1.94622 7.23135 2.44147 6.9342C3.12266 6.526 3.89164 6.29372 4.67942 6.25428L4.86901 6.24934L4.99488 5.99536C5.46374 5.09014 6.11696 4.2916 6.9136 3.65195L7.15686 3.46488C7.36987 3.30804 7.66969 3.35359 7.82652 3.5666C7.98336 3.77961 7.93781 4.07943 7.7248 4.23626C6.79261 4.9226 6.06509 5.85001 5.62046 6.91881C5.54216 7.10702 5.35332 7.22505 5.14984 7.21296C4.37338 7.16684 3.60106 7.35605 2.93409 7.75574C2.51909 8.00473 2.18544 8.27631 1.92483 8.56588C1.40324 9.14542 1.20808 9.73339 1.20817 10.2488L1.20978 10.2956L1.23438 10.3011C2.19578 10.4696 3.17835 10.4698 4.13122 10.3034L4.48706 10.2331C4.67353 10.1864 4.85565 10.1238 5.03146 10.0461C5.32499 9.91627 5.66063 10.1062 5.70044 10.4247C6.10461 13.6587 7.03226 16.8053 8.44677 19.7407C8.82154 20.5158 9.58085 21.0259 10.4308 21.0869L10.6019 21.093H12.9008C13.8191 21.0928 14.6564 20.5674 15.0558 19.7415C16.4696 16.8053 17.3963 13.6586 17.7995 10.4248C17.8393 10.1063 18.175 9.91625 18.4685 10.0461C18.6443 10.1238 18.8265 10.1864 18.9996 10.23C19.9549 10.4406 20.9378 10.4827 21.9041 10.3564L22.2896 10.2956L22.2918 10.2488C22.2919 9.78025 22.1306 9.25173 21.7094 8.72408L21.5752 8.56588C21.3146 8.27631 20.9809 8.00473 20.5662 7.75591C19.8989 7.35616 19.1266 7.16694 18.3501 7.21296C18.1466 7.22503 17.9577 7.1069 17.8795 6.9186C17.4356 5.85012 16.709 4.92274 15.7778 4.23605C15.5649 4.07906 15.5196 3.7792 15.6766 3.56631Z" fill="#DC002E"/>
<path d="M19.0278 2.28376C18.8771 2.56388 18.6945 2.82334 18.4897 3.0507L18.3321 3.21501C17.7547 3.84969 16.9615 4.24632 16.1073 4.32743C15.8439 4.35244 15.6102 4.15923 15.5852 3.8959C15.5602 3.63256 15.7534 3.39881 16.0167 3.37381C16.6336 3.31523 17.2065 3.02877 17.6424 2.55084C17.9017 2.29639 18.1128 1.99708 18.2698 1.65839C18.4267 1.33728 18.7494 1.13025 19.1067 1.12139C19.4639 1.11253 19.7965 1.30331 19.9683 1.61479C20.4466 2.47467 20.5863 3.4823 20.3536 4.46306C20.0667 5.45169 19.5283 6.34901 18.791 7.0674C18.6016 7.252 18.2983 7.24806 18.1137 7.0586C17.9291 6.86914 17.9331 6.56591 18.1225 6.38131C18.7412 5.77853 19.1929 5.02561 19.4276 4.21931C19.5819 3.56685 19.5117 2.88367 19.2315 2.27791L19.1309 2.07788L19.0278 2.28376Z" fill="#DC002E"/>
<path d="M4.39616 1.12139C4.75345 1.13025 5.07609 1.33728 5.23733 1.66741C5.39001 1.99708 5.60112 2.29639 5.87927 2.5704C6.29628 3.02877 6.86918 3.31523 7.48609 3.37381C7.74942 3.39881 7.94263 3.63256 7.91762 3.8959C7.89262 4.15923 7.65887 4.35244 7.39553 4.32743C6.61254 4.25308 5.88073 3.9136 5.33396 3.38374L5.18953 3.23457C4.90466 2.95504 4.66392 2.63445 4.47759 2.28908L4.37241 2.07901C4.00945 2.73147 3.90375 3.49436 4.06914 4.19608C4.30987 5.02561 4.76163 5.77853 5.38027 6.38131C5.56973 6.56591 5.57367 6.86914 5.38907 7.0586C5.20447 7.24806 4.90124 7.252 4.71178 7.0674C3.97448 6.34901 3.43609 5.45169 3.14307 4.43984C2.91655 3.4823 3.05616 2.47467 3.53369 1.61624C3.70636 1.30331 4.03887 1.11253 4.39616 1.12139Z" fill="#DC002E"/>
<path d="M11.7466 0.5C12.7771 0.5 13.7125 1.05223 14.2179 1.91992L14.2469 1.97519L14.384 1.9514C15.0548 1.86161 15.7405 2.13259 16.1651 2.68839L16.2584 2.82167C16.7885 3.65128 16.6058 4.74734 15.8353 5.36018C15.0648 5.97303 13.9557 5.9044 13.2667 5.20123C13.0815 5.0123 13.0846 4.70906 13.2735 4.52392C13.4415 4.35935 13.6997 4.34349 13.8851 4.47469L13.9509 4.53078C14.2964 4.88342 14.8526 4.91783 15.239 4.61049C15.6254 4.30315 15.717 3.75349 15.4512 3.33744C15.2058 2.9534 14.7291 2.7979 14.3102 2.95046L14.2068 2.99507C13.9491 3.12442 13.6364 2.99843 13.5403 2.72657C13.2717 1.96627 12.5529 1.45791 11.7466 1.45791C10.9402 1.45791 10.2215 1.96627 9.95283 2.72657C9.8667 2.97035 9.60621 3.09701 9.36729 3.02698L9.28872 2.99624C8.8501 2.77908 8.31831 2.92749 8.05554 3.34041C7.79277 3.75332 7.88354 4.29792 8.26602 4.60329C8.64851 4.90867 9.19968 4.87659 9.54416 4.5289C9.73034 4.341 10.0336 4.33959 10.2215 4.52577C10.4094 4.71195 10.4108 5.0152 10.2246 5.20311C9.53568 5.89847 8.43333 5.96263 7.66836 5.35189C6.90338 4.74114 6.72185 3.65195 7.24739 2.82612C7.65615 2.1838 8.39038 1.8615 9.10927 1.95434L9.24373 1.9771L9.27523 1.91992C9.75095 1.10327 10.6075 0.56606 11.5658 0.505684L11.7466 0.5Z" fill="#DC002E"/>
<path d="M10.3146 17.6245C10.5498 17.6245 10.7453 17.7939 10.7859 18.0174L10.7936 18.1035V19.0614C10.7936 19.3259 10.5792 19.5403 10.3146 19.5403C10.0795 19.5403 9.88396 19.3709 9.84341 19.1475L9.83569 19.0614V18.1035C9.83569 17.8389 10.0501 17.6245 10.3146 17.6245Z" fill="#DC002E"/>
<path d="M13.1884 17.6245C13.4236 17.6245 13.6191 17.7939 13.6597 18.0174L13.6674 18.1035V19.0614C13.6674 19.3259 13.4529 19.5403 13.1884 19.5403C12.9533 19.5403 12.7577 19.3709 12.7172 19.1475L12.7095 19.0614V18.1035C12.7095 17.8389 12.9239 17.6245 13.1884 17.6245Z" fill="#DC002E"/>
<circle cx="9.5" cy="10.75" r="0.75" fill="#DC002E"/>
<circle cx="13.75" cy="10.75" r="0.75" fill="#DC002E"/>
</svg>
