<svg width="79" height="86" viewBox="0 0 79 86" fill="none" xmlns="http://www.w3.org/2000/svg">
<rect x="1" y="0.5" width="76.75" height="85" rx="15.5" fill="white"/>
<g clip-path="url(#clip0_3203_1999)">
<path d="M32.0263 37.2403C34.9252 34.7713 43.016 34.7422 46.055 37.2158C46.3286 37.4385 46.3698 37.8407 46.1472 38.1142C45.9246 38.3878 45.5223 38.429 45.2488 38.2064C42.6845 36.1192 35.2812 36.1458 32.8544 38.2126C32.5859 38.4413 32.1829 38.409 31.9542 38.1405C31.7255 37.872 31.7578 37.4689 32.0263 37.2403Z" fill="#DC002E"/>
<path d="M44.2768 19.7548C44.4861 19.4709 44.8859 19.4105 45.1697 19.6198C46.3783 20.511 47.3622 21.6666 48.0488 22.994L48.2152 23.3321L48.4688 23.3388C49.4024 23.3856 50.3163 23.6355 51.146 24.0727L51.453 24.2455C52.113 24.6415 52.6567 25.084 53.0909 25.5664C54.1898 26.7875 54.4902 28.0913 54.3376 29.2031L54.311 29.3622C54.3067 29.3835 54.3024 29.4022 54.2984 29.4182C54.2397 29.6532 54.053 29.8348 53.8164 29.887C52.2042 30.2423 50.5394 30.2746 48.9043 29.9807L48.4148 29.8828L48.2676 29.8408L48.2623 29.8903C47.6983 33.7697 46.5852 37.5491 44.9563 41.1157L44.5993 41.8767C43.8924 43.3386 42.4525 44.2957 40.8452 44.3927L40.5759 44.4009H37.5104C35.7963 44.4004 34.2334 43.4198 33.4868 41.8759C31.7836 38.3413 30.5935 34.5849 29.9501 30.7203L29.813 29.8408L29.6501 29.887C28.038 30.2423 26.3731 30.2746 24.7514 29.9839L24.2663 29.887C24.0297 29.8348 23.843 29.6532 23.7843 29.4182L23.7583 29.2903C23.7539 29.2638 23.7494 29.2347 23.7451 29.2031C23.5925 28.0913 23.8928 26.7875 24.9918 25.5664C25.4259 25.084 25.9696 24.6415 26.63 24.2453C27.5382 23.701 28.5635 23.3913 29.6139 23.3387L29.8667 23.3321L30.0345 22.9935C30.6597 21.7865 31.5306 20.7218 32.5928 19.8689L32.9172 19.6195C33.2012 19.4104 33.6009 19.4711 33.81 19.7551C34.0191 20.0392 33.9584 20.4389 33.6744 20.648C32.4315 21.5631 31.4615 22.7997 30.8686 24.2248C30.7642 24.4757 30.5124 24.6331 30.2411 24.617C29.2058 24.5555 28.1761 24.8077 27.2868 25.3407C26.7335 25.6727 26.2886 26.0348 25.9411 26.4208C25.2457 27.1936 24.9854 27.9775 24.9856 28.6648L24.9877 28.7271L25.0205 28.7344C26.3024 28.9591 27.6125 28.9594 28.883 28.7375L29.3574 28.6439C29.606 28.5816 29.8489 28.4981 30.0833 28.3945C30.4747 28.2214 30.9222 28.4747 30.9753 28.8993C31.5141 33.2112 32.751 37.4068 34.637 41.3207C35.1367 42.354 36.1491 43.0342 37.2824 43.1155L37.5106 43.1237H40.5757C41.8001 43.1233 42.9165 42.4229 43.449 41.3216C45.3341 37.4067 46.5697 33.2112 47.1074 28.8995C47.1604 28.4748 47.608 28.2213 47.9994 28.3945C48.2338 28.4981 48.4766 28.5816 48.7075 28.6397C49.9812 28.9205 51.2917 28.9766 52.5801 28.8081L53.0942 28.7271L53.0971 28.6648C53.0972 28.04 52.8822 27.3353 52.3206 26.6318L52.1416 26.4208C51.7941 26.0348 51.3492 25.6727 50.7963 25.3409C49.9066 24.8079 48.8768 24.5556 47.8415 24.617C47.5701 24.633 47.3183 24.4755 47.2139 24.2245C46.6221 22.7998 45.6533 21.5633 44.4117 20.6477C44.1279 20.4384 44.0674 20.0386 44.2768 19.7548Z" fill="#DC002E"/>
<path d="M48.7454 18.0449C48.5445 18.4183 48.3011 18.7643 48.028 19.0674L47.8178 19.2865C47.0479 20.1328 45.9903 20.6616 44.8514 20.7697C44.5003 20.8031 44.1886 20.5455 44.1552 20.1944C44.1219 19.8433 44.3795 19.5316 44.7306 19.4982C45.5532 19.4201 46.317 19.0382 46.8982 18.401C47.2439 18.0617 47.5254 17.6626 47.7347 17.211C47.944 16.7829 48.3741 16.5068 48.8505 16.495C49.3269 16.4832 49.7703 16.7376 49.9994 17.1529C50.6372 18.2994 50.8233 19.6429 50.5132 20.9506C50.1306 22.2688 49.4128 23.4652 48.4297 24.423C48.1771 24.6692 47.7728 24.6639 47.5266 24.4113C47.2805 24.1587 47.2858 23.7544 47.5384 23.5083C48.3632 22.7045 48.9656 21.7007 49.2784 20.6256C49.4842 19.7556 49.3906 18.8447 49.0171 18.0371L48.8829 17.7703L48.7454 18.0449Z" fill="#DC002E"/>
<path d="M29.2359 16.495C29.7123 16.5068 30.1425 16.7829 30.3575 17.2231C30.561 17.6626 30.8425 18.0617 31.2134 18.427C31.7694 19.0382 32.5333 19.4201 33.3558 19.4982C33.7069 19.5316 33.9645 19.8433 33.9312 20.1944C33.8978 20.5455 33.5862 20.8031 33.2351 20.7697C32.1911 20.6706 31.2153 20.218 30.4863 19.5115L30.2937 19.3126C29.9139 18.9399 29.5929 18.5124 29.3445 18.0519L29.2042 17.7718C28.7203 18.6418 28.5794 19.659 28.7999 20.5946C29.1208 21.7007 29.7232 22.7045 30.548 23.5083C30.8007 23.7544 30.8059 24.1587 30.5598 24.4113C30.3136 24.6639 29.9093 24.6692 29.6567 24.423C28.6737 23.4652 27.9558 22.2688 27.5651 20.9196C27.2631 19.6429 27.4492 18.2994 28.0859 17.1548C28.3162 16.7376 28.7595 16.4832 29.2359 16.495Z" fill="#DC002E"/>
<path d="M39.0371 15.6665C40.4111 15.6665 41.6583 16.4028 42.3323 17.5597L42.3709 17.6334L42.5536 17.6017C43.448 17.482 44.3623 17.8433 44.9285 18.5844L45.0528 18.7621C45.7596 19.8682 45.5161 21.3296 44.4887 22.1467C43.4614 22.9639 41.9827 22.8724 41.0639 21.9348C40.8171 21.6829 40.8211 21.2786 41.0731 21.0317C41.297 20.8123 41.6413 20.7912 41.8884 20.9661L41.9761 21.0409C42.4369 21.5111 43.1785 21.557 43.6937 21.1472C44.2089 20.7374 44.331 20.0045 43.9766 19.4498C43.6494 18.9377 43.0138 18.7304 42.4552 18.9338L42.3174 18.9933C41.9738 19.1657 41.5568 18.9977 41.4288 18.6353C41.0706 17.6215 40.1123 16.9437 39.0371 16.9437C37.962 16.9437 37.0036 17.6215 36.6454 18.6353C36.5306 18.9603 36.1833 19.1292 35.8647 19.0358L35.76 18.9948C35.1751 18.7053 34.4661 18.9032 34.1157 19.4537C33.7654 20.0043 33.8864 20.7304 34.3964 21.1376C34.9063 21.5447 35.6412 21.502 36.1006 21.0384C36.3488 20.7878 36.7531 20.786 37.0037 21.0342C37.2542 21.2824 37.2561 21.6868 37.0079 21.9373C36.0892 22.8645 34.6194 22.95 33.5995 22.1357C32.5795 21.3214 32.3375 19.8691 33.0382 18.768C33.5832 17.9116 34.5622 17.4818 35.5207 17.6056L35.7 17.636L35.742 17.5597C36.3763 16.4709 37.5183 15.7546 38.796 15.6741L39.0371 15.6665Z" fill="#DC002E"/>
<path d="M37.1279 38.499C37.4414 38.499 37.7021 38.7249 37.7562 39.0228L37.7665 39.1376V40.4148C37.7665 40.7675 37.4806 41.0535 37.1279 41.0535C36.8144 41.0535 36.5536 40.8275 36.4995 40.5296L36.4893 40.4148V39.1376C36.4893 38.7849 36.7752 38.499 37.1279 38.499Z" fill="#DC002E"/>
<path d="M40.9589 38.499C41.2724 38.499 41.5332 38.7249 41.5872 39.0228L41.5975 39.1376V40.4148C41.5975 40.7675 41.3116 41.0535 40.9589 41.0535C40.6454 41.0535 40.3847 40.8275 40.3306 40.5296L40.3203 40.4148V39.1376C40.3203 38.7849 40.6062 38.499 40.9589 38.499Z" fill="#DC002E"/>
<circle cx="36.041" cy="29.333" r="1" fill="#DC002E"/>
<circle cx="41.708" cy="29.333" r="1" fill="#DC002E"/>
</g>
<path d="M34.9667 59.708L32.3027 64.856V68H30.6947V64.868L28.0307 59.708H29.7827L31.5347 63.56L33.2867 59.708H34.9667ZM40.7293 59.708L40.5613 60.884H37.5013V63.2H40.1653V64.376H37.5013V66.812H40.7773V68H35.9173V59.708H40.7293ZM50.1406 68H48.5926L48.3766 64.532C48.3046 63.292 48.2686 62.308 48.2686 61.58V61.148L46.7566 67.1H45.2566L43.6486 61.136C43.6646 61.664 43.6726 62.064 43.6726 62.336C43.6726 63.064 43.6486 63.812 43.6006 64.58L43.3966 68H41.8606L42.5206 59.708H44.5606L46.0366 65.516L47.4286 59.708H49.4926L50.1406 68Z" fill="black"/>
<rect x="1" y="0.5" width="76.75" height="85" rx="15.5" stroke="#D0D0D0"/>
<defs>
<clipPath id="clip0_3203_1999">
<rect width="32" height="32" fill="white" transform="translate(23.375 15)"/>
</clipPath>
</defs>
</svg>
