<svg width="29" height="29" viewBox="0 0 29 29" fill="none" xmlns="http://www.w3.org/2000/svg">
<g clip-path="url(#clip0_3281_3)">
<path fill-rule="evenodd" clip-rule="evenodd" d="M5.28489 5.09935C5.51632 4.86793 5.89153 4.86793 6.12295 5.09935L25.0859 24.0623C25.3173 24.2937 25.3173 24.6689 25.0859 24.9004C24.8545 25.1318 24.4793 25.1318 24.2479 24.9004L5.28489 5.9374C5.05347 5.70598 5.05347 5.33077 5.28489 5.09935Z" fill="#323232"/>
<path fill-rule="evenodd" clip-rule="evenodd" d="M25.0859 5.09935C25.3173 5.33077 25.3173 5.70598 25.0859 5.9374L6.12295 24.9004C5.89153 25.1318 5.51632 25.1318 5.28489 24.9004C5.05347 24.6689 5.05347 24.2937 5.28489 24.0623L24.2479 5.09935C24.4793 4.86793 24.8545 4.86793 25.0859 5.09935Z" fill="#323232"/>
</g>
<defs>
<clipPath id="clip0_3281_3">
<rect width="28.4444" height="28.4444" fill="white" transform="translate(0.962891 -0.407471)"/>
</clipPath>
</defs>
</svg>
