<svg width="98" height="84" viewBox="0 0 98 84" fill="none" xmlns="http://www.w3.org/2000/svg">
<g clip-path="url(#clip0_189_10838)">
<path fill-rule="evenodd" clip-rule="evenodd" d="M80.6561 72.161C80.6561 72.7716 80.74 73.2487 81.0096 73.5739C81.2793 73.8986 81.7351 74.0709 82.4775 74.0709C83.21 74.0709 83.661 73.8986 83.928 73.5739C84.1954 73.2487 84.2794 72.7716 84.2794 72.161V70.4864C84.2794 70.4864 84.0568 70.4029 83.7249 70.3195C83.3936 70.2355 82.9528 70.152 82.517 70.152C81.8434 70.152 81.3783 70.2705 81.0816 70.5386C80.7844 70.8068 80.6561 71.2257 80.6561 71.8261V72.161ZM77.8633 76.8478C77.8633 76.4542 77.9722 76.1096 78.1606 75.7698C78.349 75.43 78.6159 75.0951 78.9327 74.7209C78.6657 74.4651 78.4578 74.0806 78.3165 73.6698C78.1752 73.2584 78.101 72.8206 78.101 72.4561V71.5305C78.101 70.3588 78.5916 69.5565 79.3317 69.0471C80.0719 68.5372 81.0616 68.3207 82.0616 68.3207C82.6063 68.3207 83.1358 68.4241 83.6507 68.5275C84.1656 68.6309 84.6654 68.7342 85.1505 68.7342C85.3785 68.7342 85.6259 68.7046 85.9031 68.6406C86.1803 68.5765 86.4873 68.4785 86.8338 68.3401V72.4561C86.8338 73.5492 86.4527 74.4209 85.7174 75.0192C84.9821 75.6174 83.8933 75.9421 82.4775 75.9421C81.7351 75.9421 81.1109 75.8043 80.6728 75.6664C80.2348 75.5286 79.9825 75.3907 79.9825 75.3907C79.9527 75.4893 79.9235 75.6169 79.9013 75.7526C79.8786 75.8877 79.8639 76.0309 79.8639 76.1586C79.8639 76.6017 80.0913 76.858 80.4898 77.0029C80.8883 77.1482 81.4579 77.1827 82.1412 77.1827H82.7947C83.844 77.1827 84.9426 77.1779 85.7797 77.5246C86.6157 77.8719 87.1901 78.5709 87.1901 79.9789C87.1901 81.023 86.8187 81.8943 86.0439 82.5043C85.2691 83.115 84.0909 83.4644 82.4775 83.4644C81.1309 83.4644 80.0469 83.2528 79.2998 82.8786C78.552 82.5043 78.1411 81.968 78.1411 81.3176C78.1411 81.0618 78.1904 80.8012 78.2997 80.5276C78.4086 80.2546 78.5764 79.9693 78.8141 79.6634C78.9034 80.4415 79.3588 80.9239 79.9998 81.212C80.6409 81.5001 81.4677 81.5938 82.2993 81.5938C83.1802 81.5938 83.7747 81.4511 84.1483 81.1948C84.5219 80.939 84.6757 80.5696 84.6757 80.1168C84.6757 79.6543 84.4775 79.3979 84.1359 79.2574C83.7942 79.1174 83.3091 79.0926 82.7346 79.0926H81.7649C80.7248 79.0926 79.7497 79.0286 79.0345 78.7163C78.3187 78.4034 77.8633 77.8423 77.8633 76.8478ZM69.6459 69.6992V75.3907C69.6459 75.9125 69.7699 76.3206 70.0693 76.599C70.3688 76.8774 70.8436 77.0249 71.5469 77.0249C72.0516 77.0249 72.5221 76.956 72.8659 76.8871C73.2102 76.8182 73.4279 76.7493 73.4279 76.7493V68.4192C73.4279 68.4192 74.0717 68.4192 74.7154 68.5792C75.3586 68.7391 76.0024 69.0595 76.0024 69.6992V78.9349C76.0024 78.9349 75.8097 78.8315 75.4902 78.7286C75.1708 78.6253 74.7252 78.5219 74.2205 78.5219C73.7349 78.5219 73.2649 78.6253 72.782 78.7286C72.2995 78.8315 71.8041 78.9349 71.2697 78.9349C70.2497 78.9349 69.2003 78.7626 68.4055 78.2704C67.6112 77.7783 67.0714 76.9662 67.0714 75.6858V68.4192C67.0714 68.4192 67.7152 68.4289 68.3584 68.5942C69.0022 68.759 69.6459 69.0789 69.6459 69.6992ZM62.022 75.745V63.6533C62.101 63.6533 62.7448 63.6582 63.3685 63.8208C63.9923 63.9834 64.5965 64.3032 64.5965 64.9332V75.115C64.5965 75.6465 64.6014 76.3799 64.7795 76.9803C64.9582 77.5812 65.3096 78.0486 66.0026 78.0486C65.7352 78.4034 65.4482 78.6005 65.1656 78.7087C64.8835 78.8175 64.6063 78.8369 64.3594 78.8369C63.5575 78.8369 62.9727 78.4777 62.5889 77.9113C62.205 77.3453 62.022 76.5721 62.022 75.745ZM53.3888 69.6992V75.3907C53.3888 75.9125 53.5128 76.3206 53.8122 76.599C54.1116 76.8774 54.587 77.0249 55.2898 77.0249C55.7944 77.0249 56.2649 76.956 56.6087 76.8871C56.953 76.8182 57.1707 76.7493 57.1707 76.7493V68.4192C57.1707 68.4192 57.8145 68.4192 58.4577 68.5792C59.1015 68.7391 59.7452 69.0595 59.7452 69.6992V78.9349C59.7452 78.9349 59.5519 78.8315 59.233 78.7286C58.9136 78.6253 58.468 78.5219 57.9634 78.5219C57.4777 78.5219 57.0077 78.6253 56.5248 78.7286C56.0424 78.8315 55.5469 78.9349 55.0125 78.9349C53.9925 78.9349 52.9432 78.7626 52.1483 78.2704C51.3541 77.7783 50.8142 76.9662 50.8142 75.6858V68.4192C50.8142 68.4192 51.458 68.4289 52.1012 68.5942C52.745 68.759 53.3888 69.0789 53.3888 69.6992ZM45.7653 75.745V63.6533C45.8444 63.6533 46.4882 63.6582 47.1114 63.8208C47.7351 63.9834 48.3393 64.3032 48.3393 64.9332V75.115C48.3393 75.6465 48.3442 76.3799 48.5223 76.9803C48.7005 77.5812 49.0519 78.0486 49.7449 78.0486C49.4774 78.4034 49.1905 78.6005 48.9084 78.7087C48.6263 78.8175 48.3491 78.8369 48.1016 78.8369C47.2998 78.8369 46.7156 78.4777 46.3322 77.9113C45.9484 77.3453 45.7653 76.5721 45.7653 75.745ZM37.3298 70.4277V75.43C37.3298 75.9125 37.5972 76.3206 37.9979 76.6087C38.3991 76.8968 38.9335 77.0643 39.4684 77.0643C39.9433 77.0643 40.3542 76.9264 40.6466 76.6286C40.9384 76.3309 41.1117 75.8732 41.1117 75.2329V72.0431C41.1117 71.4228 40.9926 70.9597 40.6688 70.6517C40.3445 70.3442 39.8144 70.1913 38.9931 70.1913C38.5475 70.1913 38.1316 70.2506 37.8273 70.3098C37.5231 70.3685 37.3298 70.4277 37.3298 70.4277ZM37.3298 79.3096V83.563C37.2404 83.563 36.5972 83.5678 35.9762 83.3858C35.3546 83.2038 34.7558 82.8344 34.7558 82.0859V68.3207C35.013 68.4489 35.275 68.542 35.5403 68.6039C35.8051 68.6653 36.0725 68.6949 36.34 68.6949C36.8641 68.6949 37.379 68.6012 37.8669 68.5081C38.3542 68.4144 38.8149 68.3207 39.2302 68.3207C40.6466 68.3207 41.7603 68.6309 42.5205 69.214C43.2802 69.7977 43.6862 70.6539 43.6862 71.7469V75.5286C43.6862 76.592 43.226 77.4433 42.5005 78.0292C41.7755 78.615 40.7852 78.9349 39.7262 78.9349C38.9043 78.9349 38.2654 78.7432 37.8322 78.5509C37.3991 78.3593 37.1717 78.167 37.1717 78.167C37.1717 78.167 37.2112 78.3296 37.2507 78.5536C37.2902 78.7776 37.3298 79.0636 37.3298 79.3096ZM30.0036 75.1737V72.0824C30.0036 71.4815 29.9094 71.0087 29.5872 70.6862C29.2656 70.3636 28.7161 70.1913 27.8054 70.1913C26.8947 70.1913 26.3451 70.3636 26.0229 70.6862C25.7013 71.0087 25.6071 71.4815 25.6071 72.0824V75.1737C25.6071 75.7746 25.7013 76.2469 26.0229 76.5694C26.3451 76.8919 26.8947 77.0643 27.8054 77.0643C28.7161 77.0643 29.2656 76.8919 29.5872 76.5694C29.9094 76.2469 30.0036 75.7746 30.0036 75.1737ZM32.5776 71.7863V75.4693C32.5776 76.5527 32.1964 77.4191 31.4092 78.0146C30.6219 78.6102 29.4291 78.9349 27.8054 78.9349C26.1816 78.9349 24.9883 78.6102 24.2016 78.0146C23.4143 77.4191 23.0331 76.5527 23.0331 75.4693V71.7863C23.0331 70.7034 23.4143 69.837 24.2016 69.2415C24.9883 68.6459 26.1816 68.3207 27.8054 68.3207C29.4291 68.3207 30.6219 68.6459 31.4092 69.2415C32.1964 69.837 32.5776 70.7034 32.5776 71.7863ZM14.4395 75.4693V66.6466C14.6966 66.6466 15.3355 66.6466 15.91 66.8561C16.4839 67.065 16.994 67.4834 16.994 68.3207V69.0299H21.0331C21.0331 69.0299 21.0282 69.5123 20.8425 69.9948C20.6568 70.4767 20.2908 70.9592 19.5679 70.9592H16.994V74.9174C16.994 75.5776 17.0882 76.0993 17.3702 76.4563C17.6523 76.8133 18.1223 77.0056 18.8749 77.0056C19.4488 77.0056 20.033 76.8823 20.4738 76.5624C20.9145 76.242 21.2117 75.7251 21.2117 74.9373C21.4792 75.2329 21.6866 75.5189 21.8279 75.8064C21.9692 76.0945 22.0434 76.3853 22.0434 76.69C22.0434 77.2909 21.7559 77.852 21.1717 78.2629C20.5875 78.6743 19.7065 78.9349 18.5186 78.9349C17.2214 78.9349 16.2018 78.615 15.5061 78.0216C14.8109 77.4288 14.4395 76.5624 14.4395 75.4693ZM83.8213 67.45H81.217C80.753 67.3935 80.3653 67.2427 80.093 66.9864C79.8212 66.7301 79.6652 66.3688 79.6652 65.8906C79.6652 65.7259 79.6782 65.5406 79.7513 65.3522C79.8244 65.1642 79.9576 64.9726 80.1969 64.7938C80.1969 65.2364 80.4855 65.4701 80.8656 65.5934C81.2457 65.7172 81.7167 65.7307 82.0811 65.7323H82.177H83.3963H83.4916C83.8554 65.7312 84.3265 65.7178 84.7065 65.5939C85.0866 65.4706 85.3758 65.2364 85.3758 64.7938C85.6145 64.9726 85.7477 65.1642 85.8208 65.3522C85.8939 65.5406 85.9074 65.7259 85.9074 65.8906C85.9074 66.4259 85.6649 66.8157 85.2826 67.072C84.9009 67.3278 84.3795 67.45 83.8213 67.45ZM91.3884 69.6992V75.3907C91.3884 75.9125 91.5119 76.3206 91.8113 76.599C92.1112 76.8774 92.5861 77.0249 93.2889 77.0249C93.794 77.0249 94.2645 76.956 94.6083 76.8871C94.9527 76.8182 95.1703 76.7493 95.1703 76.7493V68.4192C95.1703 68.4192 95.8141 68.4192 96.4573 68.5792C97.1011 68.7391 97.7449 69.0595 97.7449 69.6992V78.9349C97.7449 78.9349 97.5516 78.8315 97.2321 78.7286C96.9127 78.6253 96.4671 78.5219 95.9625 78.5219C95.4768 78.5219 95.0068 78.6253 94.5244 78.7286C94.0415 78.8315 93.5466 78.9349 93.0122 78.9349C91.9921 78.9349 90.9428 78.7626 90.148 78.2704C89.3537 77.7783 88.8139 76.9662 88.8139 75.6858V68.4192C88.8139 68.4192 89.4577 68.4289 90.1009 68.5942C90.7447 68.759 91.3884 69.0789 91.3884 69.6992Z" fill="white"/>
<path fill-rule="evenodd" clip-rule="evenodd" d="M80.6561 72.161C80.6561 72.7716 80.74 73.2487 81.0096 73.5739C81.2793 73.8986 81.7351 74.0709 82.4775 74.0709C83.21 74.0709 83.661 73.8986 83.928 73.5739C84.1954 73.2487 84.2794 72.7716 84.2794 72.161V70.4864C84.2794 70.4864 84.0568 70.4029 83.7249 70.3195C83.3936 70.2355 82.9528 70.152 82.517 70.152C81.8434 70.152 81.3783 70.2705 81.0816 70.5386C80.7844 70.8068 80.6561 71.2257 80.6561 71.8261V72.161ZM77.8633 76.8478C77.8633 76.4542 77.9722 76.1096 78.1606 75.7698C78.349 75.43 78.6159 75.0951 78.9327 74.7209C78.6657 74.4651 78.4578 74.0806 78.3165 73.6698C78.1752 73.2584 78.101 72.8206 78.101 72.4561V71.5305C78.101 70.3588 78.5916 69.5565 79.3317 69.0471C80.0719 68.5372 81.0616 68.3207 82.0616 68.3207C82.6063 68.3207 83.1358 68.4241 83.6507 68.5275C84.1656 68.6309 84.6654 68.7342 85.1505 68.7342C85.3785 68.7342 85.6259 68.7046 85.9031 68.6406C86.1803 68.5765 86.4873 68.4785 86.8338 68.3401V72.4561C86.8338 73.5492 86.4527 74.4209 85.7174 75.0192C84.9821 75.6174 83.8933 75.9421 82.4775 75.9421C81.7351 75.9421 81.1109 75.8043 80.6728 75.6664C80.2348 75.5286 79.9825 75.3907 79.9825 75.3907C79.9527 75.4893 79.9235 75.6169 79.9013 75.7526C79.8786 75.8877 79.8639 76.0309 79.8639 76.1586C79.8639 76.6017 80.0913 76.858 80.4898 77.0029C80.8883 77.1482 81.4579 77.1827 82.1412 77.1827H82.7947C83.844 77.1827 84.9426 77.1779 85.7797 77.5246C86.6157 77.8719 87.1901 78.5709 87.1901 79.9789C87.1901 81.023 86.8187 81.8943 86.0439 82.5043C85.2691 83.115 84.0909 83.4644 82.4775 83.4644C81.1309 83.4644 80.0469 83.2528 79.2998 82.8786C78.552 82.5043 78.1411 81.968 78.1411 81.3176C78.1411 81.0618 78.1904 80.8012 78.2997 80.5276C78.4086 80.2546 78.5764 79.9693 78.8141 79.6634C78.9034 80.4415 79.3588 80.9239 79.9998 81.212C80.6409 81.5001 81.4677 81.5938 82.2993 81.5938C83.1802 81.5938 83.7747 81.4511 84.1483 81.1948C84.5219 80.939 84.6757 80.5696 84.6757 80.1168C84.6757 79.6543 84.4775 79.3979 84.1359 79.2574C83.7942 79.1174 83.3091 79.0926 82.7346 79.0926H81.7649C80.7248 79.0926 79.7497 79.0286 79.0345 78.7163C78.3187 78.4034 77.8633 77.8423 77.8633 76.8478ZM69.6459 69.6992V75.3907C69.6459 75.9125 69.7699 76.3206 70.0693 76.599C70.3688 76.8774 70.8436 77.0249 71.5469 77.0249C72.0516 77.0249 72.5221 76.956 72.8659 76.8871C73.2102 76.8182 73.4279 76.7493 73.4279 76.7493V68.4192C73.4279 68.4192 74.0717 68.4192 74.7154 68.5792C75.3586 68.7391 76.0024 69.0595 76.0024 69.6992V78.9349C76.0024 78.9349 75.8097 78.8315 75.4902 78.7286C75.1708 78.6253 74.7252 78.5219 74.2205 78.5219C73.7349 78.5219 73.2649 78.6253 72.782 78.7286C72.2995 78.8315 71.8041 78.9349 71.2697 78.9349C70.2497 78.9349 69.2003 78.7626 68.4055 78.2704C67.6112 77.7783 67.0714 76.9662 67.0714 75.6858V68.4192C67.0714 68.4192 67.7152 68.4289 68.3584 68.5942C69.0022 68.759 69.6459 69.0789 69.6459 69.6992ZM62.022 75.745V63.6533C62.101 63.6533 62.7448 63.6582 63.3685 63.8208C63.9923 63.9834 64.5965 64.3032 64.5965 64.9332V75.115C64.5965 75.6465 64.6014 76.3799 64.7795 76.9803C64.9582 77.5812 65.3096 78.0486 66.0026 78.0486C65.7352 78.4034 65.4482 78.6005 65.1656 78.7087C64.8835 78.8175 64.6063 78.8369 64.3594 78.8369C63.5575 78.8369 62.9727 78.4777 62.5889 77.9113C62.205 77.3453 62.022 76.5721 62.022 75.745ZM53.3888 69.6992V75.3907C53.3888 75.9125 53.5128 76.3206 53.8122 76.599C54.1116 76.8774 54.587 77.0249 55.2898 77.0249C55.7944 77.0249 56.2649 76.956 56.6087 76.8871C56.953 76.8182 57.1707 76.7493 57.1707 76.7493V68.4192C57.1707 68.4192 57.8145 68.4192 58.4577 68.5792C59.1015 68.7391 59.7452 69.0595 59.7452 69.6992V78.9349C59.7452 78.9349 59.5519 78.8315 59.233 78.7286C58.9136 78.6253 58.468 78.5219 57.9634 78.5219C57.4777 78.5219 57.0077 78.6253 56.5248 78.7286C56.0424 78.8315 55.5469 78.9349 55.0125 78.9349C53.9925 78.9349 52.9432 78.7626 52.1483 78.2704C51.3541 77.7783 50.8142 76.9662 50.8142 75.6858V68.4192C50.8142 68.4192 51.458 68.4289 52.1012 68.5942C52.745 68.759 53.3888 69.0789 53.3888 69.6992ZM45.7653 75.745V63.6533C45.8444 63.6533 46.4882 63.6582 47.1114 63.8208C47.7351 63.9834 48.3393 64.3032 48.3393 64.9332V75.115C48.3393 75.6465 48.3442 76.3799 48.5223 76.9803C48.7005 77.5812 49.0519 78.0486 49.7449 78.0486C49.4774 78.4034 49.1905 78.6005 48.9084 78.7087C48.6263 78.8175 48.3491 78.8369 48.1016 78.8369C47.2998 78.8369 46.7156 78.4777 46.3322 77.9113C45.9484 77.3453 45.7653 76.5721 45.7653 75.745ZM37.3298 70.4277V75.43C37.3298 75.9125 37.5972 76.3206 37.9979 76.6087C38.3991 76.8968 38.9335 77.0643 39.4684 77.0643C39.9433 77.0643 40.3542 76.9264 40.6466 76.6286C40.9384 76.3309 41.1117 75.8732 41.1117 75.2329V72.0431C41.1117 71.4228 40.9926 70.9597 40.6688 70.6517C40.3445 70.3442 39.8144 70.1913 38.9931 70.1913C38.5475 70.1913 38.1316 70.2506 37.8273 70.3098C37.5231 70.3685 37.3298 70.4277 37.3298 70.4277ZM37.3298 79.3096V83.563C37.2404 83.563 36.5972 83.5678 35.9762 83.3858C35.3546 83.2038 34.7558 82.8344 34.7558 82.0859V68.3207C35.013 68.4489 35.275 68.542 35.5403 68.6039C35.8051 68.6653 36.0725 68.6949 36.34 68.6949C36.8641 68.6949 37.379 68.6012 37.8669 68.5081C38.3542 68.4144 38.8149 68.3207 39.2302 68.3207C40.6466 68.3207 41.7603 68.6309 42.5205 69.214C43.2802 69.7977 43.6862 70.6539 43.6862 71.7469V75.5286C43.6862 76.592 43.226 77.4433 42.5005 78.0292C41.7755 78.615 40.7852 78.9349 39.7262 78.9349C38.9043 78.9349 38.2654 78.7432 37.8322 78.5509C37.3991 78.3592 37.1717 78.167 37.1717 78.167C37.1717 78.167 37.2112 78.3296 37.2507 78.5536C37.2902 78.7776 37.3298 79.0636 37.3298 79.3096ZM30.0036 75.1737V72.0824C30.0036 71.4815 29.9094 71.0087 29.5872 70.6862C29.2656 70.3636 28.7161 70.1913 27.8054 70.1913C26.8947 70.1913 26.3451 70.3636 26.0229 70.6862C25.7013 71.0087 25.6071 71.4815 25.6071 72.0824V75.1737C25.6071 75.7746 25.7013 76.2469 26.0229 76.5694C26.3451 76.8919 26.8947 77.0643 27.8054 77.0643C28.7161 77.0643 29.2656 76.8919 29.5872 76.5694C29.9094 76.2469 30.0036 75.7746 30.0036 75.1737ZM32.5776 71.7863V75.4693C32.5776 76.5527 32.1964 77.4191 31.4092 78.0146C30.6219 78.6102 29.4291 78.9349 27.8054 78.9349C26.1816 78.9349 24.9883 78.6102 24.2016 78.0146C23.4143 77.4191 23.0331 76.5527 23.0331 75.4693V71.7863C23.0331 70.7034 23.4143 69.837 24.2016 69.2415C24.9883 68.6459 26.1816 68.3207 27.8054 68.3207C29.4291 68.3207 30.6219 68.6459 31.4092 69.2415C32.1964 69.837 32.5776 70.7034 32.5776 71.7863ZM14.4395 75.4693V66.6466C14.6966 66.6466 15.3355 66.6466 15.91 66.8561C16.4839 67.065 16.994 67.4834 16.994 68.3207V69.0299H21.0331C21.0331 69.0299 21.0282 69.5123 20.8425 69.9948C20.6568 70.4767 20.2908 70.9592 19.5679 70.9592H16.994V74.9174C16.994 75.5776 17.0882 76.0993 17.3702 76.4563C17.6523 76.8133 18.1223 77.0056 18.8749 77.0056C19.4488 77.0056 20.033 76.8823 20.4738 76.5624C20.9145 76.242 21.2117 75.7251 21.2117 74.9373C21.4792 75.2329 21.6866 75.5189 21.8279 75.8064C21.9692 76.0945 22.0434 76.3853 22.0434 76.69C22.0434 77.2909 21.7559 77.852 21.1717 78.2629C20.5875 78.6743 19.7065 78.9349 18.5186 78.9349C17.2214 78.9349 16.2018 78.615 15.5061 78.0216C14.8109 77.4288 14.4395 76.5624 14.4395 75.4693ZM83.8213 67.45H81.217C80.753 67.3935 80.3653 67.2427 80.093 66.9864C79.8212 66.7301 79.6652 66.3688 79.6652 65.8906C79.6652 65.7259 79.6782 65.5406 79.7513 65.3522C79.8244 65.1642 79.9576 64.9725 80.1969 64.7938C80.1969 65.2364 80.4855 65.4701 80.8656 65.5934C81.2457 65.7172 81.7167 65.7307 82.0811 65.7323H82.177H83.3963H83.4916C83.8554 65.7312 84.3265 65.7178 84.7065 65.5939C85.0866 65.4706 85.3758 65.2364 85.3758 64.7938C85.6145 64.9725 85.7477 65.1642 85.8208 65.3522C85.8939 65.5406 85.9075 65.7259 85.9075 65.8906C85.9075 66.4259 85.6649 66.8157 85.2826 67.072C84.9009 67.3278 84.3795 67.45 83.8213 67.45ZM91.3884 69.6992V75.3907C91.3884 75.9125 91.5119 76.3206 91.8113 76.599C92.1112 76.8774 92.5861 77.0249 93.2889 77.0249C93.794 77.0249 94.2645 76.956 94.6083 76.8871C94.9527 76.8182 95.1703 76.7493 95.1703 76.7493V68.4192C95.1703 68.4192 95.8141 68.4192 96.4573 68.5792C97.1011 68.7391 97.7449 69.0595 97.7449 69.6992V78.9349C97.7449 78.9349 97.5516 78.8315 97.2321 78.7286C96.9127 78.6253 96.4671 78.5219 95.9625 78.5219C95.4768 78.5219 95.0068 78.6253 94.5244 78.7286C94.0415 78.8315 93.5466 78.9349 93.0122 78.9349C91.9921 78.9349 90.9428 78.7626 90.148 78.2704C89.3537 77.7783 88.8139 76.9662 88.8139 75.6858V68.4192C88.8139 68.4192 89.4577 68.4289 90.1009 68.5942C90.7447 68.759 91.3884 69.0789 91.3884 69.6992Z" stroke="white" stroke-width="0.01"/>
<path fill-rule="evenodd" clip-rule="evenodd" d="M9.04803 29.2823C9.04803 29.2823 9.69613 29.0836 10.7189 28.8855C11.7411 28.6868 13.1375 28.4881 14.6329 28.4881C17.3916 28.4881 19.1702 29.0007 20.2585 30.034C21.3473 31.0673 21.7463 32.6208 21.7463 34.7041V45.4152C21.7463 47.5642 21.1643 49.1015 20.1838 50.1019C19.2032 51.1019 17.8236 51.5649 16.2286 51.5649C14.4337 51.5649 12.6383 51.0028 11.2917 50.0352C9.94573 49.0681 9.04803 47.6961 9.04803 46.0764V29.2823ZM9.04803 59.1023C9.04803 58.2758 8.91538 57.3168 8.78219 56.5645C8.64954 55.8129 8.51634 55.2674 8.51634 55.2674C8.51634 55.2674 9.28085 55.9119 10.7351 56.5565C12.1894 57.2005 14.3335 57.845 17.0932 57.845C20.6499 57.845 23.9738 56.7708 26.4087 54.8038C28.8435 52.8373 30.3893 49.9775 30.3893 46.407V33.7122C30.3893 30.0426 29.0265 27.1662 26.4753 25.2078C23.924 23.2489 20.1843 22.208 15.4305 22.208C14.0347 22.208 12.4883 22.5219 10.851 22.8359C9.21371 23.1498 7.48491 23.4637 5.72361 23.4637C4.82645 23.4637 3.92875 23.3646 3.03971 23.1579C2.15013 22.9511 1.26867 22.6372 0.404541 22.208V73.3344C0.404541 75.8474 2.41598 77.0869 4.50213 77.6981C6.58775 78.3098 8.74862 78.2931 9.04803 78.2931V59.1023Z" fill="#DC002E"/>
<path fill-rule="evenodd" clip-rule="evenodd" d="M53.7295 50.6388C53.7295 50.6388 53.0647 50.9365 51.959 51.2343C50.8534 51.5315 49.3082 51.8293 47.5463 51.8293C45.6513 51.8293 44.1553 51.4492 43.1331 50.6969C42.1114 49.9447 41.5629 48.8204 41.5629 47.3326C41.5629 44.391 44.2219 43.3992 47.0726 42.7045C49.9227 42.0105 52.9645 41.6136 53.7295 39.8615V50.6388ZM32.9866 47.4645C32.9866 51.3991 34.665 53.9939 37.2 55.6055C39.7345 57.2177 43.125 57.8456 46.549 57.8456C48.4435 57.8456 50.2216 57.5483 51.9423 57.2505C53.6624 56.9533 55.3246 56.6555 56.9874 56.6555C57.8179 56.6555 58.6653 56.7051 59.5213 56.8623C60.3773 57.019 61.2414 57.2834 62.1061 57.7131V33.5135C62.1061 29.9107 60.8094 27.0843 58.2917 25.1582C55.7735 23.2327 52.0338 22.208 47.1473 22.208C44.4212 22.208 41.1135 22.6377 38.4876 23.7862C35.8616 24.9348 33.9168 26.8027 33.9168 29.6792C33.9168 30.5719 34.0662 31.5304 34.4566 32.5885C34.8475 33.646 35.4788 34.8032 36.4426 36.0928C36.4426 33.3159 37.7057 31.448 39.6674 30.2742C41.6284 29.1009 44.2885 28.6216 47.0807 28.6216C49.6401 28.6216 51.2525 29.1504 52.2249 29.9769C53.1973 30.8035 53.5298 31.9272 53.5298 33.1172C52.1664 35.7288 47.0309 36.2247 42.2359 37.6134C37.441 39.0015 32.9866 41.283 32.9866 47.4645Z" fill="#DC002E"/>
<path fill-rule="evenodd" clip-rule="evenodd" d="M93.9759 23.9576C93.2444 23.7261 92.4631 23.4277 91.6656 23.1871C90.8675 22.9469 90.0532 22.7644 89.2556 22.7644C87.9594 22.7644 86.6789 22.9792 85.5652 23.4918C84.4515 24.0044 83.504 24.8143 82.8721 26.0043C81.3761 28.8145 80.0799 30.9468 78.6673 32.4513C77.2547 33.9557 75.7257 34.8313 73.7646 35.1285V4.67691C73.7646 2.52791 71.6037 1.45314 69.4428 0.916291C67.282 0.378906 65.1211 0.378906 65.1211 0.378906V53.8427C65.1211 55.9917 67.282 57.0665 69.4428 57.6039C71.6037 58.1413 73.7646 58.1413 73.7646 58.1413V42.5388C80.6127 43.6626 82.74 47.6634 84.302 51.3825C85.8646 55.1017 86.8619 58.5403 91.449 58.5403C92.1139 58.5403 93.344 58.2253 94.4079 57.9108C95.4713 57.5958 96.369 57.2814 96.369 57.2814C94.3408 53.6446 93.2439 49.8264 91.416 46.4793C89.5875 43.1317 87.0282 40.2557 82.0751 38.5036C85.0671 37.3131 87.1278 34.9164 88.8977 32.1971C90.6677 29.4784 92.1469 26.4367 93.9759 23.9576Z" fill="#DC002E"/>
</g>
<defs>
<clipPath id="clip0_189_10838">
<rect width="98" height="84" fill="white"/>
</clipPath>
</defs>
</svg>
