<svg width="30" height="30" viewBox="0 0 30 30" fill="none" xmlns="http://www.w3.org/2000/svg">
<path fill-rule="evenodd" clip-rule="evenodd" d="M2.67383 8.00739C2.67383 7.68011 2.93914 7.41479 3.26642 7.41479H26.7331C27.0604 7.41479 27.3257 7.68011 27.3257 8.00739C27.3257 8.33467 27.0604 8.59998 26.7331 8.59998H3.26642C2.93914 8.59998 2.67383 8.33467 2.67383 8.00739Z" fill="white"/>
<path fill-rule="evenodd" clip-rule="evenodd" d="M2.67383 15.1185C2.67383 14.7912 2.93914 14.5259 3.26642 14.5259H21.5183C21.8456 14.5259 22.1109 14.7912 22.1109 15.1185C22.1109 15.4458 21.8456 15.7111 21.5183 15.7111H3.26642C2.93914 15.7111 2.67383 15.4458 2.67383 15.1185Z" fill="white"/>
<path fill-rule="evenodd" clip-rule="evenodd" d="M2.67383 22.2298C2.67383 21.9025 2.93914 21.6372 3.26642 21.6372H16.3035C16.6307 21.6372 16.8961 21.9025 16.8961 22.2298C16.8961 22.5571 16.6307 22.8224 16.3035 22.8224H3.26642C2.93914 22.8224 2.67383 22.5571 2.67383 22.2298Z" fill="white"/>
</svg>
