<svg width="30" height="29" viewBox="0 0 30 29" fill="none" xmlns="http://www.w3.org/2000/svg">
<path fill-rule="evenodd" clip-rule="evenodd" d="M2.67383 7.22956C2.67383 6.90228 2.93914 6.63696 3.26642 6.63696H26.7331C27.0604 6.63696 27.3257 6.90228 27.3257 7.22956C27.3257 7.55684 27.0604 7.82215 26.7331 7.82215H3.26642C2.93914 7.82215 2.67383 7.55684 2.67383 7.22956Z" fill="#323232"/>
<path fill-rule="evenodd" clip-rule="evenodd" d="M2.67383 14.3406C2.67383 14.0134 2.93914 13.748 3.26642 13.748H21.5183C21.8456 13.748 22.1109 14.0134 22.1109 14.3406C22.1109 14.6679 21.8456 14.9332 21.5183 14.9332H3.26642C2.93914 14.9332 2.67383 14.6679 2.67383 14.3406Z" fill="#323232"/>
<path fill-rule="evenodd" clip-rule="evenodd" d="M2.67383 21.452C2.67383 21.1247 2.93914 20.8594 3.26642 20.8594H16.3035C16.6307 20.8594 16.8961 21.1247 16.8961 21.452C16.8961 21.7792 16.6307 22.0446 16.3035 22.0446H3.26642C2.93914 22.0446 2.67383 21.7792 2.67383 21.452Z" fill="#323232"/>
</svg>
