<svg width="240" height="200" viewBox="0 0 240 200" fill="none" xmlns="http://www.w3.org/2000/svg">
<g filter="url(#filter0_d_221_22376)">
<rect x="30" y="30" width="180" height="140" rx="16" fill="white"/>
<path d="M130.971 60.5H109.029C108.139 60.499 107.304 60.9283 106.787 61.6523L98.5117 73.2387C98.1788 73.7053 98 74.2638 98 74.8367V101.75C98 103.269 99.2312 104.5 100.75 104.5H139.25C140.769 104.5 142 103.269 142 101.75V74.8367C142 74.2638 141.821 73.7053 141.489 73.239L133.213 61.6521C132.696 60.9283 131.861 60.499 130.971 60.5ZM109.026 62.3333H130.973C131.27 62.3333 131.548 62.4761 131.721 62.7174L139.996 74.3043C140.107 74.4594 140.167 74.6456 140.167 74.8367V101.75C140.167 102.256 139.756 102.667 139.25 102.667H100.75C100.244 102.667 99.8333 102.256 99.8333 101.75V74.8367C99.8333 74.6456 99.8929 74.4594 100.004 74.304L108.279 62.7176C108.452 62.4761 108.73 62.3333 109.026 62.3333Z" fill="#DC002E"/>
<path d="M120 60.5C120.45 60.5 120.824 60.8243 120.902 61.2519L120.917 61.4167V74.25C120.917 74.7563 120.506 75.1667 120 75.1667C119.55 75.1667 119.176 74.8424 119.098 74.4148L119.083 74.25V61.4167C119.083 60.9104 119.494 60.5 120 60.5Z" fill="#DC002E"/>
<path d="M135.585 91.6665H120.919C120.412 91.6665 120.002 92.0769 120.002 92.5832V98.0832C120.002 98.5894 120.412 98.9998 120.919 98.9998H135.585C136.092 98.9998 136.502 98.5894 136.502 98.0832V92.5832C136.502 92.0769 136.092 91.6665 135.585 91.6665ZM134.669 93.4998V97.1665H121.835V93.4998H134.669Z" fill="#DC002E"/>
<path d="M140.986 73.3335C141.492 73.3335 141.903 73.7439 141.903 74.2502C141.903 74.7002 141.579 75.0744 141.151 75.1521L140.986 75.1668H99.0138C98.5076 75.1668 98.0972 74.7564 98.0972 74.2502C98.0972 73.8002 98.4214 73.4259 98.8491 73.3483L99.0138 73.3335H140.986Z" fill="#DC002E"/>
<path d="M95.4958 137.5L94.8078 134.94H91.1438L90.4557 137.5H88.2637L91.7038 126.444H94.3118L97.7358 137.5H95.4958ZM91.5598 133.34H94.3758L92.9678 128.06L91.5598 133.34ZM109.448 137.5H107.384L107.096 132.876C107 131.223 106.952 129.911 106.952 128.94V128.364L104.936 136.3H102.936L100.792 128.348C100.813 129.052 100.824 129.585 100.824 129.948C100.824 130.919 100.792 131.916 100.728 132.94L100.456 137.5H98.4079L99.2879 126.444H102.008L103.976 134.188L105.832 126.444H108.584L109.448 137.5ZM116.908 131.644C117.665 131.783 118.273 132.055 118.732 132.46C119.201 132.865 119.436 133.484 119.436 134.316C119.436 135.468 119.03 136.289 118.22 136.78C117.409 137.26 116.273 137.5 114.812 137.5H111.484V126.444H114.38C117.43 126.444 118.956 127.383 118.956 129.26C118.956 129.911 118.758 130.444 118.364 130.86C117.969 131.265 117.484 131.527 116.908 131.644ZM113.596 127.996V130.988H114.891C115.478 130.988 115.942 130.86 116.284 130.604C116.625 130.337 116.796 129.948 116.796 129.436C116.796 128.903 116.614 128.529 116.252 128.316C115.9 128.103 115.345 127.996 114.588 127.996H113.596ZM114.828 135.916C115.606 135.916 116.198 135.799 116.604 135.564C117.02 135.329 117.228 134.887 117.228 134.236C117.228 133.607 117.03 133.153 116.636 132.876C116.252 132.599 115.724 132.46 115.052 132.46H113.596V135.916H114.828ZM127.074 137.5L126.386 134.94H122.722L122.034 137.5H119.842L123.282 126.444H125.89L129.314 137.5H127.074ZM123.138 133.34H125.954L124.546 128.06L123.138 133.34ZM132.658 126.444V135.772H137.09L136.85 137.5H130.546V126.444H132.658ZM144.496 137.5L143.808 134.94H140.144L139.456 137.5H137.264L140.704 126.444H143.312L146.736 137.5H144.496ZM140.56 133.34H143.376L141.968 128.06L140.56 133.34ZM150.432 135.884C150.432 137.068 150.149 137.959 149.584 138.556C149.029 139.164 148.229 139.639 147.184 139.98L146.624 138.46C147.093 138.279 147.445 138.071 147.68 137.836C147.925 137.612 148.091 137.345 148.176 137.036C148.261 136.716 148.304 136.305 148.304 135.804V126.444H150.432V135.884Z" fill="black"/>
</g>
<defs>
<filter id="filter0_d_221_22376" x="0" y="0" width="240" height="200" filterUnits="userSpaceOnUse" color-interpolation-filters="sRGB">
<feFlood flood-opacity="0" result="BackgroundImageFix"/>
<feColorMatrix in="SourceAlpha" type="matrix" values="0 0 0 0 0 0 0 0 0 0 0 0 0 0 0 0 0 0 127 0" result="hardAlpha"/>
<feOffset/>
<feGaussianBlur stdDeviation="15"/>
<feColorMatrix type="matrix" values="0 0 0 0 0 0 0 0 0 0 0 0 0 0 0 0 0 0 0.1 0"/>
<feBlend mode="normal" in2="BackgroundImageFix" result="effect1_dropShadow_221_22376"/>
<feBlend mode="normal" in="SourceGraphic" in2="effect1_dropShadow_221_22376" result="shape"/>
</filter>
</defs>
</svg>
