<svg width="240" height="200" viewBox="0 0 240 200" fill="none" xmlns="http://www.w3.org/2000/svg">
<g filter="url(#filter0_d_259_5825)">
<rect x="30" y="30" width="180" height="140" rx="16" fill="white"/>
<path fill-rule="evenodd" clip-rule="evenodd" d="M119.25 62.5H109.193C108.897 62.5 108.618 62.6428 108.446 62.8843L100.864 73.5H119.25V62.5ZM121.084 73.5H139.47L131.887 62.8841C131.715 62.6428 131.437 62.5 131.139 62.5H121.084V73.5ZM140.333 75.3333H100V101.917C100 102.423 100.41 102.833 100.917 102.833H139.417C139.923 102.833 140.333 102.423 140.333 101.917V75.3333ZM135.306 95H124.194C123.811 95 123.5 95.1959 123.5 95.4375V98.0625C123.5 98.3041 123.811 98.5 124.194 98.5H135.306C135.689 98.5 136 98.3041 136 98.0625V95.4375C136 95.1959 135.689 95 135.306 95Z" fill="#DC002E"/>
<path d="M95.4958 137.5L94.8078 134.94H91.1438L90.4557 137.5H88.2637L91.7038 126.444H94.3118L97.7358 137.5H95.4958ZM91.5598 133.34H94.3758L92.9678 128.06L91.5598 133.34ZM109.448 137.5H107.384L107.096 132.876C107 131.223 106.952 129.911 106.952 128.94V128.364L104.936 136.3H102.936L100.792 128.348C100.813 129.052 100.824 129.585 100.824 129.948C100.824 130.919 100.792 131.916 100.728 132.94L100.456 137.5H98.4079L99.2879 126.444H102.008L103.976 134.188L105.832 126.444H108.584L109.448 137.5ZM116.908 131.644C117.665 131.783 118.273 132.055 118.732 132.46C119.201 132.865 119.436 133.484 119.436 134.316C119.436 135.468 119.03 136.289 118.22 136.78C117.409 137.26 116.273 137.5 114.812 137.5H111.484V126.444H114.38C117.43 126.444 118.956 127.383 118.956 129.26C118.956 129.911 118.758 130.444 118.364 130.86C117.969 131.265 117.484 131.527 116.908 131.644ZM113.596 127.996V130.988H114.891C115.478 130.988 115.942 130.86 116.284 130.604C116.625 130.337 116.796 129.948 116.796 129.436C116.796 128.903 116.614 128.529 116.252 128.316C115.9 128.103 115.345 127.996 114.588 127.996H113.596ZM114.828 135.916C115.606 135.916 116.198 135.799 116.604 135.564C117.02 135.329 117.228 134.887 117.228 134.236C117.228 133.607 117.03 133.153 116.636 132.876C116.252 132.599 115.724 132.46 115.052 132.46H113.596V135.916H114.828ZM127.074 137.5L126.386 134.94H122.722L122.034 137.5H119.842L123.282 126.444H125.89L129.314 137.5H127.074ZM123.138 133.34H125.954L124.546 128.06L123.138 133.34ZM132.658 126.444V135.772H137.09L136.85 137.5H130.546V126.444H132.658ZM144.496 137.5L143.808 134.94H140.144L139.456 137.5H137.264L140.704 126.444H143.312L146.736 137.5H144.496ZM140.56 133.34H143.376L141.968 128.06L140.56 133.34ZM150.432 135.884C150.432 137.068 150.149 137.959 149.584 138.556C149.029 139.164 148.229 139.639 147.184 139.98L146.624 138.46C147.093 138.279 147.445 138.071 147.68 137.836C147.925 137.612 148.091 137.345 148.176 137.036C148.261 136.716 148.304 136.305 148.304 135.804V126.444H150.432V135.884Z" fill="#DC002E"/>
</g>
<defs>
<filter id="filter0_d_259_5825" x="0" y="0" width="240" height="200" filterUnits="userSpaceOnUse" color-interpolation-filters="sRGB">
<feFlood flood-opacity="0" result="BackgroundImageFix"/>
<feColorMatrix in="SourceAlpha" type="matrix" values="0 0 0 0 0 0 0 0 0 0 0 0 0 0 0 0 0 0 127 0" result="hardAlpha"/>
<feOffset/>
<feGaussianBlur stdDeviation="15"/>
<feColorMatrix type="matrix" values="0 0 0 0 0 0 0 0 0 0 0 0 0 0 0 0 0 0 0.1 0"/>
<feBlend mode="normal" in2="BackgroundImageFix" result="effect1_dropShadow_259_5825"/>
<feBlend mode="normal" in="SourceGraphic" in2="effect1_dropShadow_259_5825" result="shape"/>
</filter>
</defs>
</svg>
