<svg width="40" height="40" viewBox="0 0 40 40" fill="none" xmlns="http://www.w3.org/2000/svg">
<path fill-rule="evenodd" clip-rule="evenodd" d="M0.839844 2.50008C0.839844 2.03984 1.21294 1.66675 1.67318 1.66675H16.6732C17.1334 1.66675 17.5065 2.03984 17.5065 2.50008V7.50008C17.5065 7.96032 17.1334 8.33341 16.6732 8.33341H1.67318C1.21294 8.33341 0.839844 7.96032 0.839844 7.50008V2.50008ZM2.50651 3.33341V6.66675H15.8398V3.33341H2.50651Z" fill="white"/>
<path fill-rule="evenodd" clip-rule="evenodd" d="M4.17285 7.50008C4.17285 7.03984 4.54595 6.66675 5.00618 6.66675H20.0062C20.4664 6.66675 20.8395 7.03984 20.8395 7.50008V12.5001C20.8395 12.9603 20.4664 13.3334 20.0062 13.3334H5.00618C4.54595 13.3334 4.17285 12.9603 4.17285 12.5001V7.50008ZM5.83952 8.33341V11.6667H19.1728V8.33341H5.83952Z" fill="white"/>
<path fill-rule="evenodd" clip-rule="evenodd" d="M2.50684 12.5001C2.50684 12.0398 2.87993 11.6667 3.34017 11.6667H18.3402C18.8004 11.6667 19.1735 12.0398 19.1735 12.5001V17.5001C19.1735 17.9603 18.8004 18.3334 18.3402 18.3334H3.34017C2.87993 18.3334 2.50684 17.9603 2.50684 17.5001V12.5001ZM4.1735 13.3334V16.6667H17.5068V13.3334H4.1735Z" fill="white"/>
<path fill-rule="evenodd" clip-rule="evenodd" d="M0.839844 17.5001C0.839844 17.0398 1.21294 16.6667 1.67318 16.6667H16.6732C17.1334 16.6667 17.5065 17.0398 17.5065 17.5001V22.5001C17.5065 22.9603 17.1334 23.3334 16.6732 23.3334H1.67318C1.21294 23.3334 0.839844 22.9603 0.839844 22.5001V17.5001ZM2.50651 18.3334V21.6667H15.8398V18.3334H2.50651Z" fill="white"/>
<path fill-rule="evenodd" clip-rule="evenodd" d="M2.50684 22.5001C2.50684 22.0398 2.87993 21.6667 3.34017 21.6667H18.3402C18.8004 21.6667 19.1735 22.0398 19.1735 22.5001V27.5001C19.1735 27.9603 18.8004 28.3334 18.3402 28.3334H3.34017C2.87993 28.3334 2.50684 27.9603 2.50684 27.5001V22.5001ZM4.1735 23.3334V26.6667H17.5068V23.3334H4.1735Z" fill="white"/>
<path fill-rule="evenodd" clip-rule="evenodd" d="M0.839844 27.5001C0.839844 27.0398 1.21294 26.6667 1.67318 26.6667H16.6732C17.1334 26.6667 17.5065 27.0398 17.5065 27.5001V32.5001C17.5065 32.9603 17.1334 33.3334 16.6732 33.3334H1.67318C1.21294 33.3334 0.839844 32.9603 0.839844 32.5001V27.5001ZM2.50651 28.3334V31.6667H15.8398V28.3334H2.50651Z" fill="white"/>
<path fill-rule="evenodd" clip-rule="evenodd" d="M2.50684 32.5001C2.50684 32.0398 2.87993 31.6667 3.34017 31.6667H18.3402C18.8004 31.6667 19.1735 32.0398 19.1735 32.5001V37.5001C19.1735 37.9603 18.8004 38.3334 18.3402 38.3334H3.34017C2.87993 38.3334 2.50684 37.9603 2.50684 37.5001V32.5001ZM4.1735 33.3334V36.6667H17.5068V33.3334H4.1735Z" fill="white"/>
<path fill-rule="evenodd" clip-rule="evenodd" d="M20.8398 22.5001C20.8398 22.0398 21.2129 21.6667 21.6732 21.6667H36.6732C37.1334 21.6667 37.5065 22.0398 37.5065 22.5001V27.5001C37.5065 27.9603 37.1334 28.3334 36.6732 28.3334H21.6732C21.2129 28.3334 20.8398 27.9603 20.8398 27.5001V22.5001ZM22.5065 23.3334V26.6667H35.8398V23.3334H22.5065Z" fill="white"/>
<path fill-rule="evenodd" clip-rule="evenodd" d="M22.5068 27.5001C22.5068 27.0398 22.8799 26.6667 23.3402 26.6667H38.3402C38.8004 26.6667 39.1735 27.0398 39.1735 27.5001V32.5001C39.1735 32.9603 38.8004 33.3334 38.3402 33.3334H23.3402C22.8799 33.3334 22.5068 32.9603 22.5068 32.5001V27.5001ZM24.1735 28.3334V31.6667H37.5068V28.3334H24.1735Z" fill="white"/>
<path fill-rule="evenodd" clip-rule="evenodd" d="M20.8398 32.5001C20.8398 32.0398 21.2129 31.6667 21.6732 31.6667H36.6732C37.1334 31.6667 37.5065 32.0398 37.5065 32.5001V37.5001C37.5065 37.9603 37.1334 38.3334 36.6732 38.3334H21.6732C21.2129 38.3334 20.8398 37.9603 20.8398 37.5001V32.5001ZM22.5065 33.3334V36.6667H35.8398V33.3334H22.5065Z" fill="white"/>
</svg>
