<svg width="40" height="40" viewBox="0 0 40 40" fill="none" xmlns="http://www.w3.org/2000/svg">
<path d="M10.3998 3.37236C4.4593 6.80211 0.799805 13.1405 0.799805 20C0.799805 26.8595 4.4593 33.198 10.3998 36.6277C16.3403 40.0575 23.6593 40.0575 29.5998 36.6277C35.5403 33.198 39.1998 26.8595 39.1998 20C39.1998 13.1405 35.5403 6.80211 29.5998 3.37236C23.6593 -0.0573887 16.3403 -0.0573887 10.3998 3.37236ZM28.7998 4.758C34.2453 7.90194 37.5998 13.7122 37.5998 20C37.5998 26.2879 34.2453 32.0982 28.7998 35.2421C23.3543 38.386 16.6453 38.386 11.1998 35.2421C5.75435 32.0982 2.3998 26.2879 2.3998 20C2.3998 13.7122 5.75435 7.90194 11.1998 4.758C16.6453 1.61406 23.3543 1.61406 28.7998 4.758Z" fill="white"/>
<path d="M11.6102 16C12.9814 15.9994 14.301 16.5017 15.3224 17.405L15.5715 17.6391L17.365 19.4326C19.3846 21.4517 19.5513 24.6499 17.8013 26.8631L17.5908 27.114L15.41 29.5668C14.8314 30.2175 14.483 31.037 14.4126 31.899L14.3994 32.224V37.256C14.3994 37.6978 14.0412 38.056 13.5994 38.056C13.2066 38.056 12.88 37.773 12.8123 37.3998L12.7994 37.256V32.2239C12.7995 30.9771 13.2156 29.7697 13.976 28.7904L14.2143 28.5036L16.3951 26.0508C17.7387 24.5397 17.7353 22.2788 16.4291 20.7738L16.2337 20.5641L14.4403 18.7707C13.7648 18.0956 12.8729 17.687 11.9275 17.6124L11.6106 17.6H1.87617C1.43434 17.6 1.07617 17.2418 1.07617 16.8C1.07617 16.4073 1.35917 16.0806 1.73237 16.0129L1.87617 16H11.6102Z" fill="white"/>
<path d="M33.2171 6.40015C33.6589 6.40015 34.0171 6.75832 34.0171 7.20015C34.0171 7.59288 33.7341 7.91952 33.3609 7.98726L33.2171 8.00015H23.9371C22.3907 8.00015 21.1371 9.25375 21.1371 10.8001C21.1371 12.2692 22.2685 13.4741 23.7075 13.5909L23.9371 13.6001H24.6271C26.3846 13.5975 28.0339 14.4195 29.0908 15.8075L29.2941 16.0926L32.8428 21.4188C33.5325 22.4536 34.6607 23.104 35.8914 23.1903L36.1771 23.2001H37.9707C38.4125 23.2001 38.7707 23.5583 38.7707 24.0001C38.7707 24.3929 38.4877 24.7195 38.1145 24.7873L37.9707 24.8001H36.1781C34.4203 24.8024 32.7709 23.9797 31.7146 22.5913L31.5113 22.3061L27.9628 16.9801C27.2728 15.9459 26.1446 15.2959 24.914 15.2099L24.6283 15.2001H23.9371C21.5071 15.2001 19.5371 13.2302 19.5371 10.8001C19.5371 8.4601 21.3638 6.5467 23.6691 6.40818L23.9371 6.40015H33.2171Z" fill="white"/>
</svg>
