<svg width="240" height="200" viewBox="0 0 240 200" fill="none" xmlns="http://www.w3.org/2000/svg">
<g filter="url(#filter0_d_221_22510)">
<rect x="30" y="30" width="180" height="140" rx="16" fill="white"/>
<g clip-path="url(#clip0_221_22510)">
<path fill-rule="evenodd" clip-rule="evenodd" d="M119.293 60.7929C119.48 60.6054 119.735 60.5 120 60.5H136C136.265 60.5 136.52 60.6054 136.707 60.7929C136.895 60.9804 137 61.2348 137 61.5V104.5H135V100.5C135 99.9696 134.789 99.4609 134.414 99.0858C134.039 98.7107 133.53 98.5 133 98.5H129C128.47 98.5 127.961 98.7107 127.586 99.0858C127.211 99.4609 127 99.9696 127 100.5V104.5H123V77.5C123 76.7043 122.684 75.9413 122.121 75.3787C121.559 74.8161 120.796 74.5 120 74.5H119V72.5H126C126.552 72.5 127 72.0523 127 71.5C127 70.9477 126.552 70.5 126 70.5H119V66.5H130C130.552 66.5 131 66.0523 131 65.5C131 64.9477 130.552 64.5 130 64.5H119V61.5C119 61.2348 119.105 60.9804 119.293 60.7929ZM117 61.5V65.5V71.5V74.5H104C103.204 74.5 102.441 74.8161 101.879 75.3787C101.316 75.9413 101 76.7043 101 77.5V81.5V87.5V104.5C101 105.03 101.211 105.539 101.586 105.914C101.961 106.289 102.47 106.5 103 106.5H106H112H122H128H134H137C137.53 106.5 138.039 106.289 138.414 105.914C138.789 105.539 139 105.03 139 104.5V61.5C139 60.7044 138.684 59.9413 138.121 59.3787C137.559 58.8161 136.796 58.5 136 58.5H120C119.204 58.5 118.441 58.8161 117.879 59.3787C117.316 59.9413 117 60.7043 117 61.5ZM103 88.5H106C106.552 88.5 107 88.0523 107 87.5C107 86.9477 106.552 86.5 106 86.5H103V82.5H110C110.552 82.5 111 82.0523 111 81.5C111 80.9477 110.552 80.5 110 80.5H103V77.5C103 77.2348 103.105 76.9804 103.293 76.7929C103.48 76.6054 103.735 76.5 104 76.5H118H120C120.265 76.5 120.52 76.6054 120.707 76.7929C120.895 76.9804 121 77.2348 121 77.5V104.5H113V100.5C113 99.9696 112.789 99.4609 112.414 99.0858C112.039 98.7107 111.53 98.5 111 98.5H107C106.47 98.5 105.961 98.7107 105.586 99.0858C105.211 99.4609 105 99.9696 105 100.5V104.5H103V88.5ZM133 100.5V104.5H129V100.5H133ZM111 104.5V100.5H107V104.5H111Z" fill="#DC002E"/>
</g>
<path d="M103.595 126.444L103.371 128.012H99.2908V131.1H102.843V132.668H99.2908V135.916H103.659V137.5H97.1788V126.444H103.595ZM116.143 137.5H114.079L113.791 132.876C113.695 131.223 113.647 129.911 113.647 128.94V128.364L111.631 136.3H109.631L107.487 128.348C107.509 129.052 107.519 129.585 107.519 129.948C107.519 130.919 107.487 131.916 107.423 132.94L107.151 137.5H105.103L105.983 126.444H108.703L110.671 134.188L112.527 126.444H115.279L116.143 137.5ZM120.291 126.444V135.772H124.723L124.483 137.5H118.179V126.444H120.291ZM132.129 137.5L131.441 134.94H127.777L127.089 137.5H124.897L128.337 126.444H130.945L134.369 137.5H132.129ZM128.193 133.34H131.009L129.601 128.06L128.193 133.34ZM137.713 126.444V137.5H135.601V126.444H137.713ZM143.921 126.444L140.097 131.452L144.225 137.5H141.713L137.809 131.596L141.633 126.444H143.921Z" fill="black"/>
</g>
<defs>
<filter id="filter0_d_221_22510" x="0" y="0" width="240" height="200" filterUnits="userSpaceOnUse" color-interpolation-filters="sRGB">
<feFlood flood-opacity="0" result="BackgroundImageFix"/>
<feColorMatrix in="SourceAlpha" type="matrix" values="0 0 0 0 0 0 0 0 0 0 0 0 0 0 0 0 0 0 127 0" result="hardAlpha"/>
<feOffset/>
<feGaussianBlur stdDeviation="15"/>
<feColorMatrix type="matrix" values="0 0 0 0 0 0 0 0 0 0 0 0 0 0 0 0 0 0 0.1 0"/>
<feBlend mode="normal" in2="BackgroundImageFix" result="effect1_dropShadow_221_22510"/>
<feBlend mode="normal" in="SourceGraphic" in2="effect1_dropShadow_221_22510" result="shape"/>
</filter>
<clipPath id="clip0_221_22510">
<rect width="48" height="48" fill="white" transform="translate(96 58.5)"/>
</clipPath>
</defs>
</svg>
