<svg width="240" height="200" viewBox="0 0 240 200" fill="none" xmlns="http://www.w3.org/2000/svg">
<g filter="url(#filter0_d_259_6067)">
<rect x="30" y="30" width="180" height="140" rx="16" fill="white"/>
<g clip-path="url(#clip0_259_6067)">
<path d="M137 58.5H121C120.308 58.4999 119.638 58.7387 119.102 59.176C118.567 59.6134 118.198 60.2224 118.06 60.9C118.046 60.9726 118.047 61.0475 118.065 61.1194C118.083 61.1912 118.117 61.2582 118.164 61.3155C118.21 61.3729 118.269 61.4192 118.336 61.451C118.403 61.4829 118.476 61.4997 118.55 61.5H131C131.398 61.5 131.779 61.658 132.061 61.9393C132.342 62.2206 132.5 62.6022 132.5 63C132.5 63.3978 132.342 63.7794 132.061 64.0607C131.779 64.342 131.398 64.5 131 64.5H118.5C118.367 64.5 118.24 64.5527 118.146 64.6464C118.053 64.7402 118 64.8674 118 65V67C118 67.1326 118.053 67.2598 118.146 67.3536C118.24 67.4473 118.367 67.5 118.5 67.5H127C127.398 67.5 127.779 67.658 128.061 67.9393C128.342 68.2206 128.5 68.6022 128.5 69C128.5 69.3978 128.342 69.7794 128.061 70.0607C127.779 70.342 127.398 70.5 127 70.5H118.5C118.367 70.5 118.24 70.5527 118.146 70.6464C118.053 70.7402 118 70.8674 118 71V73C118 73.1326 118.053 73.2598 118.146 73.3536C118.24 73.4473 118.367 73.5 118.5 73.5H119C120.591 73.5 122.117 74.1321 123.243 75.2574C124.368 76.3826 125 77.9087 125 79.5V105.936C124.991 106.007 124.997 106.079 125.018 106.147C125.039 106.215 125.074 106.278 125.122 106.332C125.169 106.385 125.227 106.428 125.293 106.457C125.358 106.486 125.429 106.501 125.5 106.5H127.5C127.633 106.5 127.76 106.447 127.854 106.354C127.947 106.26 128 106.133 128 106V100.5C128 99.9696 128.211 99.4609 128.586 99.0858C128.961 98.7107 129.47 98.5 130 98.5H134C134.53 98.5 135.039 98.7107 135.414 99.0858C135.789 99.4609 136 99.9696 136 100.5V106C136 106.133 136.053 106.26 136.146 106.354C136.24 106.447 136.367 106.5 136.5 106.5H138C138.53 106.5 139.039 106.289 139.414 105.914C139.789 105.539 140 105.03 140 104.5V61.5C140 60.7044 139.684 59.9413 139.121 59.3787C138.559 58.8161 137.796 58.5 137 58.5V58.5Z" fill="#DC002E"/>
<path d="M119 76.5H103C102.204 76.5 101.441 76.8161 100.879 77.3787C100.316 77.9413 100 78.7044 100 79.5V80C100 80.1326 100.053 80.2598 100.146 80.3536C100.24 80.4473 100.367 80.5 100.5 80.5H109C109.398 80.5 109.779 80.658 110.061 80.9393C110.342 81.2206 110.5 81.6022 110.5 82C110.5 82.3978 110.342 82.7794 110.061 83.0607C109.779 83.342 109.398 83.5 109 83.5H100.5C100.367 83.5 100.24 83.5527 100.146 83.6464C100.053 83.7402 100 83.8674 100 84V87C100 87.1326 100.053 87.2598 100.146 87.3536C100.24 87.4473 100.367 87.5 100.5 87.5H105C105.398 87.5 105.779 87.658 106.061 87.9393C106.342 88.2206 106.5 88.6022 106.5 89C106.5 89.3978 106.342 89.7794 106.061 90.0607C105.779 90.342 105.398 90.5 105 90.5H100.5C100.367 90.5 100.24 90.5527 100.146 90.6464C100.053 90.7402 100 90.8674 100 91V104.5C100 105.03 100.211 105.539 100.586 105.914C100.961 106.289 101.47 106.5 102 106.5H103.5C103.633 106.5 103.76 106.447 103.854 106.354C103.947 106.26 104 106.133 104 106V100.5C104 99.9696 104.211 99.4609 104.586 99.0858C104.961 98.7107 105.47 98.5 106 98.5H110C110.53 98.5 111.039 98.7107 111.414 99.0858C111.789 99.4609 112 99.9696 112 100.5V106C112 106.133 112.053 106.26 112.146 106.354C112.24 106.447 112.367 106.5 112.5 106.5H121C121.265 106.5 121.52 106.395 121.707 106.207C121.895 106.02 122 105.765 122 105.5V79.5C122 78.7044 121.684 77.9413 121.121 77.3787C120.559 76.8161 119.796 76.5 119 76.5Z" fill="#DC002E"/>
</g>
<path d="M103.595 126.444L103.371 128.012H99.2908V131.1H102.843V132.668H99.2908V135.916H103.659V137.5H97.1788V126.444H103.595ZM116.143 137.5H114.079L113.791 132.876C113.695 131.223 113.647 129.911 113.647 128.94V128.364L111.631 136.3H109.631L107.487 128.348C107.509 129.052 107.519 129.585 107.519 129.948C107.519 130.919 107.487 131.916 107.423 132.94L107.151 137.5H105.103L105.983 126.444H108.703L110.671 134.188L112.527 126.444H115.279L116.143 137.5ZM120.291 126.444V135.772H124.723L124.483 137.5H118.179V126.444H120.291ZM132.129 137.5L131.441 134.94H127.777L127.089 137.5H124.897L128.337 126.444H130.945L134.369 137.5H132.129ZM128.193 133.34H131.009L129.601 128.06L128.193 133.34ZM137.713 126.444V137.5H135.601V126.444H137.713ZM143.921 126.444L140.097 131.452L144.225 137.5H141.713L137.809 131.596L141.633 126.444H143.921Z" fill="#DC002E"/>
</g>
<defs>
<filter id="filter0_d_259_6067" x="0" y="0" width="240" height="200" filterUnits="userSpaceOnUse" color-interpolation-filters="sRGB">
<feFlood flood-opacity="0" result="BackgroundImageFix"/>
<feColorMatrix in="SourceAlpha" type="matrix" values="0 0 0 0 0 0 0 0 0 0 0 0 0 0 0 0 0 0 127 0" result="hardAlpha"/>
<feOffset/>
<feGaussianBlur stdDeviation="15"/>
<feColorMatrix type="matrix" values="0 0 0 0 0 0 0 0 0 0 0 0 0 0 0 0 0 0 0.1 0"/>
<feBlend mode="normal" in2="BackgroundImageFix" result="effect1_dropShadow_259_6067"/>
<feBlend mode="normal" in="SourceGraphic" in2="effect1_dropShadow_259_6067" result="shape"/>
</filter>
<clipPath id="clip0_259_6067">
<rect width="48" height="48" fill="white" transform="translate(96 58.5)"/>
</clipPath>
</defs>
</svg>
