<svg width="240" height="200" viewBox="0 0 240 200" fill="none" xmlns="http://www.w3.org/2000/svg">
<g filter="url(#filter0_d_259_5805)">
<rect x="30" y="30" width="180" height="140" rx="16" fill="white"/>
<path fill-rule="evenodd" clip-rule="evenodd" d="M109.439 66.2987C110.734 62.4435 114.335 59.6949 118.55 59.5099L119.004 59.5C123.413 59.5 127.228 62.3063 128.567 66.2992L128.598 66.4L128.786 66.3356C132.759 65.0351 137.197 66.2483 139.895 69.6268L140.188 70.0111C142.388 73.0469 142.6 77.2498 140.739 80.5318C139.411 82.8735 137.354 84.4282 134.878 85.1416L134.678 85.192L134.67 92.5H103.318L103.326 85.202L103.135 85.1535C100.839 84.4877 98.8935 83.0908 97.5599 81.0226L97.2836 80.5692C95.4023 77.3016 95.6023 73.0894 97.7957 70.0431C100.453 66.3514 105.086 64.9833 109.216 66.3344L109.406 66.4L109.439 66.2987ZM103.316 94.5L103.31 99.6051C103.304 102.859 105.943 105.5 109.199 105.5L128.774 105.495L129.12 105.485C132.21 105.306 134.66 102.746 134.663 99.612L134.668 94.5H103.316Z" fill="#DC002E"/>
<path d="M108.533 126.204C109.259 126.204 109.899 126.316 110.453 126.54C111.019 126.753 111.552 127.073 112.053 127.5L110.917 128.684C110.523 128.375 110.149 128.151 109.797 128.012C109.456 127.873 109.056 127.804 108.597 127.804C107.744 127.804 107.045 128.145 106.501 128.828C105.957 129.511 105.685 130.556 105.685 131.964C105.685 133.436 105.899 134.497 106.325 135.148C106.763 135.799 107.424 136.124 108.309 136.124C108.981 136.124 109.568 135.98 110.069 135.692V132.812H108.405L108.181 131.244H112.149V136.652C110.955 137.377 109.685 137.74 108.341 137.74C106.763 137.74 105.552 137.249 104.709 136.268C103.877 135.287 103.461 133.852 103.461 131.964C103.461 130.759 103.685 129.724 104.133 128.86C104.592 127.985 105.205 127.324 105.973 126.876C106.741 126.428 107.595 126.204 108.533 126.204ZM116.385 126.444V137.5H114.273V126.444H116.385ZM121.696 126.444C123.413 126.444 124.784 126.833 125.808 127.612C126.842 128.391 127.36 129.825 127.36 131.916C127.36 133.964 126.853 135.409 125.84 136.252C124.826 137.084 123.541 137.5 121.984 137.5H118.976V126.444H121.696ZM121.088 128.028V135.916H122.128C123.066 135.916 123.802 135.628 124.336 135.052C124.869 134.465 125.136 133.42 125.136 131.916C125.136 130.871 124.997 130.065 124.72 129.5C124.453 128.924 124.096 128.535 123.648 128.332C123.21 128.129 122.682 128.028 122.064 128.028H121.088ZM135.05 137.5L134.362 134.94H130.698L130.01 137.5H127.818L131.258 126.444H133.866L137.29 137.5H135.05ZM131.114 133.34H133.93L132.522 128.06L131.114 133.34Z" fill="#DC002E"/>
</g>
<defs>
<filter id="filter0_d_259_5805" x="0" y="0" width="240" height="200" filterUnits="userSpaceOnUse" color-interpolation-filters="sRGB">
<feFlood flood-opacity="0" result="BackgroundImageFix"/>
<feColorMatrix in="SourceAlpha" type="matrix" values="0 0 0 0 0 0 0 0 0 0 0 0 0 0 0 0 0 0 127 0" result="hardAlpha"/>
<feOffset/>
<feGaussianBlur stdDeviation="15"/>
<feColorMatrix type="matrix" values="0 0 0 0 0 0 0 0 0 0 0 0 0 0 0 0 0 0 0.1 0"/>
<feBlend mode="normal" in2="BackgroundImageFix" result="effect1_dropShadow_259_5805"/>
<feBlend mode="normal" in="SourceGraphic" in2="effect1_dropShadow_259_5805" result="shape"/>
</filter>
</defs>
</svg>
