<svg width="240" height="200" viewBox="0 0 240 200" fill="none" xmlns="http://www.w3.org/2000/svg">
<g filter="url(#filter0_d_221_22314)">
<rect x="30" y="30" width="180" height="140" rx="16" fill="white"/>
<path d="M134.67 92.5C135.222 92.5 135.67 92.9477 135.67 93.5C135.67 93.9909 135.316 94.3992 134.85 94.4839L134.67 94.5H105.337C104.785 94.5 104.337 94.0523 104.337 93.5C104.337 93.0091 104.691 92.6008 105.157 92.5161L105.337 92.5H134.67Z" fill="#DC002E"/>
<path d="M119.55 59.5099C115.335 59.6949 111.734 62.4435 110.439 66.2987L110.406 66.4L110.216 66.3344C106.086 64.9833 101.453 66.3514 98.7957 70.0431C96.6023 73.0894 96.4023 77.3016 98.2836 80.5692L98.5599 81.0226C99.8935 83.0908 101.839 84.4877 104.135 85.1535L104.326 85.202L104.31 99.6051C104.304 102.859 106.943 105.5 110.199 105.5L129.774 105.495L130.12 105.485C133.21 105.306 135.66 102.746 135.663 99.612L135.678 85.192L135.878 85.1416C138.354 84.4282 140.411 82.8735 141.739 80.5318C143.6 77.2498 143.388 73.0469 141.188 70.0111L140.895 69.6268C138.197 66.2483 133.759 65.0351 129.786 66.3356L129.598 66.4L129.567 66.2992C128.228 62.3063 124.413 59.5 120.004 59.5L119.55 59.5099ZM120.004 61.5C123.91 61.5 127.226 64.2362 127.936 67.9502C128.06 68.5964 128.763 68.9493 129.355 68.6622C132.909 66.9384 137.202 67.922 139.568 71.1851C141.307 73.583 141.476 76.9412 139.999 79.5451C138.795 81.6684 136.862 82.9692 134.494 83.4167C134.022 83.5059 133.681 83.918 133.68 84.3982L133.663 99.61C133.661 101.757 131.921 103.495 129.774 103.495L110.199 103.5C108.048 103.5 106.306 101.756 106.31 99.608L106.327 84.4127C106.328 83.9322 105.987 83.5192 105.514 83.4292C103.166 82.9817 101.228 81.677 100.017 79.5715C98.5264 76.9825 98.6862 73.618 100.419 71.2117C102.783 67.9279 107.088 66.9334 110.65 68.6621C111.241 68.9493 111.945 68.5968 112.068 67.9507C112.781 64.236 116.098 61.5 120.004 61.5Z" fill="#DC002E"/>
<path d="M108.533 126.204C109.259 126.204 109.899 126.316 110.453 126.54C111.019 126.753 111.552 127.073 112.053 127.5L110.917 128.684C110.523 128.375 110.149 128.151 109.797 128.012C109.456 127.873 109.056 127.804 108.597 127.804C107.744 127.804 107.045 128.145 106.501 128.828C105.957 129.511 105.685 130.556 105.685 131.964C105.685 133.436 105.899 134.497 106.325 135.148C106.763 135.799 107.424 136.124 108.309 136.124C108.981 136.124 109.568 135.98 110.069 135.692V132.812H108.405L108.181 131.244H112.149V136.652C110.955 137.377 109.685 137.74 108.341 137.74C106.763 137.74 105.552 137.249 104.709 136.268C103.877 135.287 103.461 133.852 103.461 131.964C103.461 130.759 103.685 129.724 104.133 128.86C104.592 127.985 105.205 127.324 105.973 126.876C106.741 126.428 107.595 126.204 108.533 126.204ZM116.385 126.444V137.5H114.273V126.444H116.385ZM121.696 126.444C123.413 126.444 124.784 126.833 125.808 127.612C126.842 128.391 127.36 129.825 127.36 131.916C127.36 133.964 126.853 135.409 125.84 136.252C124.826 137.084 123.541 137.5 121.984 137.5H118.976V126.444H121.696ZM121.088 128.028V135.916H122.128C123.066 135.916 123.802 135.628 124.336 135.052C124.869 134.465 125.136 133.42 125.136 131.916C125.136 130.871 124.997 130.065 124.72 129.5C124.453 128.924 124.096 128.535 123.648 128.332C123.21 128.129 122.682 128.028 122.064 128.028H121.088ZM135.05 137.5L134.362 134.94H130.698L130.01 137.5H127.818L131.258 126.444H133.866L137.29 137.5H135.05ZM131.114 133.34H133.93L132.522 128.06L131.114 133.34Z" fill="black"/>
</g>
<defs>
<filter id="filter0_d_221_22314" x="0" y="0" width="240" height="200" filterUnits="userSpaceOnUse" color-interpolation-filters="sRGB">
<feFlood flood-opacity="0" result="BackgroundImageFix"/>
<feColorMatrix in="SourceAlpha" type="matrix" values="0 0 0 0 0 0 0 0 0 0 0 0 0 0 0 0 0 0 127 0" result="hardAlpha"/>
<feOffset/>
<feGaussianBlur stdDeviation="15"/>
<feColorMatrix type="matrix" values="0 0 0 0 0 0 0 0 0 0 0 0 0 0 0 0 0 0 0.1 0"/>
<feBlend mode="normal" in2="BackgroundImageFix" result="effect1_dropShadow_221_22314"/>
<feBlend mode="normal" in="SourceGraphic" in2="effect1_dropShadow_221_22314" result="shape"/>
</filter>
</defs>
</svg>
