<svg width="448" height="421" viewBox="0 0 448 421" fill="none" xmlns="http://www.w3.org/2000/svg">
<path d="M102.573 0.285156L416.938 0.285156C432.497 0.285156 443.943 14.8607 440.254 29.9753L345 420.285H30.5667C15.0069 420.285 3.56037 405.707 7.25192 390.591L102.573 0.285156Z" fill="#DC002E"/>
<g clip-path="url(#clip0_2610_560)">
<path d="M177.401 91.4852C180.734 88.9853 185.193 88.5832 188.92 90.4465C192.503 92.2382 194.817 95.8286 194.99 99.8061L195.001 100.285V107.285C195.001 107.776 194.647 108.184 194.18 108.269L194.001 108.285H189.921L188.997 119.368C188.959 119.829 188.612 120.195 188.17 120.271L188.001 120.285H180.001C179.538 120.285 179.144 119.97 179.032 119.536L179.004 119.368L178.548 113.886C178.502 113.336 178.911 112.852 179.462 112.807C179.951 112.766 180.387 113.085 180.51 113.543L180.541 113.72L180.921 118.285H187.079L188.004 107.202C188.042 106.741 188.389 106.375 188.831 106.3L189.001 106.285H193.001V100.285C193.001 97.0245 191.238 94.0314 188.417 92.4431L188.025 92.2354C184.976 90.7108 181.328 91.0399 178.601 93.0852C178.159 93.4166 177.532 93.327 177.201 92.8852C176.869 92.4434 176.959 91.8166 177.401 91.4852Z" fill="white"/>
<path d="M166.001 89.2852C162.021 89.2875 158.563 92.0189 157.64 95.8891L154.036 109.021L154.006 109.179C153.943 109.757 154.396 110.285 155.001 110.285H160.059L162 119.491C162.098 119.954 162.506 120.285 162.979 120.285H168.979L169.152 120.27C169.549 120.2 169.872 119.896 169.957 119.491L171.897 110.285H177.001C177.661 110.285 178.14 109.657 177.965 109.021L174.355 95.8567C173.44 92.018 169.981 89.2864 166.001 89.2852ZM166.001 91.2852L166.38 91.2961C169.147 91.4551 171.523 93.3321 172.319 95.9866L175.689 108.285H171.087L170.913 108.3C170.517 108.37 170.193 108.674 170.108 109.079L168.165 118.285H163.791L161.849 109.079L161.798 108.912C161.648 108.539 161.284 108.285 160.871 108.285H156.311L159.577 96.3858C160.264 93.5082 162.73 91.4632 165.622 91.2962L166.001 91.2852Z" fill="white"/>
<path d="M177.274 76.0113C177.672 75.628 178.305 75.6395 178.688 76.0371C180.69 78.1132 183.45 79.2858 186.335 79.2852C187.781 79.2855 189.211 78.9913 190.54 78.4204C191.047 78.2024 191.635 78.437 191.853 78.9444C192.071 79.4518 191.837 80.0399 191.329 80.258C189.751 80.9361 188.052 81.2856 186.335 81.2852C182.907 81.2859 179.627 79.8925 177.249 77.4253C176.865 77.0277 176.877 76.3947 177.274 76.0113Z" fill="white"/>
<path d="M180 73.357C177.525 74.786 176 77.427 176 80.2852C176 83.1433 177.525 85.7843 180 87.2134C182.476 88.6424 185.525 88.6424 188 87.2134C190.476 85.7843 192 83.1433 192 80.2852C192 77.427 190.476 74.786 188 73.357C185.663 72.0073 182.813 71.9323 180.418 73.132L180 73.357ZM187 75.089C188.857 76.1608 190 78.1416 190 80.2852C190 82.4288 188.857 84.4095 187 85.4813C185.144 86.5531 182.857 86.5531 181 85.4813C179.144 84.4095 178 82.4288 178 80.2852C178 78.1416 179.144 76.1608 181 75.089C182.857 74.0172 185.144 74.0172 187 75.089Z" fill="white"/>
<path d="M165.245 77.5844C165.644 77.1242 166.358 77.1242 166.756 77.5844C168.307 79.3738 170.55 80.4131 172.918 80.4393C173.47 80.4454 173.913 80.8981 173.907 81.4503C173.9 82.0026 173.448 82.4453 172.895 82.4392C170.474 82.4124 168.158 81.5324 166.341 79.9817L165.999 79.6733L165.66 79.9817C163.973 81.4217 161.855 82.2833 159.623 82.4205L159.106 82.4392C158.553 82.4453 158.101 82.0026 158.095 81.4503C158.088 80.8981 158.531 80.4454 159.083 80.4393C161.451 80.4131 163.694 79.3738 165.245 77.5844Z" fill="white"/>
<path d="M166 72.2852C161.582 72.2852 158 75.8669 158 80.2852C158 84.7034 161.582 88.2852 166 88.2852C170.419 88.2852 174 84.7034 174 80.2852C174 75.8669 170.419 72.2852 166 72.2852ZM166 74.2852C169.314 74.2852 172 76.9714 172 80.2852C172 83.5989 169.314 86.2852 166 86.2852C162.687 86.2852 160 83.5989 160 80.2852C160 76.9714 162.687 74.2852 166 74.2852Z" fill="white"/>
</g>
<path d="M226.64 117.245L225.872 116.269C225.248 116.733 224.576 117.197 223.536 117.197C221.824 117.197 220.496 115.949 220.496 112.765C220.496 109.437 221.888 108.317 223.552 108.317C224.32 108.317 224.992 108.573 225.68 109.133L226.512 108.157C225.632 107.453 224.848 107.069 223.456 107.069C220.96 107.069 218.88 109.037 218.88 112.765C218.88 116.253 220.592 118.237 223.024 118.461L222.848 119.869C223.872 119.869 224.272 120.109 224.272 120.541C224.272 121.005 223.92 121.181 223.472 121.181C223.056 121.181 222.768 121.085 222.464 120.925L222.064 121.757C222.384 121.997 222.912 122.141 223.52 122.141C224.608 122.141 225.504 121.597 225.504 120.541C225.504 119.885 225.104 119.277 224.016 119.181V118.445C225.232 118.333 226.128 117.789 226.64 117.245ZM234.153 116.317V112.461C234.153 110.701 233.225 109.661 231.193 109.661C230.249 109.661 229.321 109.853 228.281 110.237L228.649 111.309C229.513 111.021 230.297 110.861 230.921 110.861C232.089 110.861 232.681 111.309 232.681 112.525V113.149H231.385C229.033 113.149 227.673 114.125 227.673 115.933C227.673 117.437 228.681 118.477 230.361 118.477C231.385 118.477 232.281 118.093 232.873 117.213C233.129 118.045 233.673 118.381 234.521 118.477L234.857 117.453C234.425 117.293 234.153 117.053 234.153 116.317ZM230.697 117.373C229.737 117.373 229.241 116.845 229.241 115.853C229.241 114.701 230.025 114.125 231.577 114.125H232.681V116.061C232.201 116.941 231.561 117.373 230.697 117.373ZM238.568 116.589V106.285L237.096 106.461V116.621C237.096 117.837 237.704 118.477 238.776 118.477C239.208 118.477 239.624 118.381 240.024 118.189L239.64 117.165C239.48 117.229 239.304 117.261 239.096 117.261C238.712 117.261 238.568 117.037 238.568 116.589ZM243.336 118.285V109.853H241.864V118.285H243.336ZM251.771 115.917C251.771 114.445 250.747 113.741 248.971 113.293C247.611 112.941 247.163 112.621 247.163 111.933C247.163 111.261 247.755 110.829 248.715 110.829C249.499 110.829 250.155 111.069 250.891 111.597L251.531 110.621C250.731 110.013 249.851 109.661 248.667 109.661C246.923 109.661 245.627 110.637 245.627 111.965C245.627 113.165 246.347 113.949 248.171 114.429C249.803 114.861 250.219 115.181 250.219 116.061C250.219 116.797 249.515 117.293 248.411 117.293C247.499 117.293 246.715 116.989 246.075 116.445L245.259 117.373C245.915 117.949 246.811 118.381 248.011 118.461L247.835 119.869C248.859 119.869 249.259 120.109 249.259 120.541C249.259 121.005 248.907 121.181 248.459 121.181C248.043 121.181 247.755 121.085 247.451 120.925L247.051 121.757C247.371 121.997 247.899 122.141 248.507 122.141C249.595 122.141 250.491 121.597 250.491 120.541C250.491 119.885 250.091 119.277 249.003 119.181V118.445C250.491 118.285 251.771 117.485 251.771 115.917ZM259.528 116.317V112.461C259.528 110.701 258.6 109.661 256.568 109.661C255.624 109.661 254.696 109.853 253.656 110.237L254.024 111.309C254.888 111.021 255.672 110.861 256.296 110.861C257.464 110.861 258.056 111.309 258.056 112.525V113.149H256.76C254.408 113.149 253.048 114.125 253.048 115.933C253.048 117.437 254.056 118.477 255.736 118.477C256.76 118.477 257.656 118.093 258.248 117.213C258.504 118.045 259.048 118.381 259.896 118.477L260.232 117.453C259.8 117.293 259.528 117.053 259.528 116.317ZM256.072 117.373C255.112 117.373 254.616 116.845 254.616 115.853C254.616 114.701 255.4 114.125 256.952 114.125H258.056V116.061C257.576 116.941 256.936 117.373 256.072 117.373ZM266.519 109.661C265.415 109.661 264.519 110.237 263.943 111.101L263.815 109.853H262.551V118.285H264.023V112.301C264.583 111.405 265.223 110.813 266.167 110.813C266.983 110.813 267.495 111.181 267.495 112.445V118.285H268.967V112.237C268.967 110.637 268.071 109.661 266.519 109.661Z" fill="white"/>
<path d="M224.524 75.1052C225.793 75.1052 226.885 75.3385 227.8 75.8052C228.733 76.2718 229.443 76.9065 229.928 77.7092C230.413 78.5118 230.656 79.4078 230.656 80.3972C230.656 81.4612 230.423 82.4878 229.956 83.4772C229.508 84.4478 228.752 85.5305 227.688 86.7252C226.624 87.9198 225.065 89.4972 223.012 91.4572H231.076L230.684 94.2852H218.952V91.6532C221.341 89.2265 223.049 87.4345 224.076 86.2772C225.121 85.1012 225.859 84.1025 226.288 83.2812C226.736 82.4412 226.96 81.5732 226.96 80.6772C226.96 79.8185 226.708 79.1465 226.204 78.6612C225.719 78.1758 225.065 77.9332 224.244 77.9332C223.516 77.9332 222.872 78.0918 222.312 78.4092C221.771 78.7078 221.201 79.2118 220.604 79.9212L218.42 78.1852C220.007 76.1318 222.041 75.1052 224.524 75.1052ZM235.523 90.1692C236.158 90.1692 236.699 90.3932 237.147 90.8412C237.595 91.2705 237.819 91.8025 237.819 92.4372C237.819 93.0532 237.595 93.5852 237.147 94.0332C236.699 94.4812 236.158 94.7052 235.523 94.7052C234.907 94.7052 234.375 94.4812 233.927 94.0332C233.498 93.5852 233.283 93.0532 233.283 92.4372C233.283 91.8025 233.498 91.2705 233.927 90.8412C234.357 90.3932 234.889 90.1692 235.523 90.1692ZM246.571 75.1052C248.773 75.1052 250.444 75.9452 251.583 77.6252C252.74 79.3052 253.319 81.7225 253.319 84.8772C253.319 88.0505 252.74 90.4865 251.583 92.1852C250.444 93.8652 248.773 94.7052 246.571 94.7052C244.368 94.7052 242.688 93.8652 241.531 92.1852C240.392 90.4865 239.823 88.0505 239.823 84.8772C239.823 81.7225 240.392 79.3052 241.531 77.6252C242.688 75.9452 244.368 75.1052 246.571 75.1052ZM246.571 77.8212C245.507 77.8212 244.732 78.3625 244.247 79.4452C243.761 80.5092 243.519 82.3198 243.519 84.8772C243.519 87.4532 243.761 89.2825 244.247 90.3652C244.732 91.4478 245.507 91.9892 246.571 91.9892C247.635 91.9892 248.409 91.4572 248.895 90.3932C249.38 89.3105 249.623 87.4718 249.623 84.8772C249.623 82.3012 249.38 80.4812 248.895 79.4172C248.409 78.3532 247.635 77.8212 246.571 77.8212ZM266.905 78.1012H259.849V82.7772C260.783 82.3105 261.735 82.0772 262.705 82.0772C263.751 82.0772 264.684 82.3198 265.505 82.8052C266.327 83.2905 266.961 83.9905 267.409 84.9052C267.876 85.8198 268.109 86.9025 268.109 88.1532C268.109 89.4412 267.82 90.5798 267.241 91.5692C266.663 92.5585 265.841 93.3332 264.777 93.8932C263.713 94.4345 262.481 94.7052 261.081 94.7052C259.831 94.7052 258.72 94.4812 257.749 94.0332C256.797 93.5665 255.929 92.9038 255.145 92.0452L257.189 90.1412C258.272 91.3358 259.541 91.9332 260.997 91.9332C262.061 91.9332 262.892 91.6065 263.489 90.9532C264.105 90.2998 264.413 89.3665 264.413 88.1532C264.413 85.8198 263.405 84.6532 261.389 84.6532C260.96 84.6532 260.559 84.7092 260.185 84.8212C259.812 84.9145 259.401 85.0732 258.953 85.2972H256.405V75.4412H267.325L266.905 78.1012ZM277.168 75.1052C279.371 75.1052 281.041 75.9452 282.18 77.6252C283.337 79.3052 283.916 81.7225 283.916 84.8772C283.916 88.0505 283.337 90.4865 282.18 92.1852C281.041 93.8652 279.371 94.7052 277.168 94.7052C274.965 94.7052 273.285 93.8652 272.128 92.1852C270.989 90.4865 270.42 88.0505 270.42 84.8772C270.42 81.7225 270.989 79.3052 272.128 77.6252C273.285 75.9452 274.965 75.1052 277.168 75.1052ZM277.168 77.8212C276.104 77.8212 275.329 78.3625 274.844 79.4452C274.359 80.5092 274.116 82.3198 274.116 84.8772C274.116 87.4532 274.359 89.2825 274.844 90.3652C275.329 91.4478 276.104 91.9892 277.168 91.9892C278.232 91.9892 279.007 91.4572 279.492 90.3932C279.977 89.3105 280.22 87.4718 280.22 84.8772C280.22 82.3012 279.977 80.4812 279.492 79.4172C279.007 78.3532 278.232 77.8212 277.168 77.8212Z" fill="white"/>
<path d="M136.48 192.332C129.351 196.448 124.96 204.054 124.96 212.285C124.96 220.517 129.351 228.123 136.48 232.238C143.609 236.354 152.391 236.354 159.52 232.238C166.649 228.123 171.04 220.517 171.04 212.285C171.04 204.054 166.649 196.448 159.52 192.332C152.391 188.216 143.609 188.216 136.48 192.332ZM158.56 193.995C165.095 197.767 169.12 204.74 169.12 212.285C169.12 219.831 165.095 226.803 158.56 230.576C152.025 234.348 143.975 234.348 137.44 230.576C130.905 226.803 126.88 219.831 126.88 212.285C126.88 204.74 130.905 197.767 137.44 193.995C143.975 190.222 152.025 190.222 158.56 193.995Z" fill="white"/>
<path d="M137.933 207.485C139.578 207.484 141.162 208.087 142.388 209.171L142.686 209.452L144.839 211.604C147.262 214.027 147.462 217.865 145.362 220.521L145.11 220.822L142.493 223.765C141.798 224.546 141.38 225.529 141.296 226.564L141.28 226.954V232.992C141.28 233.522 140.85 233.952 140.32 233.952C139.849 233.952 139.457 233.613 139.375 233.165L139.36 232.992V226.954C139.36 225.458 139.859 224.009 140.772 222.834L141.058 222.489L143.675 219.546C145.287 217.733 145.283 215.02 143.716 213.214L143.481 212.962L141.329 210.81C140.518 210 139.448 209.51 138.314 209.42L137.933 209.405H126.252C125.722 209.405 125.292 208.975 125.292 208.445C125.292 207.974 125.632 207.582 126.079 207.501L126.252 207.485H137.933Z" fill="white"/>
<path d="M163.861 195.965C164.391 195.965 164.821 196.395 164.821 196.925C164.821 197.396 164.481 197.788 164.034 197.87L163.861 197.885H152.725C150.869 197.885 149.365 199.389 149.365 201.245C149.365 203.008 150.723 204.454 152.449 204.594L152.725 204.605H153.553C155.662 204.602 157.641 205.588 158.909 207.254L159.153 207.596L163.412 213.987C164.24 215.229 165.593 216.01 167.07 216.113L167.413 216.125H169.565C170.096 216.125 170.525 216.555 170.525 217.085C170.525 217.556 170.186 217.948 169.738 218.03L169.565 218.045H167.414C165.305 218.048 163.326 217.061 162.058 215.394L161.814 215.052L157.556 208.661C156.728 207.42 155.374 206.64 153.897 206.537L153.555 206.525H152.725C149.809 206.525 147.445 204.161 147.445 201.245C147.445 198.437 149.637 196.141 152.403 195.975L152.725 195.965H163.861Z" fill="white"/>
<path d="M195.616 219.981C195.088 219.981 194.688 220.381 194.688 220.893C194.688 221.405 195.088 221.805 195.616 221.805C196.128 221.805 196.528 221.405 196.528 220.893C196.528 220.381 196.128 219.981 195.616 219.981ZM198.96 219.981C198.448 219.981 198.048 220.381 198.048 220.893C198.048 221.405 198.448 221.805 198.96 221.805C199.488 221.805 199.888 221.405 199.888 220.893C199.888 220.381 199.488 219.981 198.96 219.981ZM201.152 230.749V223.261H199.616V230.637C199.616 232.349 198.864 233.197 197.28 233.197C195.712 233.197 194.96 232.349 194.96 230.637V223.261H193.44V230.749C193.44 232.941 194.768 234.477 197.28 234.477C199.76 234.477 201.152 232.941 201.152 230.749ZM205.506 232.589V222.285L204.034 222.461V232.621C204.034 233.837 204.642 234.477 205.714 234.477C206.146 234.477 206.562 234.381 206.962 234.189L206.578 233.165C206.418 233.229 206.242 233.261 206.034 233.261C205.65 233.261 205.506 233.037 205.506 232.589ZM210.273 234.285V222.285L208.801 222.461V234.285H210.273ZM212.017 229.581L215.121 225.853H213.473L210.369 229.677L213.713 234.285H215.473L212.017 229.581ZM223.201 229.821C223.201 227.245 222.001 225.661 219.729 225.661C217.553 225.661 216.225 227.533 216.225 230.157C216.225 232.829 217.601 234.477 219.953 234.477C221.121 234.477 222.065 234.077 222.897 233.421L222.257 232.541C221.521 233.053 220.897 233.277 220.065 233.277C218.849 233.277 217.937 232.525 217.793 230.573H223.169C223.185 230.381 223.201 230.109 223.201 229.821ZM221.745 229.485H217.793C217.905 227.613 218.641 226.829 219.761 226.829C221.089 226.829 221.745 227.741 221.745 229.389V229.485ZM228.849 234.333L231.665 225.853H230.145L227.937 233.213L225.681 225.853H224.113L226.945 234.285H227.441C226.961 235.597 226.481 236.253 224.769 236.541L224.929 237.693C227.265 237.437 228.257 236.125 228.849 234.333ZM239.482 229.821C239.482 227.245 238.282 225.661 236.01 225.661C233.834 225.661 232.506 227.533 232.506 230.157C232.506 232.829 233.882 234.477 236.234 234.477C237.402 234.477 238.346 234.077 239.178 233.421L238.538 232.541C237.802 233.053 237.178 233.277 236.346 233.277C235.13 233.277 234.218 232.525 234.074 230.573H239.45C239.466 230.381 239.482 230.109 239.482 229.821ZM238.026 229.485H234.074C234.186 227.613 234.922 226.829 236.042 226.829C237.37 226.829 238.026 227.741 238.026 229.389V229.485ZM246.977 219.789C246.369 219.789 245.953 220.221 245.953 220.797C245.953 221.357 246.369 221.789 246.977 221.789C247.601 221.789 248.017 221.357 248.017 220.797C248.017 220.221 247.601 219.789 246.977 219.789ZM247.761 234.285V223.261H246.225V234.285H247.761ZM254.847 225.661C253.791 225.661 252.959 226.189 252.351 227.021V222.317L250.879 222.477V234.285H252.351V228.285C252.911 227.405 253.567 226.813 254.479 226.813C255.279 226.813 255.823 227.181 255.823 228.445V234.285H257.295V228.237C257.295 226.653 256.383 225.661 254.847 225.661ZM263.918 225.661C262.894 225.661 262.11 226.301 261.662 227.565L261.518 225.853H260.254V234.285H261.726V229.469C262.078 227.853 262.686 227.101 263.742 227.101C264.046 227.101 264.222 227.133 264.478 227.197L264.75 225.757C264.494 225.693 264.19 225.661 263.918 225.661ZM271.794 232.317V228.461C271.794 226.701 270.866 225.661 268.834 225.661C267.89 225.661 266.962 225.853 265.922 226.237L266.29 227.309C267.154 227.021 267.938 226.861 268.562 226.861C269.73 226.861 270.322 227.309 270.322 228.525V229.149H269.026C266.674 229.149 265.314 230.125 265.314 231.933C265.314 233.437 266.322 234.477 268.002 234.477C269.026 234.477 269.922 234.093 270.514 233.213C270.77 234.045 271.314 234.381 272.162 234.477L272.498 233.453C272.066 233.293 271.794 233.053 271.794 232.317ZM268.338 233.373C267.378 233.373 266.882 232.845 266.882 231.853C266.882 230.701 267.666 230.125 269.218 230.125H270.322V232.061C269.842 232.941 269.202 233.373 268.338 233.373ZM277.889 225.661C275.601 225.661 274.209 227.453 274.209 230.141C274.209 232.861 275.617 234.477 277.889 234.477C278.865 234.477 279.713 234.157 280.465 233.549L279.761 232.541C279.153 233.005 278.657 233.229 277.953 233.229C276.625 233.229 275.793 232.317 275.793 230.109C275.793 227.917 276.625 226.877 277.953 226.877C278.657 226.877 279.185 227.085 279.745 227.533L280.465 226.573C279.681 225.917 278.881 225.661 277.889 225.661ZM288.138 232.317V228.461C288.138 226.701 287.21 225.661 285.178 225.661C284.234 225.661 283.306 225.853 282.266 226.237L282.634 227.309C283.498 227.021 284.282 226.861 284.906 226.861C286.074 226.861 286.666 227.309 286.666 228.525V229.149H285.37C283.018 229.149 281.658 230.125 281.658 231.933C281.658 233.437 282.666 234.477 284.346 234.477C285.37 234.477 286.266 234.093 286.858 233.213C287.114 234.045 287.658 234.381 288.506 234.477L288.842 233.453C288.41 233.293 288.138 233.053 288.138 232.317ZM284.682 233.373C283.722 233.373 283.226 232.845 283.226 231.853C283.226 230.701 284.01 230.125 285.562 230.125H286.666V232.061C286.186 232.941 285.546 233.373 284.682 233.373ZM295.417 233.901L294.857 232.893C294.441 233.149 294.105 233.261 293.737 233.261C293.001 233.261 292.729 232.861 292.729 232.013V226.989H294.569L294.729 225.853H292.729V223.773L291.257 223.949V225.853H289.785V226.989H291.257V232.077C291.257 233.645 292.105 234.477 293.529 234.477C294.249 234.477 294.857 234.285 295.417 233.901Z" fill="white"/>
<path d="M201.94 191.441V210.285H198.412V195.053L194.212 197.601L192.644 195.193L198.776 191.441H201.94ZM211.101 191.105C212.352 191.105 213.425 191.32 214.321 191.749C215.236 192.178 215.917 192.757 216.365 193.485C216.832 194.213 217.065 195.016 217.065 195.893C217.065 197.032 216.739 197.984 216.085 198.749C215.432 199.496 214.536 200.018 213.397 200.317C214.648 200.429 215.675 200.877 216.477 201.661C217.28 202.445 217.681 203.528 217.681 204.909C217.681 205.992 217.401 206.972 216.841 207.849C216.3 208.726 215.516 209.426 214.489 209.949C213.463 210.453 212.249 210.705 210.849 210.705C208.273 210.705 206.239 209.8 204.745 207.989L206.733 206.085C207.368 206.72 207.993 207.186 208.609 207.485C209.225 207.765 209.907 207.905 210.653 207.905C211.661 207.905 212.464 207.625 213.061 207.065C213.677 206.486 213.985 205.712 213.985 204.741C213.985 203.658 213.696 202.884 213.117 202.417C212.557 201.95 211.717 201.717 210.597 201.717H209.113L209.533 199.169H210.541C211.456 199.169 212.184 198.917 212.725 198.413C213.285 197.909 213.565 197.209 213.565 196.313C213.565 195.548 213.313 194.95 212.809 194.521C212.305 194.073 211.633 193.849 210.793 193.849C210.065 193.849 209.403 193.989 208.805 194.269C208.208 194.53 207.611 194.941 207.013 195.501L205.193 193.513C206.892 191.908 208.861 191.105 211.101 191.105ZM226.887 191.105C229.09 191.105 230.76 191.945 231.899 193.625C233.056 195.305 233.635 197.722 233.635 200.877C233.635 204.05 233.056 206.486 231.899 208.185C230.76 209.865 229.09 210.705 226.887 210.705C224.684 210.705 223.004 209.865 221.847 208.185C220.708 206.486 220.139 204.05 220.139 200.877C220.139 197.722 220.708 195.305 221.847 193.625C223.004 191.945 224.684 191.105 226.887 191.105ZM226.887 193.821C225.823 193.821 225.048 194.362 224.563 195.445C224.078 196.509 223.835 198.32 223.835 200.877C223.835 203.453 224.078 205.282 224.563 206.365C225.048 207.448 225.823 207.989 226.887 207.989C227.951 207.989 228.726 207.457 229.211 206.393C229.696 205.31 229.939 203.472 229.939 200.877C229.939 198.301 229.696 196.481 229.211 195.417C228.726 194.353 227.951 193.821 226.887 193.821ZM243.694 195.305V199.589H247.866V202.417H243.694V206.701H240.614V202.417H236.47V199.589H240.614V195.305H243.694Z" fill="white"/>
<path fill-rule="evenodd" clip-rule="evenodd" d="M94.0081 307.285C94.0081 306.733 94.4558 306.285 95.0081 306.285H113.008C113.56 306.285 114.008 306.733 114.008 307.285V313.285C114.008 313.837 113.56 314.285 113.008 314.285H95.0081C94.4558 314.285 94.0081 313.837 94.0081 313.285V307.285ZM96.0081 308.285V312.285H112.008V308.285H96.0081Z" fill="white"/>
<path fill-rule="evenodd" clip-rule="evenodd" d="M98.0081 313.285C98.0081 312.733 98.4558 312.285 99.0081 312.285H117.008C117.56 312.285 118.008 312.733 118.008 313.285V319.285C118.008 319.837 117.56 320.285 117.008 320.285H99.0081C98.4558 320.285 98.0081 319.837 98.0081 319.285V313.285ZM100.008 314.285V318.285H116.008V314.285H100.008Z" fill="white"/>
<path fill-rule="evenodd" clip-rule="evenodd" d="M96.0081 319.285C96.0081 318.733 96.4558 318.285 97.0081 318.285H115.008C115.56 318.285 116.008 318.733 116.008 319.285V325.285C116.008 325.837 115.56 326.285 115.008 326.285H97.0081C96.4558 326.285 96.0081 325.837 96.0081 325.285V319.285ZM98.0081 320.285V324.285H114.008V320.285H98.0081Z" fill="white"/>
<path fill-rule="evenodd" clip-rule="evenodd" d="M94.0081 325.285C94.0081 324.733 94.4558 324.285 95.0081 324.285H113.008C113.56 324.285 114.008 324.733 114.008 325.285V331.285C114.008 331.837 113.56 332.285 113.008 332.285H95.0081C94.4558 332.285 94.0081 331.837 94.0081 331.285V325.285ZM96.0081 326.285V330.285H112.008V326.285H96.0081Z" fill="white"/>
<path fill-rule="evenodd" clip-rule="evenodd" d="M96.0081 331.285C96.0081 330.733 96.4558 330.285 97.0081 330.285H115.008C115.56 330.285 116.008 330.733 116.008 331.285V337.285C116.008 337.837 115.56 338.285 115.008 338.285H97.0081C96.4558 338.285 96.0081 337.837 96.0081 337.285V331.285ZM98.0081 332.285V336.285H114.008V332.285H98.0081Z" fill="white"/>
<path fill-rule="evenodd" clip-rule="evenodd" d="M94.0081 337.285C94.0081 336.733 94.4558 336.285 95.0081 336.285H113.008C113.56 336.285 114.008 336.733 114.008 337.285V343.285C114.008 343.837 113.56 344.285 113.008 344.285H95.0081C94.4558 344.285 94.0081 343.837 94.0081 343.285V337.285ZM96.0081 338.285V342.285H112.008V338.285H96.0081Z" fill="white"/>
<path fill-rule="evenodd" clip-rule="evenodd" d="M96.0081 343.285C96.0081 342.733 96.4558 342.285 97.0081 342.285H115.008C115.56 342.285 116.008 342.733 116.008 343.285V349.285C116.008 349.837 115.56 350.285 115.008 350.285H97.0081C96.4558 350.285 96.0081 349.837 96.0081 349.285V343.285ZM98.0081 344.285V348.285H114.008V344.285H98.0081Z" fill="white"/>
<path fill-rule="evenodd" clip-rule="evenodd" d="M118.008 331.285C118.008 330.733 118.456 330.285 119.008 330.285H137.008C137.56 330.285 138.008 330.733 138.008 331.285V337.285C138.008 337.837 137.56 338.285 137.008 338.285H119.008C118.456 338.285 118.008 337.837 118.008 337.285V331.285ZM120.008 332.285V336.285H136.008V332.285H120.008Z" fill="white"/>
<path fill-rule="evenodd" clip-rule="evenodd" d="M120.008 337.285C120.008 336.733 120.456 336.285 121.008 336.285H139.008C139.56 336.285 140.008 336.733 140.008 337.285V343.285C140.008 343.837 139.56 344.285 139.008 344.285H121.008C120.456 344.285 120.008 343.837 120.008 343.285V337.285ZM122.008 338.285V342.285H138.008V338.285H122.008Z" fill="white"/>
<path fill-rule="evenodd" clip-rule="evenodd" d="M118.008 343.285C118.008 342.733 118.456 342.285 119.008 342.285H137.008C137.56 342.285 138.008 342.733 138.008 343.285V349.285C138.008 349.837 137.56 350.285 137.008 350.285H119.008C118.456 350.285 118.008 349.837 118.008 349.285V343.285ZM120.008 344.285V348.285H136.008V344.285H120.008Z" fill="white"/>
<path d="M172.456 350.285L171.544 339.261H169.48L167.272 347.277L164.952 339.261H162.904L161.992 350.285H163.432L163.8 345.421C163.928 343.805 164.008 342.093 164.008 340.797L166.52 349.037H167.944L170.328 340.813C170.344 341.725 170.456 343.581 170.6 345.309L170.984 350.285H172.456ZM175.974 337.805C175.366 337.805 174.95 338.237 174.95 338.813C174.95 339.373 175.366 339.805 175.974 339.805C176.598 339.805 177.014 339.373 177.014 338.813C177.014 338.237 176.598 337.805 175.974 337.805ZM176.726 350.285V341.853H175.254V350.285H176.726ZM181.162 348.589V338.285L179.69 338.461V348.621C179.69 349.837 180.298 350.477 181.37 350.477C181.802 350.477 182.218 350.381 182.618 350.189L182.234 349.165C182.074 349.229 181.898 349.261 181.69 349.261C181.306 349.261 181.162 349.037 181.162 348.589ZM187.834 350.333L190.65 341.853H189.13L186.922 349.213L184.666 341.853H183.098L185.93 350.285H186.426C185.946 351.597 185.466 352.253 183.754 352.541L183.914 353.693C186.25 353.437 187.242 352.125 187.834 350.333ZM195.266 341.661C192.866 341.661 191.49 343.469 191.49 346.077C191.49 348.749 192.85 350.477 195.25 350.477C197.634 350.477 199.01 348.669 199.01 346.061C199.01 343.389 197.666 341.661 195.266 341.661ZM195.266 342.845C196.658 342.845 197.426 343.869 197.426 346.061C197.426 348.269 196.658 349.293 195.25 349.293C193.842 349.293 193.074 348.269 193.074 346.077C193.074 343.869 193.858 342.845 195.266 342.845ZM205.41 341.661C204.306 341.661 203.41 342.237 202.834 343.101L202.706 341.853H201.442V350.285H202.914V344.301C203.474 343.405 204.114 342.813 205.058 342.813C205.874 342.813 206.386 343.181 206.386 344.445V350.285H207.858V344.237C207.858 342.637 206.962 341.661 205.41 341.661ZM218.987 339.069C216.491 339.069 214.411 341.037 214.411 344.765C214.411 348.477 216.347 350.477 219.019 350.477C220.507 350.477 221.579 349.869 222.171 349.245L221.403 348.269C220.779 348.733 220.107 349.197 219.067 349.197C217.355 349.197 216.027 347.949 216.027 344.765C216.027 341.437 217.419 340.317 219.083 340.317C219.851 340.317 220.523 340.573 221.211 341.133L222.043 340.157C221.163 339.453 220.379 339.069 218.987 339.069ZM224.724 337.805C224.116 337.805 223.7 338.237 223.7 338.813C223.7 339.373 224.116 339.805 224.724 339.805C225.348 339.805 225.764 339.373 225.764 338.813C225.764 338.237 225.348 337.805 224.724 337.805ZM225.476 350.285V341.853H224.004V350.285H225.476ZM232.184 341.661C231.16 341.661 230.376 342.301 229.928 343.565L229.784 341.853H228.52V350.285H229.992V345.469C230.344 343.853 230.952 343.101 232.008 343.101C232.312 343.101 232.488 343.133 232.744 343.197L233.016 341.757C232.76 341.693 232.456 341.661 232.184 341.661ZM237.704 341.661C235.304 341.661 233.928 343.469 233.928 346.077C233.928 348.749 235.288 350.477 237.688 350.477C240.072 350.477 241.448 348.669 241.448 346.061C241.448 343.389 240.104 341.661 237.704 341.661ZM237.704 342.845C239.096 342.845 239.864 343.869 239.864 346.061C239.864 348.269 239.096 349.293 237.688 349.293C236.28 349.293 235.512 348.269 235.512 346.077C235.512 343.869 236.296 342.845 237.704 342.845Z" fill="white"/>
<path d="M175.252 320.881C175.252 322.318 174.804 323.532 173.908 324.521C173.012 325.492 171.752 326.126 170.128 326.425V330.709H167.384V326.565C164.995 326.416 163.025 325.576 161.476 324.045L163.38 321.945C164.743 323.214 166.32 323.849 168.112 323.849C169.139 323.849 169.969 323.606 170.604 323.121C171.239 322.636 171.556 321.954 171.556 321.077C171.556 320.536 171.444 320.088 171.22 319.733C171.015 319.378 170.651 319.061 170.128 318.781C169.605 318.501 168.849 318.212 167.86 317.913C165.863 317.316 164.425 316.578 163.548 315.701C162.671 314.824 162.232 313.694 162.232 312.313C162.232 310.95 162.699 309.821 163.632 308.925C164.584 308.01 165.835 307.45 167.384 307.245V303.129H170.128V307.245C171.061 307.376 171.892 307.628 172.62 308.001C173.367 308.356 174.067 308.841 174.72 309.457L172.9 311.501C172.284 310.941 171.64 310.53 170.968 310.269C170.296 310.008 169.568 309.877 168.784 309.877C167.925 309.877 167.225 310.073 166.684 310.465C166.161 310.838 165.9 311.38 165.9 312.089C165.9 312.556 166.003 312.948 166.208 313.265C166.432 313.564 166.815 313.853 167.356 314.133C167.897 314.394 168.691 314.684 169.736 315.001C171.584 315.58 172.965 316.298 173.88 317.157C174.795 318.016 175.252 319.257 175.252 320.881ZM188.44 310.101H181.384V314.777C182.318 314.31 183.27 314.077 184.24 314.077C185.286 314.077 186.219 314.32 187.04 314.805C187.862 315.29 188.496 315.99 188.944 316.905C189.411 317.82 189.644 318.902 189.644 320.153C189.644 321.441 189.355 322.58 188.776 323.569C188.198 324.558 187.376 325.333 186.312 325.893C185.248 326.434 184.016 326.705 182.616 326.705C181.366 326.705 180.255 326.481 179.284 326.033C178.332 325.566 177.464 324.904 176.68 324.045L178.724 322.141C179.807 323.336 181.076 323.933 182.532 323.933C183.596 323.933 184.427 323.606 185.024 322.953C185.64 322.3 185.948 321.366 185.948 320.153C185.948 317.82 184.94 316.653 182.924 316.653C182.495 316.653 182.094 316.709 181.72 316.821C181.347 316.914 180.936 317.073 180.488 317.297H177.94V307.441H188.86L188.44 310.101ZM202.851 310.101H195.795V314.777C196.728 314.31 197.68 314.077 198.651 314.077C199.696 314.077 200.629 314.32 201.451 314.805C202.272 315.29 202.907 315.99 203.355 316.905C203.821 317.82 204.055 318.902 204.055 320.153C204.055 321.441 203.765 322.58 203.187 323.569C202.608 324.558 201.787 325.333 200.723 325.893C199.659 326.434 198.427 326.705 197.027 326.705C195.776 326.705 194.665 326.481 193.695 326.033C192.743 325.566 191.875 324.904 191.091 324.045L193.135 322.141C194.217 323.336 195.487 323.933 196.943 323.933C198.007 323.933 198.837 323.606 199.435 322.953C200.051 322.3 200.359 321.366 200.359 320.153C200.359 317.82 199.351 316.653 197.335 316.653C196.905 316.653 196.504 316.709 196.131 316.821C195.757 316.914 195.347 317.073 194.899 317.297H192.351V307.441H203.271L202.851 310.101ZM213.113 307.105C215.316 307.105 216.987 307.945 218.125 309.625C219.283 311.305 219.861 313.722 219.861 316.877C219.861 320.05 219.283 322.486 218.125 324.185C216.987 325.865 215.316 326.705 213.113 326.705C210.911 326.705 209.231 325.865 208.073 324.185C206.935 322.486 206.365 320.05 206.365 316.877C206.365 313.722 206.935 311.305 208.073 309.625C209.231 307.945 210.911 307.105 213.113 307.105ZM213.113 309.821C212.049 309.821 211.275 310.362 210.789 311.445C210.304 312.509 210.061 314.32 210.061 316.877C210.061 319.453 210.304 321.282 210.789 322.365C211.275 323.448 212.049 323.989 213.113 323.989C214.177 323.989 214.952 323.457 215.437 322.393C215.923 321.31 216.165 319.472 216.165 316.877C216.165 314.301 215.923 312.481 215.437 311.417C214.952 310.353 214.177 309.821 213.113 309.821Z" fill="white"/>
<defs>
<clipPath id="clip0_2610_560">
<rect width="48" height="48" fill="white" transform="translate(150 72.2852)"/>
</clipPath>
</defs>
</svg>
