<svg width="40" height="40" viewBox="0 0 40 40" fill="none" xmlns="http://www.w3.org/2000/svg">
<path d="M22.8334 15.9999C25.611 13.9166 29.3273 13.5815 32.4328 15.1343C35.4189 16.6273 37.3475 19.6194 37.4914 22.934L37.5 23.3332V29.1666C37.5 29.5757 37.2053 29.9159 36.8165 29.9865L36.6667 29.9999H33.2667L32.4972 39.2358C32.4652 39.6197 32.1763 39.9248 31.8082 39.9879L31.6667 39.9999H25C24.6148 39.9999 24.2866 39.7373 24.1933 39.3756L24.1696 39.2356L23.7896 34.6673C23.7514 34.2086 24.0923 33.8059 24.551 33.7678C24.9587 33.7338 25.3222 33.9994 25.4247 34.381L25.4505 34.5291L25.7667 38.3332H30.8984L31.6696 29.0974C31.7016 28.7134 31.9904 28.4083 32.3586 28.3452L32.5 28.3332H35.8334V23.3332C35.8334 20.6159 34.3649 18.1217 32.0135 16.7982L31.6875 16.625C29.1466 15.3546 26.106 15.6287 23.8334 17.3332C23.4652 17.6094 22.9429 17.5347 22.6667 17.1666C22.3906 16.7984 22.4652 16.276 22.8334 15.9999Z" fill="white"/>
<path d="M13.3338 14.1667C10.0173 14.1687 7.13583 16.4448 6.36624 19.67L3.36319 30.6129L3.33792 30.7451C3.28522 31.2269 3.66264 31.6667 4.16682 31.6667H8.38182L9.99974 39.3386C10.081 39.7242 10.4212 40.0001 10.8152 40.0001H15.8151L15.96 39.9875C16.2901 39.9294 16.5595 39.676 16.6306 39.3386L18.2468 31.6667H22.5002C23.0501 31.6667 23.4493 31.1434 23.3038 30.613L20.2955 19.643C19.5326 16.4442 16.6502 14.1678 13.3338 14.1667ZM13.3335 15.8334L13.6495 15.8425C15.9551 15.9751 17.9357 17.5392 18.599 19.7513L21.4068 30.0001H17.5718L17.427 30.0127C17.0968 30.0708 16.8275 30.3242 16.7564 30.6615L15.1368 38.3334H11.4918L9.8739 30.6615L9.83169 30.5224C9.70675 30.2113 9.40323 30.0001 9.05848 30.0001H5.25848L7.98045 20.0839C8.55311 17.686 10.6079 15.9818 13.0177 15.8426L13.3335 15.8334Z" fill="white"/>
<path d="M22.7286 3.10501C23.0599 2.78557 23.5874 2.79519 23.9069 3.1265C25.575 4.85661 27.8751 5.83375 30.2788 5.83325C31.4837 5.83352 32.676 5.58833 33.7829 5.11262C34.2058 4.93091 34.6959 5.12638 34.8776 5.54923C35.0593 5.97208 34.8638 6.46217 34.441 6.64388C33.126 7.20897 31.7097 7.50024 30.2788 7.49992C27.4228 7.50051 24.6894 6.33932 22.7071 4.28333C22.3876 3.95201 22.3972 3.42446 22.7286 3.10501Z" fill="white"/>
<path d="M25.0003 0.893164C22.9377 2.08405 21.667 4.2849 21.667 6.66667C21.667 9.04844 22.9377 11.2493 25.0003 12.4402C27.063 13.6311 29.6043 13.6311 31.667 12.4402C33.7297 11.2493 35.0003 9.04844 35.0003 6.66667C35.0003 4.2849 33.7297 2.08405 31.667 0.893164C29.7189 -0.231561 27.3439 -0.294046 25.3484 0.70571L25.0003 0.893164ZM30.8337 2.33654C32.3807 3.2297 33.3337 4.88034 33.3337 6.66667C33.3337 8.453 32.3807 10.1036 30.8337 10.9968C29.2867 11.89 27.3807 11.89 25.8337 10.9968C24.2867 10.1036 23.3337 8.453 23.3337 6.66667C23.3337 4.88034 24.2867 3.2297 25.8337 2.33654C27.3807 1.44338 29.2867 1.44338 30.8337 2.33654Z" fill="white"/>
<path d="M12.7037 4.41601C13.036 4.03255 13.631 4.03255 13.9633 4.41601C15.2555 5.9072 17.1247 6.77331 19.0977 6.79514C19.5579 6.80023 19.9269 7.17743 19.9218 7.63764C19.9167 8.09785 19.5395 8.46679 19.0793 8.4617C17.0616 8.43938 15.1315 7.70606 13.6169 6.41376L13.3318 6.15675L13.0501 6.41376C11.6437 7.61375 9.87898 8.33177 8.01862 8.44609L7.58772 8.4617C7.12751 8.46679 6.75031 8.09785 6.74517 7.63764C6.74013 7.17743 7.10907 6.80023 7.56928 6.79514C9.54235 6.77331 11.4115 5.9072 12.7037 4.41601Z" fill="white"/>
<path d="M13.3337 0C9.65176 0 6.66699 2.98477 6.66699 6.66667C6.66699 10.3486 9.65176 13.3333 13.3337 13.3333C17.0156 13.3333 20.0003 10.3486 20.0003 6.66667C20.0003 2.98477 17.0156 0 13.3337 0ZM13.3337 1.66667C16.0951 1.66667 18.3337 3.90524 18.3337 6.66667C18.3337 9.42809 16.0951 11.6667 13.3337 11.6667C10.5722 11.6667 8.33366 9.42809 8.33366 6.66667C8.33366 3.90524 10.5722 1.66667 13.3337 1.66667Z" fill="white"/>
</svg>
