<svg width="240" height="200" viewBox="0 0 240 200" fill="none" xmlns="http://www.w3.org/2000/svg">
<g filter="url(#filter0_d_259_5934)">
<rect x="30" y="30" width="180" height="140" rx="16" fill="white"/>
<path fill-rule="evenodd" clip-rule="evenodd" d="M99 74.5L102 73.5L106 72.5L107 70.5L109 67.5L111 66.5V63.5L115 62.5L118 60.5H121L124 63.5H127L128 65.5L133 71.5L136 72.5L140 75.5L141 79.5H133L129 92.5L122 90.5H114L110 92.5L109 91.5V90.5L106 79.5L101 80.5L97 79.5L99 74.5ZM116.5 80C116.5 80.8284 115.828 81.5 115 81.5C114.172 81.5 113.5 80.8284 113.5 80C113.5 79.1716 114.172 78.5 115 78.5C115.828 78.5 116.5 79.1716 116.5 80ZM123.5 81.5C124.328 81.5 125 80.8284 125 80C125 79.1716 124.328 78.5 123.5 78.5C122.672 78.5 122 79.1716 122 80C122 80.8284 122.672 81.5 123.5 81.5Z" fill="#DC002E"/>
<path d="M119.493 59.5C121.554 59.5 123.425 60.6045 124.436 62.3398L124.494 62.4504L124.768 62.4028C126.11 62.2232 127.481 62.7652 128.33 63.8768L128.517 64.1433C129.577 65.8026 129.212 67.9947 127.671 69.2204C126.13 70.4461 123.912 70.3088 122.533 68.9025C122.163 68.5246 122.169 67.9181 122.547 67.5478C122.883 67.2187 123.4 67.187 123.77 67.4494L123.902 67.5616C124.593 68.2668 125.705 68.3357 126.478 67.721C127.251 67.1063 127.434 66.007 126.902 65.1749C126.412 64.4068 125.458 64.0958 124.62 64.4009L124.414 64.4901C123.898 64.7488 123.273 64.4969 123.081 63.9531C122.544 62.4325 121.106 61.4158 119.493 61.4158C117.881 61.4158 116.443 62.4325 115.906 63.9531C115.734 64.4407 115.213 64.694 114.735 64.554L114.578 64.4925C113.7 64.0582 112.637 64.355 112.111 65.1808C111.586 66.0066 111.767 67.0958 112.532 67.7066C113.297 68.3173 114.399 68.2532 115.088 67.5578C115.461 67.182 116.067 67.1792 116.443 67.5515C116.819 67.9239 116.822 68.5304 116.449 68.9062C115.071 70.2969 112.867 70.4253 111.337 69.2038C109.807 67.9823 109.444 65.8039 110.495 64.1522C111.312 62.8676 112.781 62.223 114.219 62.4087L114.488 62.4542L114.551 62.3398C115.502 60.7065 117.215 59.6321 119.132 59.5114L119.493 59.5Z" fill="#DC002E"/>
<path d="M108.977 91.8606C113.325 88.1572 125.461 88.1135 130.02 91.824C130.43 92.158 130.492 92.7613 130.158 93.1716C129.824 93.5819 129.221 93.6438 128.811 93.3098C124.964 90.179 113.859 90.219 110.219 93.3192C109.816 93.6622 109.212 93.6138 108.869 93.211C108.526 92.8082 108.574 92.2037 108.977 91.8606Z" fill="#DC002E"/>
<path d="M127.353 65.6326C127.667 65.2068 128.267 65.1162 128.693 65.4302C130.506 66.767 131.981 68.5004 133.011 70.4914L133.261 70.9987L133.641 71.0087C135.042 71.0789 136.412 71.4538 137.657 72.1096L138.118 72.3687C139.108 72.9627 139.923 73.6265 140.574 74.3501C142.223 76.1817 142.673 78.1374 142.444 79.8051L142.405 80.0438C142.398 80.0758 142.392 80.1038 142.386 80.1278C142.297 80.4804 142.017 80.7527 141.663 80.8309C139.244 81.3639 136.747 81.4124 134.294 80.9716L133.56 80.8246L133.339 80.7617L133.332 80.8359C132.485 86.655 130.816 92.3242 128.372 97.6741L127.837 98.8155C126.777 101.008 124.617 102.444 122.206 102.59L121.802 102.602H117.204C114.632 102.601 112.288 101.13 111.168 98.8143C108.613 93.5125 106.828 87.8778 105.863 82.0809L105.658 80.7617L105.413 80.8309C102.995 81.3639 100.498 81.4124 98.0652 80.9763L97.3375 80.8309C96.9826 80.7527 96.7025 80.4804 96.6144 80.1278L96.5755 79.936C96.5688 79.8962 96.5621 79.8525 96.5556 79.8051C96.3267 78.1374 96.7772 76.1817 98.4256 74.3501C99.0769 73.6265 99.8924 72.9627 100.883 72.3684C102.245 71.552 103.783 71.0874 105.359 71.0086L105.738 70.9987L105.99 70.4907C106.927 68.6803 108.234 67.0832 109.827 65.8039L110.314 65.4298C110.74 65.1161 111.339 65.2072 111.653 65.6332C111.967 66.0592 111.876 66.6589 111.45 66.9725C109.585 68.3452 108.13 70.2 107.241 72.3376C107.084 72.714 106.707 72.9501 106.3 72.9259C104.747 72.8337 103.202 73.2121 101.868 74.0115C101.038 74.5095 100.371 75.0526 99.8497 75.6318C98.8065 76.7908 98.4162 77.9668 98.4163 78.9976L98.4196 79.0911L98.4688 79.1022C100.392 79.4391 102.357 79.4396 104.262 79.1067L104.974 78.9663C105.347 78.8728 105.711 78.7477 106.063 78.5922C106.65 78.3325 107.321 78.7125 107.401 79.3494C108.209 85.8173 110.065 92.1106 112.894 97.9815C113.643 99.5315 115.162 100.552 116.862 100.674L117.204 100.686H121.802C123.638 100.686 125.313 99.6349 126.112 97.9829C128.939 92.1106 130.793 85.8173 131.599 79.3497C131.679 78.7126 132.35 78.3325 132.937 78.5922C133.289 78.7477 133.653 78.8728 133.999 78.96C135.91 79.3812 137.876 79.4654 139.808 79.2127L140.579 79.0911L140.584 78.9976C140.584 78.0605 140.261 77.0035 139.419 75.9482L139.15 75.6318C138.629 75.0526 137.962 74.5095 137.132 74.0118C135.798 73.2123 134.253 72.8339 132.7 72.9259C132.293 72.9501 131.915 72.7138 131.759 72.3372C130.871 70.2002 129.418 68.3455 127.556 66.9721C127.13 66.6581 127.039 66.0584 127.353 65.6326Z" fill="#DC002E"/>
<path d="M134.056 63.0675C133.754 63.6278 133.389 64.1467 132.98 64.6014L132.664 64.93C131.51 66.1994 129.923 66.9926 128.215 67.1549C127.688 67.2049 127.221 66.8185 127.17 66.2918C127.12 65.7651 127.507 65.2976 128.034 65.2476C129.267 65.1305 130.413 64.5575 131.285 63.6017C131.804 63.0928 132.226 62.4942 132.54 61.8168C132.854 61.1746 133.499 60.7605 134.213 60.7428C134.928 60.7251 135.593 61.1066 135.937 61.7296C136.893 63.4493 137.173 65.4646 136.707 67.4261C136.134 69.4034 135.057 71.198 133.582 72.6348C133.203 73.004 132.597 72.9961 132.228 72.6172C131.858 72.2383 131.866 71.6318 132.245 71.2626C133.482 70.0571 134.386 68.5512 134.855 66.9386C135.164 65.6337 135.024 64.2673 134.463 63.0558L134.262 62.6558L134.056 63.0675Z" fill="#DC002E"/>
<path d="M104.792 60.7428C105.507 60.7605 106.152 61.1746 106.475 61.8348C106.78 62.4942 107.202 63.0928 107.759 63.6408C108.593 64.5575 109.738 65.1305 110.972 65.2476C111.499 65.2976 111.885 65.7651 111.835 66.2918C111.785 66.8185 111.318 67.2049 110.791 67.1549C109.225 67.0062 107.761 66.3272 106.668 65.2675L106.379 64.9691C105.809 64.4101 105.328 63.7689 104.955 63.0782L104.745 62.658C104.019 63.9629 103.808 65.4887 104.138 66.8922C104.62 68.5512 105.523 70.0571 106.761 71.2626C107.139 71.6318 107.147 72.2383 106.778 72.6172C106.409 72.9961 105.802 73.004 105.424 72.6348C103.949 71.198 102.872 69.4034 102.286 67.3797C101.833 65.4646 102.112 63.4493 103.067 61.7325C103.413 61.1066 104.078 60.7251 104.792 60.7428Z" fill="#DC002E"/>
<path d="M116.629 93.749C117.099 93.749 117.491 94.0879 117.572 94.5347L117.587 94.7069V96.6228C117.587 97.1518 117.158 97.5807 116.629 97.5807C116.159 97.5807 115.768 97.2418 115.687 96.795L115.671 96.6228V94.7069C115.671 94.1779 116.1 93.749 116.629 93.749Z" fill="#DC002E"/>
<path d="M122.377 93.749C122.847 93.749 123.238 94.0879 123.319 94.5347L123.335 94.7069V96.6228C123.335 97.1518 122.906 97.5807 122.377 97.5807C121.906 97.5807 121.515 97.2418 121.434 96.795L121.419 96.6228V94.7069C121.419 94.1779 121.848 93.749 122.377 93.749Z" fill="#DC002E"/>
<path d="M114.122 126.444L110.57 133.308V137.5H108.426V133.324L104.874 126.444H107.21L109.546 131.58L111.882 126.444H114.122ZM121.806 126.444L121.582 128.012H117.502V131.1H121.054V132.668H117.502V135.916H121.87V137.5H115.39V126.444H121.806ZM134.354 137.5H132.29L132.002 132.876C131.906 131.223 131.858 129.911 131.858 128.94V128.364L129.842 136.3H127.842L125.698 128.348C125.719 129.052 125.73 129.585 125.73 129.948C125.73 130.919 125.698 131.916 125.634 132.94L125.362 137.5H123.314L124.194 126.444H126.914L128.882 134.188L130.738 126.444H133.49L134.354 137.5Z" fill="#DC002E"/>
</g>
<defs>
<filter id="filter0_d_259_5934" x="0" y="0" width="240" height="200" filterUnits="userSpaceOnUse" color-interpolation-filters="sRGB">
<feFlood flood-opacity="0" result="BackgroundImageFix"/>
<feColorMatrix in="SourceAlpha" type="matrix" values="0 0 0 0 0 0 0 0 0 0 0 0 0 0 0 0 0 0 127 0" result="hardAlpha"/>
<feOffset/>
<feGaussianBlur stdDeviation="15"/>
<feColorMatrix type="matrix" values="0 0 0 0 0 0 0 0 0 0 0 0 0 0 0 0 0 0 0.1 0"/>
<feBlend mode="normal" in2="BackgroundImageFix" result="effect1_dropShadow_259_5934"/>
<feBlend mode="normal" in="SourceGraphic" in2="effect1_dropShadow_259_5934" result="shape"/>
</filter>
</defs>
</svg>
